<?xml version="1.0" encoding="UTF-8" standalone="no"?>
<!DOCTYPE svg PUBLIC "-//W3C//DTD SVG 1.1//EN"
 "http://www.w3.org/Graphics/SVG/1.1/DTD/svg11.dtd">
<!-- Generated by graphviz version 2.40.1 (20161225.0304)
 -->
<!-- Title: UWC_p2p_f Pages: 1 -->
<svg width="259pt" height="46pt"
 viewBox="0.00 0.00 258.61 46.00" xmlns="http://www.w3.org/2000/svg" xmlns:xlink="http://www.w3.org/1999/xlink">
<g id="graph0" class="graph" transform="scale(1 1) rotate(0) translate(4 42)">
<title>UWC_p2p_f</title>
<polygon fill="#ffffff" stroke="transparent" points="-4,4 -4,-42 254.6104,-42 254.6104,4 -4,4"/>
<!-- Node4 -->
<g id="node1" class="node">
<title>Node4</title>
<polygon fill="#bfbfbf" stroke="#000000" points="0,-.5 0,-18.5 70.4678,-18.5 70.4678,-.5 0,-.5"/>
<text text-anchor="middle" x="35.2339" y="-6.5" font-family="Helvetica,sans-Serif" font-size="10.00" fill="#000000">UWC_p2p_f</text>
</g>
<!-- Node4&#45;&gt;Node4 -->
<g id="edge4" class="edge">
<title>Node4&#45;&gt;Node4</title>
<path fill="none" stroke="#191970" d="M15.4538,-27.8575C16.306,-33.0281 22.8994,-37 35.2339,-37 54.4878,-37 59.7525,-27.322 51.0281,-18.5134"/>
<polygon fill="#191970" stroke="#191970" points="18.7353,-29.0848 19.4397,-18.5134 12.2966,-26.3382 18.7353,-29.0848"/>
</g>
<!-- Node5 -->
<g id="node2" class="node">
<title>Node5</title>
<g id="a_node2"><a xlink:href="Conti2D_8h_afb187c363388d28caa8a055176269f12.html#afb187c363388d28caa8a055176269f12" target="_top" xlink:title="DWC_p2p_f">
<polygon fill="#ffffff" stroke="#000000" points="106.4678,-19.5 106.4678,-37.5 176.9355,-37.5 176.9355,-19.5 106.4678,-19.5"/>
<text text-anchor="middle" x="141.7017" y="-25.5" font-family="Helvetica,sans-Serif" font-size="10.00" fill="#000000">DWC_p2p_f</text>
</a>
</g>
</g>
<!-- Node4&#45;&gt;Node5 -->
<g id="edge1" class="edge">
<title>Node4&#45;&gt;Node5</title>
<path fill="none" stroke="#191970" d="M80.6243,-17.6003C89.2475,-19.1392 98.1515,-20.7281 106.4042,-22.2009"/>
<polygon fill="#191970" stroke="#191970" points="81.1455,-14.1381 70.6861,-15.8267 79.9157,-21.0292 81.1455,-14.1381"/>
</g>
<!-- Node6 -->
<g id="node3" class="node">
<title>Node6</title>
<g id="a_node3"><a xlink:href="main_8cpp_a0ddf1224851353fc92bfbff6f499fa97.html#a0ddf1224851353fc92bfbff6f499fa97" target="_top" xlink:title="main">
<polygon fill="#ffffff" stroke="#000000" points="212.9355,-.5 212.9355,-18.5 250.6104,-18.5 250.6104,-.5 212.9355,-.5"/>
<text text-anchor="middle" x="231.7729" y="-6.5" font-family="Helvetica,sans-Serif" font-size="10.00" fill="#000000">main</text>
</a>
</g>
</g>
<!-- Node4&#45;&gt;Node6 -->
<g id="edge3" class="edge">
<title>Node4&#45;&gt;Node6</title>
<path fill="none" stroke="#191970" d="M81.0442,-9.5C122.8714,-9.5 182.6365,-9.5 212.8032,-9.5"/>
<polygon fill="#191970" stroke="#191970" points="80.8257,-6.0001 70.8256,-9.5 80.8256,-13.0001 80.8257,-6.0001"/>
</g>
<!-- Node5&#45;&gt;Node6 -->
<g id="edge2" class="edge">
<title>Node5&#45;&gt;Node6</title>
<path fill="none" stroke="#191970" d="M186.9215,-18.9611C196.089,-17.0273 205.2463,-15.0956 212.8739,-13.4866"/>
<polygon fill="#191970" stroke="#191970" points="186.1039,-15.5565 177.0417,-21.0452 187.5488,-22.4058 186.1039,-15.5565"/>
</g>
</g>
</svg>
