<?xml version="1.0" encoding="UTF-8" standalone="no"?>
<!DOCTYPE svg PUBLIC "-//W3C//DTD SVG 1.1//EN"
 "http://www.w3.org/Graphics/SVG/1.1/DTD/svg11.dtd">
<!-- Generated by graphviz version 2.40.1 (20161225.0304)
 -->
<!-- Title: UWC_p2s Pages: 1 -->
<svg width="377pt" height="156pt"
 viewBox="0.00 0.00 377.00 156.00" xmlns="http://www.w3.org/2000/svg" xmlns:xlink="http://www.w3.org/1999/xlink">
<g id="graph0" class="graph" transform="scale(1 1) rotate(0) translate(4 152)">
<title>UWC_p2s</title>
<polygon fill="#ffffff" stroke="transparent" points="-4,4 -4,-152 373.0039,-152 373.0039,4 -4,4"/>
<!-- Node0 -->
<g id="node1" class="node">
<title>Node0</title>
<polygon fill="#bfbfbf" stroke="#000000" points="0,-55.5 0,-73.5 61.5664,-73.5 61.5664,-55.5 0,-55.5"/>
<text text-anchor="middle" x="30.7832" y="-61.5" font-family="Helvetica,sans-Serif" font-size="10.00" fill="#000000">UWC_p2s</text>
</g>
<!-- Node1 -->
<g id="node2" class="node">
<title>Node1</title>
<g id="a_node2"><a xlink:href="Conti2D_8cpp_a78d8a6b80166f8976a0f18caddbe1dcb.html#a78d8a6b80166f8976a0f18caddbe1dcb" target="_top" xlink:title="Getkernel_p2s_new">
<polygon fill="#ffffff" stroke="#000000" points="97.5664,-111.5 97.5664,-129.5 202.5117,-129.5 202.5117,-111.5 97.5664,-111.5"/>
<text text-anchor="middle" x="150.0391" y="-117.5" font-family="Helvetica,sans-Serif" font-size="10.00" fill="#000000">Getkernel_p2s_new</text>
</a>
</g>
</g>
<!-- Node0&#45;&gt;Node1 -->
<g id="edge1" class="edge">
<title>Node0&#45;&gt;Node1</title>
<path fill="none" stroke="#191970" d="M44.9654,-73.6061C58.2129,-81.8589 78.7196,-93.9955 97.5664,-102.5 101.7787,-104.4008 106.2555,-106.2214 110.7496,-107.9251"/>
<polygon fill="#191970" stroke="#191970" points="109.9253,-111.3487 120.5196,-111.4539 112.3033,-104.7649 109.9253,-111.3487"/>
</g>
<!-- Node4 -->
<g id="node5" class="node">
<title>Node4</title>
<g id="a_node5"><a xlink:href="Conti2D_8cpp_a2c90cdea3ca11177ba34c14a3b0a00cb.html#a2c90cdea3ca11177ba34c14a3b0a00cb" target="_top" xlink:title="Read a Surfer Grid data from file. ">
<polygon fill="#ffffff" stroke="#000000" points="121.751,-74.5 121.751,-92.5 178.3271,-92.5 178.3271,-74.5 121.751,-74.5"/>
<text text-anchor="middle" x="150.0391" y="-80.5" font-family="Helvetica,sans-Serif" font-size="10.00" fill="#000000">ReadGrd</text>
</a>
</g>
</g>
<!-- Node0&#45;&gt;Node4 -->
<g id="edge4" class="edge">
<title>Node0&#45;&gt;Node4</title>
<path fill="none" stroke="#191970" d="M61.805,-69.4424C76.9772,-71.8597 95.3877,-74.7929 111.4582,-77.3533"/>
<polygon fill="#191970" stroke="#191970" points="111.1973,-80.8557 121.6235,-78.9728 112.2987,-73.9429 111.1973,-80.8557"/>
</g>
<!-- Node5 -->
<g id="node6" class="node">
<title>Node5</title>
<g id="a_node6"><a xlink:href="Conti2D_8cpp_ab76adf263893ac28772283c5a00b964c.html#ab76adf263893ac28772283c5a00b964c" target="_top" xlink:title="Save a Surfer Grid data to file. ">
<polygon fill="#ffffff" stroke="#000000" points="122.3076,-37.5 122.3076,-55.5 177.7705,-55.5 177.7705,-37.5 122.3076,-37.5"/>
<text text-anchor="middle" x="150.0391" y="-43.5" font-family="Helvetica,sans-Serif" font-size="10.00" fill="#000000">SaveGrd</text>
</a>
</g>
</g>
<!-- Node0&#45;&gt;Node5 -->
<g id="edge5" class="edge">
<title>Node0&#45;&gt;Node5</title>
<path fill="none" stroke="#191970" d="M61.805,-59.8177C77.0904,-57.5106 95.6626,-54.7074 111.8176,-52.269"/>
<polygon fill="#191970" stroke="#191970" points="112.6603,-55.6815 122.0259,-50.7282 111.6155,-48.7599 112.6603,-55.6815"/>
</g>
<!-- Node6 -->
<g id="node7" class="node">
<title>Node6</title>
<g id="a_node7"><a xlink:href="Conti2D_8cpp_a632c1e4efbb7e9b1aaf04db729e69394.html#a632c1e4efbb7e9b1aaf04db729e69394" target="_top" xlink:title="UWC_Gij">
<polygon fill="#ffffff" stroke="#000000" points="121.2065,-.5 121.2065,-18.5 178.8716,-18.5 178.8716,-.5 121.2065,-.5"/>
<text text-anchor="middle" x="150.0391" y="-6.5" font-family="Helvetica,sans-Serif" font-size="10.00" fill="#000000">UWC_Gij</text>
</a>
</g>
</g>
<!-- Node0&#45;&gt;Node6 -->
<g id="edge6" class="edge">
<title>Node0&#45;&gt;Node6</title>
<path fill="none" stroke="#191970" d="M46.11,-55.4006C59.4402,-47.6912 79.4133,-36.6264 97.5664,-28.5 102.5959,-26.2485 107.9805,-24.0596 113.3143,-22.0167"/>
<polygon fill="#191970" stroke="#191970" points="114.6099,-25.2693 122.7725,-18.5149 112.1794,-18.7047 114.6099,-25.2693"/>
</g>
<!-- Node2 -->
<g id="node3" class="node">
<title>Node2</title>
<g id="a_node3"><a xlink:href="Conti2D_8cpp_a4bb34ae88cf16e429505f9eb746384cd.html#a4bb34ae88cf16e429505f9eb746384cd" target="_top" xlink:title="GetPmnij">
<polygon fill="#ffffff" stroke="#000000" points="275.1963,-129.5 275.1963,-147.5 332.3193,-147.5 332.3193,-129.5 275.1963,-129.5"/>
<text text-anchor="middle" x="303.7578" y="-135.5" font-family="Helvetica,sans-Serif" font-size="10.00" fill="#000000">GetPmnij</text>
</a>
</g>
</g>
<!-- Node1&#45;&gt;Node2 -->
<g id="edge2" class="edge">
<title>Node1&#45;&gt;Node2</title>
<path fill="none" stroke="#191970" d="M202.9403,-126.6946C223.3112,-129.08 246.177,-131.7575 264.9761,-133.9588"/>
<polygon fill="#191970" stroke="#191970" points="264.6208,-137.441 274.9601,-135.1279 265.435,-130.4885 264.6208,-137.441"/>
</g>
<!-- Node3 -->
<g id="node4" class="node">
<title>Node3</title>
<g id="a_node4"><a xlink:href="classMultiProgressBar_a58eef55ad6d5c7d769b3a402a2ef7b85.html#a58eef55ad6d5c7d769b3a402a2ef7b85" target="_top" xlink:title="MultiProgressBar::Update">
<polygon fill="#ffffff" stroke="#000000" points="238.5117,-92.5 238.5117,-110.5 369.0039,-110.5 369.0039,-92.5 238.5117,-92.5"/>
<text text-anchor="middle" x="303.7578" y="-98.5" font-family="Helvetica,sans-Serif" font-size="10.00" fill="#000000">MultiProgressBar::Update</text>
</a>
</g>
</g>
<!-- Node1&#45;&gt;Node3 -->
<g id="edge3" class="edge">
<title>Node1&#45;&gt;Node3</title>
<path fill="none" stroke="#191970" d="M202.9403,-113.9613C211.1175,-112.9506 219.6966,-111.8902 228.2533,-110.8325"/>
<polygon fill="#191970" stroke="#191970" points="228.7674,-114.2957 238.2625,-109.5954 227.9086,-107.3486 228.7674,-114.2957"/>
</g>
</g>
</svg>
