<?xml version="1.0" encoding="UTF-8" standalone="no"?>
<!DOCTYPE svg PUBLIC "-//W3C//DTD SVG 1.1//EN"
 "http://www.w3.org/Graphics/SVG/1.1/DTD/svg11.dtd">
<!-- Generated by graphviz version 2.40.1 (20161225.0304)
 -->
<!-- Title: UWC_p2p_f Pages: 1 -->
<svg width="171pt" height="64pt"
 viewBox="0.00 0.00 171.04 64.00" xmlns="http://www.w3.org/2000/svg" xmlns:xlink="http://www.w3.org/1999/xlink">
<g id="graph0" class="graph" transform="scale(1 1) rotate(0) translate(4 60)">
<title>UWC_p2p_f</title>
<polygon fill="#ffffff" stroke="transparent" points="-4,4 -4,-60 167.0439,-60 167.0439,4 -4,4"/>
<!-- Node0 -->
<g id="node1" class="node">
<title>Node0</title>
<polygon fill="#bfbfbf" stroke="#000000" points="0,-18.5 0,-36.5 70.4678,-36.5 70.4678,-18.5 0,-18.5"/>
<text text-anchor="middle" x="35.2339" y="-24.5" font-family="Helvetica,sans-Serif" font-size="10.00" fill="#000000">UWC_p2p_f</text>
</g>
<!-- Node0&#45;&gt;Node0 -->
<g id="edge3" class="edge">
<title>Node0&#45;&gt;Node0</title>
<path fill="none" stroke="#191970" d="M20.6317,-36.5134C12.5657,-45.322 17.4331,-55 35.2339,-55 46.6375,-55 52.7333,-51.0281 53.5212,-45.8575"/>
<polygon fill="#191970" stroke="#191970" points="56.7609,-44.532 49.8361,-36.5134 50.249,-47.1002 56.7609,-44.532"/>
</g>
<!-- Node1 -->
<g id="node2" class="node">
<title>Node1</title>
<g id="a_node2"><a xlink:href="Conti2D_8cpp_a2c90cdea3ca11177ba34c14a3b0a00cb.html#a2c90cdea3ca11177ba34c14a3b0a00cb" target="_top" xlink:title="Read a Surfer Grid data from file. ">
<polygon fill="#ffffff" stroke="#000000" points="106.4678,-37.5 106.4678,-55.5 163.0439,-55.5 163.0439,-37.5 106.4678,-37.5"/>
<text text-anchor="middle" x="134.7559" y="-43.5" font-family="Helvetica,sans-Serif" font-size="10.00" fill="#000000">ReadGrd</text>
</a>
</g>
</g>
<!-- Node0&#45;&gt;Node1 -->
<g id="edge1" class="edge">
<title>Node0&#45;&gt;Node1</title>
<path fill="none" stroke="#191970" d="M70.6018,-34.2522C78.9431,-35.8446 87.8746,-37.5498 96.3431,-39.1665"/>
<polygon fill="#191970" stroke="#191970" points="95.8932,-42.6438 106.3721,-41.0812 97.2059,-35.7679 95.8932,-42.6438"/>
</g>
<!-- Node2 -->
<g id="node3" class="node">
<title>Node2</title>
<g id="a_node3"><a xlink:href="Conti2D_8cpp_ab76adf263893ac28772283c5a00b964c.html#ab76adf263893ac28772283c5a00b964c" target="_top" xlink:title="Save a Surfer Grid data to file. ">
<polygon fill="#ffffff" stroke="#000000" points="107.0244,-.5 107.0244,-18.5 162.4873,-18.5 162.4873,-.5 107.0244,-.5"/>
<text text-anchor="middle" x="134.7559" y="-6.5" font-family="Helvetica,sans-Serif" font-size="10.00" fill="#000000">SaveGrd</text>
</a>
</g>
</g>
<!-- Node0&#45;&gt;Node2 -->
<g id="edge2" class="edge">
<title>Node0&#45;&gt;Node2</title>
<path fill="none" stroke="#191970" d="M70.6018,-21.1032C79.1953,-19.5489 88.4155,-17.8813 97.1102,-16.3088"/>
<polygon fill="#191970" stroke="#191970" points="97.7892,-19.7428 107.0066,-14.5189 96.5433,-12.8546 97.7892,-19.7428"/>
</g>
</g>
</svg>
