<?xml version="1.0" encoding="UTF-8" standalone="no"?>
<!DOCTYPE svg PUBLIC "-//W3C//DTD SVG 1.1//EN"
 "http://www.w3.org/Graphics/SVG/1.1/DTD/svg11.dtd">
<!-- Generated by graphviz version 2.40.1 (20161225.0304)
 -->
<!-- Title: GetGij Pages: 1 -->
<svg width="146pt" height="64pt"
 viewBox="0.00 0.00 146.00 64.00" xmlns="http://www.w3.org/2000/svg" xmlns:xlink="http://www.w3.org/1999/xlink">
<g id="graph0" class="graph" transform="scale(1 1) rotate(0) translate(4 60)">
<title>GetGij</title>
<polygon fill="#ffffff" stroke="transparent" points="-4,4 -4,-60 142.0049,-60 142.0049,4 -4,4"/>
<!-- Node1 -->
<g id="node1" class="node">
<title>Node1</title>
<polygon fill="#bfbfbf" stroke="#000000" points="0,-18.5 0,-36.5 44.3398,-36.5 44.3398,-18.5 0,-18.5"/>
<text text-anchor="middle" x="22.1699" y="-24.5" font-family="Helvetica,sans-Serif" font-size="10.00" fill="#000000">GetGij</text>
</g>
<!-- Node2 -->
<g id="node2" class="node">
<title>Node2</title>
<g id="a_node2"><a xlink:href="Conti2D_8h_ac58c50337e14cc142ee9377c561c05fa.html#ac58c50337e14cc142ee9377c561c05fa" target="_top" xlink:title="UWC_Gij">
<polygon fill="#ffffff" stroke="#000000" points="80.3398,-37.5 80.3398,-55.5 138.0049,-55.5 138.0049,-37.5 80.3398,-37.5"/>
<text text-anchor="middle" x="109.1724" y="-43.5" font-family="Helvetica,sans-Serif" font-size="10.00" fill="#000000">UWC_Gij</text>
</a>
</g>
</g>
<!-- Node1&#45;&gt;Node2 -->
<g id="edge1" class="edge">
<title>Node1&#45;&gt;Node2</title>
<path fill="none" stroke="#191970" d="M54.4938,-34.559C62.948,-36.4053 72.0064,-38.3835 80.2698,-40.1881"/>
<polygon fill="#191970" stroke="#191970" points="55.0917,-31.1072 44.5752,-32.393 53.5982,-37.946 55.0917,-31.1072"/>
</g>
<!-- Node3 -->
<g id="node3" class="node">
<title>Node3</title>
<g id="a_node3"><a xlink:href="Conti2D_8h_a8605c53ff46885c04166a7f598084aa4.html#a8605c53ff46885c04166a7f598084aa4" target="_top" xlink:title="UWC_Gji">
<polygon fill="#ffffff" stroke="#000000" points="80.3398,-.5 80.3398,-18.5 138.0049,-18.5 138.0049,-.5 80.3398,-.5"/>
<text text-anchor="middle" x="109.1724" y="-6.5" font-family="Helvetica,sans-Serif" font-size="10.00" fill="#000000">UWC_Gji</text>
</a>
</g>
</g>
<!-- Node1&#45;&gt;Node3 -->
<g id="edge2" class="edge">
<title>Node1&#45;&gt;Node3</title>
<path fill="none" stroke="#191970" d="M54.4938,-20.8125C62.948,-19.0634 72.0064,-17.1893 80.2698,-15.4797"/>
<polygon fill="#191970" stroke="#191970" points="53.6587,-17.4111 44.5752,-22.8646 55.077,-24.2659 53.6587,-17.4111"/>
</g>
</g>
</svg>
