<?xml version="1.0" encoding="UTF-8" standalone="no"?>
<!DOCTYPE svg PUBLIC "-//W3C//DTD SVG 1.1//EN"
 "http://www.w3.org/Graphics/SVG/1.1/DTD/svg11.dtd">
<!-- Generated by graphviz version 2.40.1 (20161225.0304)
 -->
<!-- Title: main Pages: 1 -->
<svg width="514pt" height="891pt"
 viewBox="0.00 0.00 514.24 891.00" xmlns="http://www.w3.org/2000/svg" xmlns:xlink="http://www.w3.org/1999/xlink">
<g id="graph0" class="graph" transform="scale(1 1) rotate(0) translate(4 887)">
<title>main</title>
<polygon fill="#ffffff" stroke="transparent" points="-4,4 -4,-887 510.2383,-887 510.2383,4 -4,4"/>
<!-- Node0 -->
<g id="node1" class="node">
<title>Node0</title>
<polygon fill="#bfbfbf" stroke="#000000" points="0,-203.5 0,-221.5 37.6748,-221.5 37.6748,-203.5 0,-203.5"/>
<text text-anchor="middle" x="18.8374" y="-209.5" font-family="Helvetica,sans-Serif" font-size="10.00" fill="#000000">main</text>
</g>
<!-- Node1 -->
<g id="node2" class="node">
<title>Node1</title>
<g id="a_node2"><a xlink:href="Conti2D_8cpp_ab87ce573de93575b7ece2e4f772e03fd.html#ab87ce573de93575b7ece2e4f772e03fd" target="_top" xlink:title="DWC_p2p">
<polygon fill="#ffffff" stroke="#000000" points="92.1172,-525.5 92.1172,-543.5 154.2451,-543.5 154.2451,-525.5 92.1172,-525.5"/>
<text text-anchor="middle" x="123.1812" y="-531.5" font-family="Helvetica,sans-Serif" font-size="10.00" fill="#000000">DWC_p2p</text>
</a>
</g>
</g>
<!-- Node0&#45;&gt;Node1 -->
<g id="edge1" class="edge">
<title>Node0&#45;&gt;Node1</title>
<path fill="none" stroke="#191970" d="M19.0826,-221.7281C20.3501,-256.9107 28.0335,-385.2872 73.6748,-477.5 81.3478,-493.0024 94.2659,-507.6691 104.9823,-518.2421"/>
<polygon fill="#191970" stroke="#191970" points="102.625,-520.8301 112.2899,-525.1707 107.4413,-515.7504 102.625,-520.8301"/>
</g>
<!-- Node15 -->
<g id="node16" class="node">
<title>Node15</title>
<g id="a_node16"><a xlink:href="Conti2D_8cpp_afb187c363388d28caa8a055176269f12.html#afb187c363388d28caa8a055176269f12" target="_top" xlink:title="DWC_p2p_f">
<polygon fill="#ffffff" stroke="#000000" points="87.9473,-222.5 87.9473,-240.5 158.415,-240.5 158.415,-222.5 87.9473,-222.5"/>
<text text-anchor="middle" x="123.1812" y="-228.5" font-family="Helvetica,sans-Serif" font-size="10.00" fill="#000000">DWC_p2p_f</text>
</a>
</g>
</g>
<!-- Node0&#45;&gt;Node15 -->
<g id="edge27" class="edge">
<title>Node0&#45;&gt;Node15</title>
<path fill="none" stroke="#191970" d="M37.9757,-215.9849C49.1487,-218.0194 63.7554,-220.6791 77.7116,-223.2204"/>
<polygon fill="#191970" stroke="#191970" points="77.2352,-226.6911 87.7004,-225.0393 78.4892,-219.8044 77.2352,-226.6911"/>
</g>
<!-- Node17 -->
<g id="node18" class="node">
<title>Node17</title>
<g id="a_node18"><a xlink:href="Conti2D_8cpp_af82757cb7e0f4f398e774b4e89b9ea72.html#af82757cb7e0f4f398e774b4e89b9ea72" target="_top" xlink:title="UWC_p2p_f">
<polygon fill="#ffffff" stroke="#000000" points="238.9829,-241.5 238.9829,-259.5 309.4507,-259.5 309.4507,-241.5 238.9829,-241.5"/>
<text text-anchor="middle" x="274.2168" y="-247.5" font-family="Helvetica,sans-Serif" font-size="10.00" fill="#000000">UWC_p2p_f</text>
</a>
</g>
</g>
<!-- Node0&#45;&gt;Node17 -->
<g id="edge56" class="edge">
<title>Node0&#45;&gt;Node17</title>
<path fill="none" stroke="#191970" d="M28.3444,-221.8431C38.5629,-231.1712 55.7654,-244.9012 73.6748,-250.5 124.9872,-266.5411 187.3607,-263.2309 228.783,-258.0778"/>
<polygon fill="#191970" stroke="#191970" points="229.3924,-261.5276 238.8432,-256.7387 228.4687,-254.5889 229.3924,-261.5276"/>
</g>
<!-- Node18 -->
<g id="node19" class="node">
<title>Node18</title>
<g id="a_node19"><a xlink:href="Conti2D_8cpp_ab256354d6264edd8deb4e31f98a7489f.html#ab256354d6264edd8deb4e31f98a7489f" target="_top" xlink:title="DWC_s2p">
<polygon fill="#ffffff" stroke="#000000" points="92.3979,-677.5 92.3979,-695.5 153.9644,-695.5 153.9644,-677.5 92.3979,-677.5"/>
<text text-anchor="middle" x="123.1812" y="-683.5" font-family="Helvetica,sans-Serif" font-size="10.00" fill="#000000">DWC_s2p</text>
</a>
</g>
</g>
<!-- Node0&#45;&gt;Node18 -->
<g id="edge35" class="edge">
<title>Node0&#45;&gt;Node18</title>
<path fill="none" stroke="#191970" d="M19.6361,-221.5928C23.2717,-261.4143 39.5715,-424.2068 73.6748,-553.5 84.7264,-595.3991 103.9591,-642.5019 114.9157,-667.8826"/>
<polygon fill="#191970" stroke="#191970" points="111.8431,-669.5918 119.0567,-677.3516 118.2566,-666.787 111.8431,-669.5918"/>
</g>
<!-- Node20 -->
<g id="node21" class="node">
<title>Node20</title>
<g id="a_node21"><a xlink:href="Conti2D_8h_ae9ea2d2408945cb9ad31ee7f03ca183a.html#ae9ea2d2408945cb9ad31ee7f03ca183a" target="_top" xlink:title="helpINFO">
<polygon fill="#ffffff" stroke="#000000" points="93.7847,-185.5 93.7847,-203.5 152.5776,-203.5 152.5776,-185.5 93.7847,-185.5"/>
<text text-anchor="middle" x="123.1812" y="-191.5" font-family="Helvetica,sans-Serif" font-size="10.00" fill="#000000">helpINFO</text>
</a>
</g>
</g>
<!-- Node0&#45;&gt;Node20 -->
<g id="edge44" class="edge">
<title>Node0&#45;&gt;Node20</title>
<path fill="none" stroke="#191970" d="M37.9757,-209.1985C50.717,-207.0006 67.9236,-204.0323 83.5387,-201.3386"/>
<polygon fill="#191970" stroke="#191970" points="84.2478,-204.768 93.5072,-199.6189 83.0578,-197.8699 84.2478,-204.768"/>
</g>
<!-- Node22 -->
<g id="node23" class="node">
<title>Node22</title>
<g id="a_node23"><a xlink:href="main_8cpp_adab29bff9da0db53a1c9a47fed7144bb.html#adab29bff9da0db53a1c9a47fed7144bb" target="_top" xlink:title="isNum">
<polygon fill="#ffffff" stroke="#000000" points="101.0137,-148.5 101.0137,-166.5 145.3486,-166.5 145.3486,-148.5 101.0137,-148.5"/>
<text text-anchor="middle" x="123.1812" y="-154.5" font-family="Helvetica,sans-Serif" font-size="10.00" fill="#000000">isNum</text>
</a>
</g>
</g>
<!-- Node0&#45;&gt;Node22 -->
<g id="edge46" class="edge">
<title>Node0&#45;&gt;Node22</title>
<path fill="none" stroke="#191970" d="M31.0079,-203.4129C41.8262,-195.6074 58.2702,-184.3966 73.6748,-176.5 79.133,-173.702 85.1034,-171.0735 90.9496,-168.7158"/>
<polygon fill="#191970" stroke="#191970" points="92.4809,-171.8769 100.5588,-165.0214 89.9688,-165.3431 92.4809,-171.8769"/>
</g>
<!-- Node23 -->
<g id="node24" class="node">
<title>Node23</title>
<g id="a_node24"><a xlink:href="Conti2D_8h_a7e3ffae645d4a98ee8a39830e6dd2f46.html#a7e3ffae645d4a98ee8a39830e6dd2f46" target="_top" xlink:title="OutputErrorinfo">
<polygon fill="#ffffff" stroke="#000000" points="80.999,-111.5 80.999,-129.5 165.3633,-129.5 165.3633,-111.5 80.999,-111.5"/>
<text text-anchor="middle" x="123.1812" y="-117.5" font-family="Helvetica,sans-Serif" font-size="10.00" fill="#000000">OutputErrorinfo</text>
</a>
</g>
</g>
<!-- Node0&#45;&gt;Node23 -->
<g id="edge47" class="edge">
<title>Node0&#45;&gt;Node23</title>
<path fill="none" stroke="#191970" d="M23.6168,-203.0944C31.8567,-187.7489 50.1413,-157.2603 73.6748,-139.5 76.4408,-137.4126 79.4636,-135.5282 82.608,-133.8324"/>
<polygon fill="#191970" stroke="#191970" points="84.137,-136.981 91.6791,-129.5401 81.143,-130.6536 84.137,-136.981"/>
</g>
<!-- Node24 -->
<g id="node25" class="node">
<title>Node24</title>
<g id="a_node25"><a xlink:href="Conti2D_8h_af6e0e75c33384cc17e08626d17dc381d.html#af6e0e75c33384cc17e08626d17dc381d" target="_top" xlink:title="OutputWarninginfo">
<polygon fill="#ffffff" stroke="#000000" points="73.6748,-74.5 73.6748,-92.5 172.6875,-92.5 172.6875,-74.5 73.6748,-74.5"/>
<text text-anchor="middle" x="123.1812" y="-80.5" font-family="Helvetica,sans-Serif" font-size="10.00" fill="#000000">OutputWarninginfo</text>
</a>
</g>
</g>
<!-- Node0&#45;&gt;Node24 -->
<g id="edge48" class="edge">
<title>Node0&#45;&gt;Node24</title>
<path fill="none" stroke="#191970" d="M20.8866,-203.322C26.0399,-182.3126 41.4903,-130.3218 73.6748,-101.5 75.2077,-100.1273 76.8536,-98.8568 78.5807,-97.6812"/>
<polygon fill="#191970" stroke="#191970" points="80.7242,-100.4929 87.7469,-92.5598 77.3099,-94.382 80.7242,-100.4929"/>
</g>
<!-- Node25 -->
<g id="node26" class="node">
<title>Node25</title>
<g id="a_node26"><a xlink:href="Conti2D_8h_af1fa497bd2e5d983e49f2401e3470c92.html#af1fa497bd2e5d983e49f2401e3470c92" target="_top" xlink:title="StartText">
<polygon fill="#ffffff" stroke="#000000" points="95.4521,-37.5 95.4521,-55.5 150.9102,-55.5 150.9102,-37.5 95.4521,-37.5"/>
<text text-anchor="middle" x="123.1812" y="-43.5" font-family="Helvetica,sans-Serif" font-size="10.00" fill="#000000">StartText</text>
</a>
</g>
</g>
<!-- Node0&#45;&gt;Node25 -->
<g id="edge49" class="edge">
<title>Node0&#45;&gt;Node25</title>
<path fill="none" stroke="#191970" d="M19.5965,-203.4484C22.2099,-177.9687 33.0559,-104.8715 73.6748,-64.5 77.1795,-61.0166 81.4101,-58.2018 85.9041,-55.9286"/>
<polygon fill="#191970" stroke="#191970" points="87.4724,-59.0666 95.3504,-51.9822 84.774,-52.6076 87.4724,-59.0666"/>
</g>
<!-- Node26 -->
<g id="node27" class="node">
<title>Node26</title>
<g id="a_node27"><a xlink:href="Conti2D_8h_a45d91f9b0b8852118211734681191355.html#a45d91f9b0b8852118211734681191355" target="_top" xlink:title="StartText_artASCII">
<polygon fill="#ffffff" stroke="#000000" points="73.7773,-.5 73.7773,-18.5 172.585,-18.5 172.585,-.5 73.7773,-.5"/>
<text text-anchor="middle" x="123.1812" y="-6.5" font-family="Helvetica,sans-Serif" font-size="10.00" fill="#000000">StartText_artASCII</text>
</a>
</g>
</g>
<!-- Node0&#45;&gt;Node26 -->
<g id="edge50" class="edge">
<title>Node0&#45;&gt;Node26</title>
<path fill="none" stroke="#191970" d="M20.4493,-203.239C26.4794,-169.5481 48.6489,-54.0894 73.6748,-27.5 74.7325,-26.3762 75.8659,-25.3223 77.0604,-24.3341"/>
<polygon fill="#191970" stroke="#191970" points="79.2099,-27.1109 85.676,-18.7181 75.3873,-21.2468 79.2099,-27.1109"/>
</g>
<!-- Node27 -->
<g id="node28" class="node">
<title>Node27</title>
<g id="a_node28"><a xlink:href="Conti2D_8cpp_a7b6bfe9f5b32bc1a62005196d84edfde.html#a7b6bfe9f5b32bc1a62005196d84edfde" target="_top" xlink:title="UWC_p2p">
<polygon fill="#ffffff" stroke="#000000" points="92.1172,-411.5 92.1172,-429.5 154.2451,-429.5 154.2451,-411.5 92.1172,-411.5"/>
<text text-anchor="middle" x="123.1812" y="-417.5" font-family="Helvetica,sans-Serif" font-size="10.00" fill="#000000">UWC_p2p</text>
</a>
</g>
</g>
<!-- Node0&#45;&gt;Node27 -->
<g id="edge51" class="edge">
<title>Node0&#45;&gt;Node27</title>
<path fill="none" stroke="#191970" d="M23.4556,-221.7059C39.4485,-253.5863 92.66,-359.6587 114.1063,-402.4102"/>
<polygon fill="#191970" stroke="#191970" points="111.0039,-404.0315 118.6163,-411.4004 117.2608,-400.8927 111.0039,-404.0315"/>
</g>
<!-- Node28 -->
<g id="node29" class="node">
<title>Node28</title>
<g id="a_node29"><a xlink:href="Conti2D_8cpp_af8adb87017663774bfd342b39facc828.html#af8adb87017663774bfd342b39facc828" target="_top" xlink:title="UWC_p2s">
<polygon fill="#ffffff" stroke="#000000" points="92.3979,-449.5 92.3979,-467.5 153.9644,-467.5 153.9644,-449.5 92.3979,-449.5"/>
<text text-anchor="middle" x="123.1812" y="-455.5" font-family="Helvetica,sans-Serif" font-size="10.00" fill="#000000">UWC_p2s</text>
</a>
</g>
</g>
<!-- Node0&#45;&gt;Node28 -->
<g id="edge57" class="edge">
<title>Node0&#45;&gt;Node28</title>
<path fill="none" stroke="#191970" d="M19.9108,-221.6594C24.5479,-259.8112 43.9772,-405.6868 73.6748,-439.5 76.3659,-442.564 79.6079,-445.1366 83.1297,-447.296"/>
<polygon fill="#191970" stroke="#191970" points="81.793,-450.54 92.3057,-451.8573 84.909,-444.2718 81.793,-450.54"/>
</g>
<!-- Node2 -->
<g id="node3" class="node">
<title>Node2</title>
<g id="a_node3"><a xlink:href="Conti2D_8cpp_a6516cfeb71abcf844b32f101e5f77a71.html#a6516cfeb71abcf844b32f101e5f77a71" target="_top" xlink:title="DWC_s2p_CGLS">
<polygon fill="#ffffff" stroke="#000000" points="227.0371,-753.5 227.0371,-771.5 321.3965,-771.5 321.3965,-753.5 227.0371,-753.5"/>
<text text-anchor="middle" x="274.2168" y="-759.5" font-family="Helvetica,sans-Serif" font-size="10.00" fill="#000000">DWC_s2p_CGLS</text>
</a>
</g>
</g>
<!-- Node1&#45;&gt;Node2 -->
<g id="edge2" class="edge">
<title>Node1&#45;&gt;Node2</title>
<path fill="none" stroke="#191970" d="M126.4897,-543.5603C140.2917,-581.1787 193.2755,-723.7786 208.6875,-738.5 213.2296,-742.8385 218.6195,-746.4041 224.3275,-749.3319"/>
<polygon fill="#191970" stroke="#191970" points="222.9255,-752.539 233.4831,-753.4272 225.7837,-746.149 222.9255,-752.539"/>
</g>
<!-- Node4 -->
<g id="node5" class="node">
<title>Node4</title>
<g id="a_node5"><a xlink:href="Conti2D_8cpp_ab76adf263893ac28772283c5a00b964c.html#ab76adf263893ac28772283c5a00b964c" target="_top" xlink:title="Save a Surfer Grid data to file. ">
<polygon fill="#ffffff" stroke="#000000" points="413.2607,-487.5 413.2607,-505.5 468.7236,-505.5 468.7236,-487.5 413.2607,-487.5"/>
<text text-anchor="middle" x="440.9922" y="-493.5" font-family="Helvetica,sans-Serif" font-size="10.00" fill="#000000">SaveGrd</text>
</a>
</g>
</g>
<!-- Node1&#45;&gt;Node4 -->
<g id="edge26" class="edge">
<title>Node1&#45;&gt;Node4</title>
<path fill="none" stroke="#191970" d="M154.2885,-527.0007C170.4331,-523.3508 190.5287,-519.1828 208.6875,-516.5 276.6744,-506.4554 356.6564,-500.9374 402.822,-498.3598"/>
<polygon fill="#191970" stroke="#191970" points="403.1769,-501.8458 412.973,-497.8102 402.7984,-494.856 403.1769,-501.8458"/>
</g>
<!-- Node8 -->
<g id="node9" class="node">
<title>Node8</title>
<g id="a_node9"><a xlink:href="Conti2D_8cpp_a0a60bfe4f254fa10e96fabb22a125343.html#a0a60bfe4f254fa10e96fabb22a125343" target="_top" xlink:title="DWC_s2p_ItegrationIter">
<polygon fill="#ffffff" stroke="#000000" points="212.5815,-827.5 212.5815,-845.5 335.8521,-845.5 335.8521,-827.5 212.5815,-827.5"/>
<text text-anchor="middle" x="274.2168" y="-833.5" font-family="Helvetica,sans-Serif" font-size="10.00" fill="#000000">DWC_s2p_ItegrationIter</text>
</a>
</g>
</g>
<!-- Node1&#45;&gt;Node8 -->
<g id="edge8" class="edge">
<title>Node1&#45;&gt;Node8</title>
<path fill="none" stroke="#191970" d="M127.0495,-543.7925C135.9465,-565.3968 158.2076,-620.7997 172.6875,-668.5 192.6022,-734.1037 161.0033,-769.2389 208.6875,-818.5 209.7901,-819.6391 210.9576,-820.7082 212.1799,-821.7115"/>
<polygon fill="#191970" stroke="#191970" points="210.6523,-824.8937 220.9408,-827.4232 214.4753,-819.0299 210.6523,-824.8937"/>
</g>
<!-- Node11 -->
<g id="node12" class="node">
<title>Node11</title>
<g id="a_node12"><a xlink:href="Conti2D_8cpp_a7730328c8e132ff0a35142a6d31bac18.html#a7730328c8e132ff0a35142a6d31bac18" target="_top" xlink:title="DWC_s2p_LandweberIter">
<polygon fill="#ffffff" stroke="#000000" points="208.6875,-790.5 208.6875,-808.5 339.7461,-808.5 339.7461,-790.5 208.6875,-790.5"/>
<text text-anchor="middle" x="274.2168" y="-796.5" font-family="Helvetica,sans-Serif" font-size="10.00" fill="#000000">DWC_s2p_LandweberIter</text>
</a>
</g>
</g>
<!-- Node1&#45;&gt;Node11 -->
<g id="edge15" class="edge">
<title>Node1&#45;&gt;Node11</title>
<path fill="none" stroke="#191970" d="M126.6859,-543.5476C134.9921,-565.0824 156.3989,-621.1243 172.6875,-668.5 189.8253,-718.3454 170.6722,-744.9882 208.6875,-781.5 210.1234,-782.8791 211.6547,-784.1546 213.2627,-785.3342"/>
<polygon fill="#191970" stroke="#191970" points="211.4742,-788.3427 221.8537,-790.468 215.065,-782.3339 211.4742,-788.3427"/>
</g>
<!-- Node12 -->
<g id="node13" class="node">
<title>Node12</title>
<g id="a_node13"><a xlink:href="Conti2D_8cpp_a6f44a06f2b4926f66481fccf277bea50.html#a6f44a06f2b4926f66481fccf277bea50" target="_top" xlink:title="Getkernel_p2p_new">
<polygon fill="#ffffff" stroke="#000000" points="221.4634,-525.5 221.4634,-543.5 326.9702,-543.5 326.9702,-525.5 221.4634,-525.5"/>
<text text-anchor="middle" x="274.2168" y="-531.5" font-family="Helvetica,sans-Serif" font-size="10.00" fill="#000000">Getkernel_p2p_new</text>
</a>
</g>
</g>
<!-- Node1&#45;&gt;Node12 -->
<g id="edge22" class="edge">
<title>Node1&#45;&gt;Node12</title>
<path fill="none" stroke="#191970" d="M154.4758,-534.5C170.884,-534.5 191.5927,-534.5 211.1547,-534.5"/>
<polygon fill="#191970" stroke="#191970" points="211.251,-538.0001 221.251,-534.5 211.2509,-531.0001 211.251,-538.0001"/>
</g>
<!-- Node14 -->
<g id="node15" class="node">
<title>Node14</title>
<g id="a_node15"><a xlink:href="Conti2D_8cpp_a2c90cdea3ca11177ba34c14a3b0a00cb.html#a2c90cdea3ca11177ba34c14a3b0a00cb" target="_top" xlink:title="Read a Surfer Grid data from file. ">
<polygon fill="#ffffff" stroke="#000000" points="412.7041,-316.5 412.7041,-334.5 469.2803,-334.5 469.2803,-316.5 412.7041,-316.5"/>
<text text-anchor="middle" x="440.9922" y="-322.5" font-family="Helvetica,sans-Serif" font-size="10.00" fill="#000000">ReadGrd</text>
</a>
</g>
</g>
<!-- Node1&#45;&gt;Node14 -->
<g id="edge25" class="edge">
<title>Node1&#45;&gt;Node14</title>
<path fill="none" stroke="#191970" d="M137.2472,-525.2499C187.2945,-492.3376 357.0058,-380.7314 418.504,-340.2888"/>
<polygon fill="#191970" stroke="#191970" points="420.6565,-343.0623 427.0886,-334.6433 416.8103,-337.2136 420.6565,-343.0623"/>
</g>
<!-- Node3 -->
<g id="node4" class="node">
<title>Node3</title>
<g id="a_node4"><a xlink:href="Conti2D_8cpp_a98827c14ed7072c96834f20205c7a916.html#a98827c14ed7072c96834f20205c7a916" target="_top" xlink:title="Norm2">
<polygon fill="#ffffff" stroke="#000000" points="417.9897,-790.5 417.9897,-808.5 463.9946,-808.5 463.9946,-790.5 417.9897,-790.5"/>
<text text-anchor="middle" x="440.9922" y="-796.5" font-family="Helvetica,sans-Serif" font-size="10.00" fill="#000000">Norm2</text>
</a>
</g>
</g>
<!-- Node2&#45;&gt;Node3 -->
<g id="edge3" class="edge">
<title>Node2&#45;&gt;Node3</title>
<path fill="none" stroke="#191970" d="M315.0146,-771.5512C343.4488,-777.8595 380.914,-786.1713 407.578,-792.0869"/>
<polygon fill="#191970" stroke="#191970" points="407.0584,-795.5566 417.5791,-794.3057 408.5745,-788.7228 407.0584,-795.5566"/>
</g>
<!-- Node2&#45;&gt;Node4 -->
<g id="edge4" class="edge">
<title>Node2&#45;&gt;Node4</title>
<path fill="none" stroke="#191970" d="M288.9727,-753.4513C303.9527,-743.5095 326.739,-726.1757 339.7461,-705.5 371.8984,-654.3917 347.7355,-627.9905 375.7461,-574.5 388.1847,-550.7467 408.8286,-527.7244 423.5641,-512.9259"/>
<polygon fill="#191970" stroke="#191970" points="426.3532,-515.0937 431.053,-505.5983 421.4576,-510.0903 426.3532,-515.0937"/>
</g>
<!-- Node5 -->
<g id="node6" class="node">
<title>Node5</title>
<g id="a_node6"><a xlink:href="classMultiProgressBar_a58eef55ad6d5c7d769b3a402a2ef7b85.html#a58eef55ad6d5c7d769b3a402a2ef7b85" target="_top" xlink:title="MultiProgressBar::Update">
<polygon fill="#ffffff" stroke="#000000" points="375.7461,-716.5 375.7461,-734.5 506.2383,-734.5 506.2383,-716.5 375.7461,-716.5"/>
<text text-anchor="middle" x="440.9922" y="-722.5" font-family="Helvetica,sans-Serif" font-size="10.00" fill="#000000">MultiProgressBar::Update</text>
</a>
</g>
</g>
<!-- Node2&#45;&gt;Node5 -->
<g id="edge5" class="edge">
<title>Node2&#45;&gt;Node5</title>
<path fill="none" stroke="#191970" d="M315.0146,-753.4488C337.7125,-748.4131 366.1653,-742.1008 390.2847,-736.7497"/>
<polygon fill="#191970" stroke="#191970" points="391.3223,-740.1047 400.3268,-734.5218 389.8061,-733.2709 391.3223,-740.1047"/>
</g>
<!-- Node6 -->
<g id="node7" class="node">
<title>Node6</title>
<g id="a_node7"><a xlink:href="Conti2D_8cpp_a632c1e4efbb7e9b1aaf04db729e69394.html#a632c1e4efbb7e9b1aaf04db729e69394" target="_top" xlink:title="UWC_Gij">
<polygon fill="#ffffff" stroke="#000000" points="412.1597,-753.5 412.1597,-771.5 469.8247,-771.5 469.8247,-753.5 412.1597,-753.5"/>
<text text-anchor="middle" x="440.9922" y="-759.5" font-family="Helvetica,sans-Serif" font-size="10.00" fill="#000000">UWC_Gij</text>
</a>
</g>
</g>
<!-- Node2&#45;&gt;Node6 -->
<g id="edge6" class="edge">
<title>Node2&#45;&gt;Node6</title>
<path fill="none" stroke="#191970" d="M321.5618,-762.5C346.8958,-762.5 377.7257,-762.5 401.7157,-762.5"/>
<polygon fill="#191970" stroke="#191970" points="401.8766,-766.0001 411.8766,-762.5 401.8765,-759.0001 401.8766,-766.0001"/>
</g>
<!-- Node7 -->
<g id="node8" class="node">
<title>Node7</title>
<g id="a_node8"><a xlink:href="Conti2D_8cpp_a9d30373a0ff29e4f743eaf5e4cbc3cbf.html#a9d30373a0ff29e4f743eaf5e4cbc3cbf" target="_top" xlink:title="UWC_Gji">
<polygon fill="#ffffff" stroke="#000000" points="412.1597,-679.5 412.1597,-697.5 469.8247,-697.5 469.8247,-679.5 412.1597,-679.5"/>
<text text-anchor="middle" x="440.9922" y="-685.5" font-family="Helvetica,sans-Serif" font-size="10.00" fill="#000000">UWC_Gji</text>
</a>
</g>
</g>
<!-- Node2&#45;&gt;Node7 -->
<g id="edge7" class="edge">
<title>Node2&#45;&gt;Node7</title>
<path fill="none" stroke="#191970" d="M288.5322,-753.4708C307.7675,-741.64 343.2974,-720.835 375.7461,-707.5 384.1504,-704.0462 393.4031,-700.9509 402.2331,-698.311"/>
<polygon fill="#191970" stroke="#191970" points="403.3039,-701.6451 411.9551,-695.5291 401.3781,-694.9152 403.3039,-701.6451"/>
</g>
<!-- Node8&#45;&gt;Node3 -->
<g id="edge9" class="edge">
<title>Node8&#45;&gt;Node3</title>
<path fill="none" stroke="#191970" d="M315.0146,-827.4488C343.4488,-821.1405 380.914,-812.8287 407.578,-806.9131"/>
<polygon fill="#191970" stroke="#191970" points="408.5745,-810.2772 417.5791,-804.6943 407.0584,-803.4434 408.5745,-810.2772"/>
</g>
<!-- Node8&#45;&gt;Node4 -->
<g id="edge12" class="edge">
<title>Node8&#45;&gt;Node4</title>
<path fill="none" stroke="#191970" d="M328.4575,-827.4012C332.6797,-825.0454 336.5398,-822.1219 339.7461,-818.5 412.4054,-736.4218 330.8939,-674.5224 375.7461,-574.5 386.7572,-549.9448 407.7877,-526.9776 423.0021,-512.413"/>
<polygon fill="#191970" stroke="#191970" points="425.3955,-514.9668 430.3442,-505.5987 420.6336,-509.836 425.3955,-514.9668"/>
</g>
<!-- Node8&#45;&gt;Node5 -->
<g id="edge13" class="edge">
<title>Node8&#45;&gt;Node5</title>
<path fill="none" stroke="#191970" d="M324.7395,-827.4704C330.1531,-825.1324 335.2987,-822.1934 339.7461,-818.5 367.8828,-795.1333 347.7889,-768.0812 375.7461,-744.5 378.1486,-742.4735 380.7577,-740.6631 383.5043,-739.0456"/>
<polygon fill="#191970" stroke="#191970" points="385.254,-742.0848 392.6601,-734.5085 382.1458,-735.8126 385.254,-742.0848"/>
</g>
<!-- Node8&#45;&gt;Node6 -->
<g id="edge14" class="edge">
<title>Node8&#45;&gt;Node6</title>
<path fill="none" stroke="#191970" d="M319.5717,-827.4505C326.5857,-825.0985 333.5497,-822.1605 339.7461,-818.5 359.5005,-806.8302 356.0815,-793.3205 375.7461,-781.5 383.8402,-776.6346 393.2517,-772.9542 402.3654,-770.1934"/>
<polygon fill="#191970" stroke="#191970" points="403.3363,-773.5565 412.0613,-767.5461 401.4925,-766.8037 403.3363,-773.5565"/>
</g>
<!-- Node9 -->
<g id="node10" class="node">
<title>Node9</title>
<g id="a_node10"><a xlink:href="Conti2D_8cpp_a43fc3af75243a047d61aadea31c0fa9c.html#a43fc3af75243a047d61aadea31c0fa9c" target="_top" xlink:title="Norm2_Gradient">
<polygon fill="#ffffff" stroke="#000000" points="396.0317,-864.5 396.0317,-882.5 485.9526,-882.5 485.9526,-864.5 396.0317,-864.5"/>
<text text-anchor="middle" x="440.9922" y="-870.5" font-family="Helvetica,sans-Serif" font-size="10.00" fill="#000000">Norm2_Gradient</text>
</a>
</g>
</g>
<!-- Node8&#45;&gt;Node9 -->
<g id="edge10" class="edge">
<title>Node8&#45;&gt;Node9</title>
<path fill="none" stroke="#191970" d="M315.0146,-845.5512C337.7125,-850.5869 366.1653,-856.8992 390.2847,-862.2503"/>
<polygon fill="#191970" stroke="#191970" points="389.8061,-865.7291 400.3268,-864.4782 391.3223,-858.8953 389.8061,-865.7291"/>
</g>
<!-- Node10 -->
<g id="node11" class="node">
<title>Node10</title>
<g id="a_node11"><a xlink:href="Conti2D_8cpp_a88f10a86b8808047787d2df5e8cbcb72.html#a88f10a86b8808047787d2df5e8cbcb72" target="_top" xlink:title="Path_GetFileName">
<polygon fill="#ffffff" stroke="#000000" points="390.4727,-827.5 390.4727,-845.5 491.5117,-845.5 491.5117,-827.5 390.4727,-827.5"/>
<text text-anchor="middle" x="440.9922" y="-833.5" font-family="Helvetica,sans-Serif" font-size="10.00" fill="#000000">Path_GetFileName</text>
</a>
</g>
</g>
<!-- Node8&#45;&gt;Node10 -->
<g id="edge11" class="edge">
<title>Node8&#45;&gt;Node10</title>
<path fill="none" stroke="#191970" d="M336.3178,-836.5C350.6261,-836.5 365.8306,-836.5 380.0874,-836.5"/>
<polygon fill="#191970" stroke="#191970" points="380.2748,-840.0001 390.2748,-836.5 380.2748,-833.0001 380.2748,-840.0001"/>
</g>
<!-- Node11&#45;&gt;Node3 -->
<g id="edge16" class="edge">
<title>Node11&#45;&gt;Node3</title>
<path fill="none" stroke="#191970" d="M340.1308,-799.5C363.331,-799.5 388.4206,-799.5 407.7726,-799.5"/>
<polygon fill="#191970" stroke="#191970" points="407.885,-803.0001 417.8849,-799.5 407.8849,-796.0001 407.885,-803.0001"/>
</g>
<!-- Node11&#45;&gt;Node4 -->
<g id="edge19" class="edge">
<title>Node11&#45;&gt;Node4</title>
<path fill="none" stroke="#191970" d="M328.0485,-790.4834C332.4118,-788.1165 336.4142,-785.1677 339.7461,-781.5 402.5361,-712.3812 336.4457,-659.2082 375.7461,-574.5 387.0086,-550.2248 407.8083,-527.3507 422.9027,-512.7291"/>
<polygon fill="#191970" stroke="#191970" points="425.308,-515.2718 430.1954,-505.8715 420.5127,-510.1722 425.308,-515.2718"/>
</g>
<!-- Node11&#45;&gt;Node5 -->
<g id="edge20" class="edge">
<title>Node11&#45;&gt;Node5</title>
<path fill="none" stroke="#191970" d="M319.5717,-790.4505C326.5857,-788.0985 333.5497,-785.1605 339.7461,-781.5 359.5005,-769.8302 356.0815,-756.3205 375.7461,-744.5 379.8287,-742.0459 384.2465,-739.8933 388.7921,-738.0082"/>
<polygon fill="#191970" stroke="#191970" points="390.0785,-741.2641 398.2359,-734.5033 387.6429,-734.7015 390.0785,-741.2641"/>
</g>
<!-- Node11&#45;&gt;Node6 -->
<g id="edge21" class="edge">
<title>Node11&#45;&gt;Node6</title>
<path fill="none" stroke="#191970" d="M315.0146,-790.4488C341.5759,-784.556 376.0177,-776.9149 402.1742,-771.112"/>
<polygon fill="#191970" stroke="#191970" points="403.1102,-774.4895 412.1147,-768.9066 401.594,-767.6557 403.1102,-774.4895"/>
</g>
<!-- Node11&#45;&gt;Node9 -->
<g id="edge17" class="edge">
<title>Node11&#45;&gt;Node9</title>
<path fill="none" stroke="#191970" d="M317.5036,-808.5976C325.2105,-811.1672 332.9418,-814.4152 339.7461,-818.5 359.4175,-830.3091 355.9982,-843.8193 375.7461,-855.5 379.12,-857.4956 382.7225,-859.2768 386.4368,-860.8656"/>
<polygon fill="#191970" stroke="#191970" points="385.2418,-864.1556 395.8331,-864.4309 387.7252,-857.6109 385.2418,-864.1556"/>
</g>
<!-- Node11&#45;&gt;Node10 -->
<g id="edge18" class="edge">
<title>Node11&#45;&gt;Node10</title>
<path fill="none" stroke="#191970" d="M315.0146,-808.5512C337.7125,-813.5869 366.1653,-819.8992 390.2847,-825.2503"/>
<polygon fill="#191970" stroke="#191970" points="389.8061,-828.7291 400.3268,-827.4782 391.3223,-821.8953 389.8061,-828.7291"/>
</g>
<!-- Node12&#45;&gt;Node5 -->
<g id="edge24" class="edge">
<title>Node12&#45;&gt;Node5</title>
<path fill="none" stroke="#191970" d="M280.7486,-543.6371C293.0001,-560.9489 319.9746,-599.8977 339.7461,-634.5 357.6932,-665.9093 347.8672,-684.4477 375.7461,-707.5 377.5488,-708.9906 379.4656,-710.3582 381.4679,-711.6129"/>
<polygon fill="#191970" stroke="#191970" points="380.2197,-714.909 390.7059,-716.4228 383.4525,-708.7001 380.2197,-714.909"/>
</g>
<!-- Node13 -->
<g id="node14" class="node">
<title>Node13</title>
<g id="a_node14"><a xlink:href="Conti2D_8cpp_a4bb34ae88cf16e429505f9eb746384cd.html#a4bb34ae88cf16e429505f9eb746384cd" target="_top" xlink:title="GetPmnij">
<polygon fill="#ffffff" stroke="#000000" points="412.4307,-583.5 412.4307,-601.5 469.5537,-601.5 469.5537,-583.5 412.4307,-583.5"/>
<text text-anchor="middle" x="440.9922" y="-589.5" font-family="Helvetica,sans-Serif" font-size="10.00" fill="#000000">GetPmnij</text>
</a>
</g>
</g>
<!-- Node12&#45;&gt;Node13 -->
<g id="edge23" class="edge">
<title>Node12&#45;&gt;Node13</title>
<path fill="none" stroke="#191970" d="M300.2755,-543.5625C328.4645,-553.3659 373.5945,-569.0609 405.1223,-580.0254"/>
<polygon fill="#191970" stroke="#191970" points="404.247,-583.4266 414.8419,-583.4056 406.5464,-576.815 404.247,-583.4266"/>
</g>
<!-- Node15&#45;&gt;Node4 -->
<g id="edge30" class="edge">
<title>Node15&#45;&gt;Node4</title>
<path fill="none" stroke="#191970" d="M150.248,-222.414C194.57,-209.3723 283.3293,-191.1746 339.7461,-232.5 381.9265,-263.3972 357.4136,-295.5332 375.7461,-344.5 394.1296,-393.6031 419.4783,-449.9805 432.5064,-478.28"/>
<polygon fill="#191970" stroke="#191970" points="429.3369,-479.7648 436.7131,-487.3702 435.6896,-476.8249 429.3369,-479.7648"/>
</g>
<!-- Node15&#45;&gt;Node14 -->
<g id="edge29" class="edge">
<title>Node15&#45;&gt;Node14</title>
<path fill="none" stroke="#191970" d="M157.5178,-222.3967C162.9239,-220.0399 168.2006,-217.1143 172.6875,-213.5 196.0215,-194.7037 182.4465,-170.9632 208.6875,-156.5 259.7004,-128.3833 289.0681,-127.7842 339.7461,-156.5 397.457,-189.2009 425.8341,-269.3462 436.2013,-306.2838"/>
<polygon fill="#191970" stroke="#191970" points="432.9015,-307.4944 438.853,-316.2597 439.6666,-305.6961 432.9015,-307.4944"/>
</g>
<!-- Node16 -->
<g id="node17" class="node">
<title>Node16</title>
<g id="a_node17"><a xlink:href="Conti2D_8cpp_a8d8d41669d98b597c959db5762cbb489.html#a8d8d41669d98b597c959db5762cbb489" target="_top" xlink:title="Get the kernel matrix using the new developed formula. ">
<polygon fill="#ffffff" stroke="#000000" points="218.1406,-165.5 218.1406,-183.5 330.293,-183.5 330.293,-165.5 218.1406,-165.5"/>
<text text-anchor="middle" x="274.2168" y="-171.5" font-family="Helvetica,sans-Serif" font-size="10.00" fill="#000000">GetKernalMatrix_new</text>
</a>
</g>
</g>
<!-- Node15&#45;&gt;Node16 -->
<g id="edge28" class="edge">
<title>Node15&#45;&gt;Node16</title>
<path fill="none" stroke="#191970" d="M148.705,-222.4739C156.4369,-219.6714 164.9337,-216.5231 172.6875,-213.5 188.8368,-207.2036 192.5456,-204.8154 208.6875,-198.5 218.5036,-194.6595 229.216,-190.6575 239.0819,-187.0474"/>
<polygon fill="#191970" stroke="#191970" points="240.3977,-190.2932 248.601,-183.5883 238.0069,-183.7141 240.3977,-190.2932"/>
</g>
<!-- Node15&#45;&gt;Node17 -->
<g id="edge31" class="edge">
<title>Node15&#45;&gt;Node17</title>
<path fill="none" stroke="#191970" d="M158.5923,-235.9547C179.5364,-238.5894 206.2786,-241.9535 228.7684,-244.7827"/>
<polygon fill="#191970" stroke="#191970" points="228.4075,-248.2648 238.7661,-246.0404 229.2812,-241.3195 228.4075,-248.2648"/>
</g>
<!-- Node17&#45;&gt;Node4 -->
<g id="edge33" class="edge">
<title>Node17&#45;&gt;Node4</title>
<path fill="none" stroke="#191970" d="M280.3502,-259.547C304.8669,-295.7101 396.0854,-430.2607 429.0284,-478.853"/>
<polygon fill="#191970" stroke="#191970" points="426.2945,-481.0576 434.803,-487.3707 432.0885,-477.1295 426.2945,-481.0576"/>
</g>
<!-- Node17&#45;&gt;Node14 -->
<g id="edge32" class="edge">
<title>Node17&#45;&gt;Node14</title>
<path fill="none" stroke="#191970" d="M294.3338,-259.5468C323.5088,-272.667 377.751,-297.06 411.4641,-312.221"/>
<polygon fill="#191970" stroke="#191970" points="410.2481,-315.5118 420.8038,-316.4212 413.1191,-309.1276 410.2481,-315.5118"/>
</g>
<!-- Node17&#45;&gt;Node17 -->
<g id="edge34" class="edge">
<title>Node17&#45;&gt;Node17</title>
<path fill="none" stroke="#191970" d="M251.8665,-259.5134C239.5206,-268.322 246.9707,-278 274.2168,-278 292.9485,-278 302.3235,-273.4256 302.3418,-267.7043"/>
<polygon fill="#191970" stroke="#191970" points="305.1898,-265.6697 296.5671,-259.5134 299.4687,-269.7032 305.1898,-265.6697"/>
</g>
<!-- Node18&#45;&gt;Node2 -->
<g id="edge36" class="edge">
<title>Node18&#45;&gt;Node2</title>
<path fill="none" stroke="#191970" d="M136.3478,-695.6285C152.7599,-706.7394 181.9186,-725.611 208.6875,-738.5 217.3454,-742.6687 226.9284,-746.558 236.0323,-749.9409"/>
<polygon fill="#191970" stroke="#191970" points="235.0621,-753.3113 245.6565,-753.4021 237.4311,-746.7244 235.0621,-753.3113"/>
</g>
<!-- Node18&#45;&gt;Node4 -->
<g id="edge43" class="edge">
<title>Node18&#45;&gt;Node4</title>
<path fill="none" stroke="#191970" d="M148.7843,-677.4981C190.6361,-662.1803 275.4725,-628.5755 339.7461,-586.5 372.9756,-564.7469 406.4226,-532.5289 425.34,-513.1188"/>
<polygon fill="#191970" stroke="#191970" points="428.1098,-515.2879 432.5149,-505.6522 423.0624,-510.4377 428.1098,-515.2879"/>
</g>
<!-- Node18&#45;&gt;Node8 -->
<g id="edge37" class="edge">
<title>Node18&#45;&gt;Node8</title>
<path fill="none" stroke="#191970" d="M126.4989,-695.8364C135.5928,-720.0466 163.3053,-785.2698 208.6875,-818.5 211.0524,-820.2316 213.5754,-821.7967 216.2036,-823.2112"/>
<polygon fill="#191970" stroke="#191970" points="214.9193,-826.4727 225.4676,-827.4637 217.8396,-820.111 214.9193,-826.4727"/>
</g>
<!-- Node18&#45;&gt;Node11 -->
<g id="edge38" class="edge">
<title>Node18&#45;&gt;Node11</title>
<path fill="none" stroke="#191970" d="M128.7855,-695.6534C140.9064,-714.6596 171.4891,-758.5392 208.6875,-781.5 211.8343,-783.4423 215.1928,-785.1789 218.6641,-786.7309"/>
<polygon fill="#191970" stroke="#191970" points="217.4609,-790.0186 228.048,-790.4229 220.0238,-783.5047 217.4609,-790.0186"/>
</g>
<!-- Node18&#45;&gt;Node14 -->
<g id="edge42" class="edge">
<title>Node18&#45;&gt;Node14</title>
<path fill="none" stroke="#191970" d="M128.2648,-677.3975C139.8154,-657.5932 170.0545,-610.4537 208.6875,-586.5 259.7373,-554.8474 293.7963,-592.1857 339.7461,-553.5 344.1141,-549.8225 410.0233,-397.4084 433.0913,-343.8648"/>
<polygon fill="#191970" stroke="#191970" points="436.3629,-345.1167 437.1028,-334.5477 429.9335,-342.3485 436.3629,-345.1167"/>
</g>
<!-- Node19 -->
<g id="node20" class="node">
<title>Node19</title>
<g id="a_node20"><a xlink:href="Conti2D_8cpp_a78d8a6b80166f8976a0f18caddbe1dcb.html#a78d8a6b80166f8976a0f18caddbe1dcb" target="_top" xlink:title="Getkernel_p2s_new">
<polygon fill="#ffffff" stroke="#000000" points="221.7441,-677.5 221.7441,-695.5 326.6895,-695.5 326.6895,-677.5 221.7441,-677.5"/>
<text text-anchor="middle" x="274.2168" y="-683.5" font-family="Helvetica,sans-Serif" font-size="10.00" fill="#000000">Getkernel_p2s_new</text>
</a>
</g>
</g>
<!-- Node18&#45;&gt;Node19 -->
<g id="edge39" class="edge">
<title>Node18&#45;&gt;Node19</title>
<path fill="none" stroke="#191970" d="M154.1099,-686.5C170.6458,-686.5 191.6256,-686.5 211.4074,-686.5"/>
<polygon fill="#191970" stroke="#191970" points="211.613,-690.0001 221.613,-686.5 211.613,-683.0001 211.613,-690.0001"/>
</g>
<!-- Node19&#45;&gt;Node5 -->
<g id="edge41" class="edge">
<title>Node19&#45;&gt;Node5</title>
<path fill="none" stroke="#191970" d="M312.8976,-695.5454C336.5983,-701.0877 367.1398,-708.2298 392.4556,-714.1498"/>
<polygon fill="#191970" stroke="#191970" points="391.6983,-717.5671 402.2326,-716.4362 393.2923,-710.751 391.6983,-717.5671"/>
</g>
<!-- Node19&#45;&gt;Node13 -->
<g id="edge40" class="edge">
<title>Node19&#45;&gt;Node13</title>
<path fill="none" stroke="#191970" d="M290.2079,-677.4869C319.2715,-661.1057 380.9601,-626.336 415.7536,-606.7253"/>
<polygon fill="#191970" stroke="#191970" points="417.8114,-609.5831 424.8044,-601.6239 414.3743,-603.4851 417.8114,-609.5831"/>
</g>
<!-- Node21 -->
<g id="node22" class="node">
<title>Node21</title>
<g id="a_node22"><a xlink:href="Conti2D_8h_a5721c5478e8afad6433cd59eae9b2d67.html#a5721c5478e8afad6433cd59eae9b2d67" target="_top" xlink:title="Text_Axis">
<polygon fill="#ffffff" stroke="#000000" points="244.8203,-89.5 244.8203,-107.5 303.6133,-107.5 303.6133,-89.5 244.8203,-89.5"/>
<text text-anchor="middle" x="274.2168" y="-95.5" font-family="Helvetica,sans-Serif" font-size="10.00" fill="#000000">Text_Axis</text>
</a>
</g>
</g>
<!-- Node20&#45;&gt;Node21 -->
<g id="edge45" class="edge">
<title>Node20&#45;&gt;Node21</title>
<path fill="none" stroke="#191970" d="M152.788,-187.1801C159.7663,-184.5575 166.8617,-181.0754 172.6875,-176.5 195.3721,-158.684 186.0238,-140.3426 208.6875,-122.5 216.4593,-116.3814 225.9386,-111.7246 235.2459,-108.2193"/>
<polygon fill="#191970" stroke="#191970" points="236.4626,-111.5025 244.8041,-104.9704 234.2097,-104.8749 236.4626,-111.5025"/>
</g>
<!-- Node27&#45;&gt;Node4 -->
<g id="edge54" class="edge">
<title>Node27&#45;&gt;Node4</title>
<path fill="none" stroke="#191970" d="M154.5905,-426.0851C196.9097,-433.8241 274.4638,-448.7613 339.7461,-465.5 361.2785,-471.021 385.0588,-478.2429 404.1592,-484.327"/>
<polygon fill="#191970" stroke="#191970" points="403.0928,-487.6605 413.6841,-487.3899 405.2357,-480.9966 403.0928,-487.6605"/>
</g>
<!-- Node27&#45;&gt;Node6 -->
<g id="edge55" class="edge">
<title>Node27&#45;&gt;Node6</title>
<path fill="none" stroke="#191970" d="M154.3132,-428.2604C161.088,-431.1697 167.7085,-435.13 172.6875,-440.5 208.525,-479.1516 179.8239,-509.396 208.6875,-553.5 251.1228,-618.3417 293.0662,-606.6438 339.7461,-668.5 362.2602,-698.3338 347.1308,-720.4562 375.7461,-744.5 383.1456,-750.7174 392.5255,-754.7977 401.8494,-757.4724"/>
<polygon fill="#191970" stroke="#191970" points="401.3093,-760.9417 411.8485,-759.8576 402.9336,-754.1327 401.3093,-760.9417"/>
</g>
<!-- Node27&#45;&gt;Node12 -->
<g id="edge52" class="edge">
<title>Node27&#45;&gt;Node12</title>
<path fill="none" stroke="#191970" d="M150.7753,-429.5947C158.1606,-432.5703 165.9563,-436.2288 172.6875,-440.5 207.4492,-462.5575 241.1721,-497.2119 259.6669,-517.7103"/>
<polygon fill="#191970" stroke="#191970" points="257.1521,-520.1496 266.407,-525.3069 262.3882,-515.5038 257.1521,-520.1496"/>
</g>
<!-- Node27&#45;&gt;Node14 -->
<g id="edge53" class="edge">
<title>Node27&#45;&gt;Node14</title>
<path fill="none" stroke="#191970" d="M128.3493,-411.3912C139.8517,-392.1571 169.6576,-347.7548 208.6875,-330.5 272.106,-302.4632 355.0907,-309.8221 402.7759,-317.6845"/>
<polygon fill="#191970" stroke="#191970" points="402.2286,-321.1418 412.6808,-319.4096 403.4297,-314.2456 402.2286,-321.1418"/>
</g>
<!-- Node28&#45;&gt;Node4 -->
<g id="edge60" class="edge">
<title>Node28&#45;&gt;Node4</title>
<path fill="none" stroke="#191970" d="M154.2329,-462.2128C212.8226,-469.2182 339.4865,-484.3632 403.0258,-491.9604"/>
<polygon fill="#191970" stroke="#191970" points="402.6832,-495.4443 413.028,-493.1564 403.5143,-488.4938 402.6832,-495.4443"/>
</g>
<!-- Node28&#45;&gt;Node6 -->
<g id="edge61" class="edge">
<title>Node28&#45;&gt;Node6</title>
<path fill="none" stroke="#191970" d="M133.7101,-467.6187C145.1867,-478.1813 163.1802,-496.6865 172.6875,-516.5 209.6803,-593.5943 149.8271,-643.4721 208.6875,-705.5 222.0231,-719.5533 339.3562,-743.4063 401.9826,-755.3045"/>
<polygon fill="#191970" stroke="#191970" points="401.4303,-758.762 411.9058,-757.1767 402.7281,-751.8833 401.4303,-758.762"/>
</g>
<!-- Node28&#45;&gt;Node14 -->
<g id="edge59" class="edge">
<title>Node28&#45;&gt;Node14</title>
<path fill="none" stroke="#191970" d="M153.9674,-450.693C160.6771,-447.9527 167.3557,-444.31 172.6875,-439.5 198.9575,-415.801 180.3575,-389.6935 208.6875,-368.5 238.6782,-346.0641 344.1098,-333.7552 402.0779,-328.5427"/>
<polygon fill="#191970" stroke="#191970" points="402.6618,-332.0052 412.3206,-327.6512 402.0547,-325.0316 402.6618,-332.0052"/>
</g>
<!-- Node28&#45;&gt;Node19 -->
<g id="edge58" class="edge">
<title>Node28&#45;&gt;Node19</title>
<path fill="none" stroke="#191970" d="M133.5147,-467.7157C144.8163,-478.3652 162.6534,-496.9481 172.6875,-516.5 203.2023,-575.9594 164.0823,-612.7311 208.6875,-662.5 212.4274,-666.6728 216.9548,-670.1212 221.863,-672.9708"/>
<polygon fill="#191970" stroke="#191970" points="220.504,-676.2028 231.0215,-677.4803 223.5962,-669.9228 220.504,-676.2028"/>
</g>
</g>
</svg>
