<?xml version="1.0" encoding="UTF-8" standalone="no"?>
<!DOCTYPE svg PUBLIC "-//W3C//DTD SVG 1.1//EN"
 "http://www.w3.org/Graphics/SVG/1.1/DTD/svg11.dtd">
<!-- Generated by graphviz version 2.40.1 (20161225.0304)
 -->
<!-- Title: MultiProgressBar.h Pages: 1 -->
<svg width="283pt" height="137pt"
 viewBox="0.00 0.00 283.04 137.00" xmlns="http://www.w3.org/2000/svg" xmlns:xlink="http://www.w3.org/1999/xlink">
<g id="graph0" class="graph" transform="scale(1 1) rotate(0) translate(4 133)">
<title>MultiProgressBar.h</title>
<polygon fill="#ffffff" stroke="transparent" points="-4,4 -4,-133 279.0366,-133 279.0366,4 -4,4"/>
<!-- Node5 -->
<g id="node1" class="node">
<title>Node5</title>
<polygon fill="#bfbfbf" stroke="#000000" points="118.2734,-110.5 118.2734,-128.5 218.7559,-128.5 218.7559,-110.5 118.2734,-110.5"/>
<text text-anchor="middle" x="168.5146" y="-116.5" font-family="Helvetica,sans-Serif" font-size="10.00" fill="#000000">MultiProgressBar.h</text>
</g>
<!-- Node6 -->
<g id="node2" class="node">
<title>Node6</title>
<g id="a_node2"><a xlink:href="Conti2D_8h.html" target="_top" xlink:title="Conti2D.h">
<polygon fill="#ffffff" stroke="#000000" points="109.2808,-55.5 109.2808,-73.5 169.7485,-73.5 169.7485,-55.5 109.2808,-55.5"/>
<text text-anchor="middle" x="139.5146" y="-61.5" font-family="Helvetica,sans-Serif" font-size="10.00" fill="#000000">Conti2D.h</text>
</a>
</g>
</g>
<!-- Node5&#45;&gt;Node6 -->
<g id="edge1" class="edge">
<title>Node5&#45;&gt;Node6</title>
<path fill="none" stroke="#191970" d="M159.057,-101.563C154.1668,-92.2885 148.4026,-81.3564 144.4075,-73.7795"/>
<polygon fill="#191970" stroke="#191970" points="155.9657,-103.2046 163.7259,-110.4179 162.1577,-99.9397 155.9657,-103.2046"/>
</g>
<!-- Node9 -->
<g id="node5" class="node">
<title>Node9</title>
<g id="a_node5"><a xlink:href="MultiProgressBar_8cpp.html" target="_top" xlink:title="MultiProgressBar.cpp">
<polygon fill="#ffffff" stroke="#000000" points="163.9927,-.5 163.9927,-18.5 275.0366,-18.5 275.0366,-.5 163.9927,-.5"/>
<text text-anchor="middle" x="219.5146" y="-6.5" font-family="Helvetica,sans-Serif" font-size="10.00" fill="#000000">MultiProgressBar.cpp</text>
</a>
</g>
</g>
<!-- Node5&#45;&gt;Node9 -->
<g id="edge5" class="edge">
<title>Node5&#45;&gt;Node9</title>
<path fill="none" stroke="#191970" d="M177.0177,-101.16C188.0586,-77.3464 206.9045,-36.6983 215.2834,-18.6261"/>
<polygon fill="#191970" stroke="#191970" points="173.7192,-99.9537 172.6882,-110.4982 180.0698,-102.8981 173.7192,-99.9537"/>
</g>
<!-- Node7 -->
<g id="node3" class="node">
<title>Node7</title>
<g id="a_node3"><a xlink:href="Conti2D_8cpp.html" target="_top" xlink:title="Conti2D.cpp">
<polygon fill="#ffffff" stroke="#000000" points="0,-.5 0,-18.5 71.0293,-18.5 71.0293,-.5 0,-.5"/>
<text text-anchor="middle" x="35.5146" y="-6.5" font-family="Helvetica,sans-Serif" font-size="10.00" fill="#000000">Conti2D.cpp</text>
</a>
</g>
</g>
<!-- Node6&#45;&gt;Node7 -->
<g id="edge2" class="edge">
<title>Node6&#45;&gt;Node7</title>
<path fill="none" stroke="#191970" d="M113.3173,-50.6456C94.3346,-40.6067 69.207,-27.3181 52.7136,-18.5956"/>
<polygon fill="#191970" stroke="#191970" points="111.8649,-53.8368 122.3412,-55.4179 115.1375,-47.6489 111.8649,-53.8368"/>
</g>
<!-- Node8 -->
<g id="node4" class="node">
<title>Node8</title>
<g id="a_node4"><a xlink:href="main_8cpp.html" target="_top" xlink:title="main.cpp">
<polygon fill="#ffffff" stroke="#000000" points="89.2266,-.5 89.2266,-18.5 145.8027,-18.5 145.8027,-.5 89.2266,-.5"/>
<text text-anchor="middle" x="117.5146" y="-6.5" font-family="Helvetica,sans-Serif" font-size="10.00" fill="#000000">main.cpp</text>
</a>
</g>
</g>
<!-- Node6&#45;&gt;Node8 -->
<g id="edge3" class="edge">
<title>Node6&#45;&gt;Node8</title>
<path fill="none" stroke="#191970" d="M132.1047,-45.9751C128.4465,-36.8297 124.1934,-26.1969 121.2264,-18.7795"/>
<polygon fill="#191970" stroke="#191970" points="128.9182,-47.433 135.8818,-55.4179 135.4175,-44.8332 128.9182,-47.433"/>
</g>
<!-- Node6&#45;&gt;Node9 -->
<g id="edge4" class="edge">
<title>Node6&#45;&gt;Node9</title>
<path fill="none" stroke="#191970" d="M161.0808,-49.6733C175.4974,-39.7619 194.003,-27.0393 206.2846,-18.5956"/>
<polygon fill="#191970" stroke="#191970" points="158.9826,-46.8684 152.725,-55.4179 162.9483,-52.6367 158.9826,-46.8684"/>
</g>
</g>
</svg>
