<?xml version="1.0" encoding="UTF-8" standalone="no"?>
<!DOCTYPE svg PUBLIC "-//W3C//DTD SVG 1.1//EN"
 "http://www.w3.org/Graphics/SVG/1.1/DTD/svg11.dtd">
<!-- Generated by graphviz version 2.40.1 (20161225.0304)
 -->
<!-- Title: MultiProgressBar.cpp Pages: 1 -->
<svg width="635pt" height="192pt"
 viewBox="0.00 0.00 635.24 192.00" xmlns="http://www.w3.org/2000/svg" xmlns:xlink="http://www.w3.org/1999/xlink">
<g id="graph0" class="graph" transform="scale(1 1) rotate(0) translate(4 188)">
<title>MultiProgressBar.cpp</title>
<polygon fill="#ffffff" stroke="transparent" points="-4,4 -4,-188 631.2412,-188 631.2412,4 -4,4"/>
<!-- Node0 -->
<g id="node1" class="node">
<title>Node0</title>
<polygon fill="#bfbfbf" stroke="#000000" points="321.2095,-165.5 321.2095,-183.5 432.2534,-183.5 432.2534,-165.5 321.2095,-165.5"/>
<text text-anchor="middle" x="376.7314" y="-171.5" font-family="Helvetica,sans-Serif" font-size="10.00" fill="#000000">MultiProgressBar.cpp</text>
</g>
<!-- Node1 -->
<g id="node2" class="node">
<title>Node1</title>
<g id="a_node2"><a xlink:href="MultiProgressBar_8h.html" target="_top" xlink:title="MultiProgressBar.h">
<polygon fill="#ffffff" stroke="#000000" points="7.4902,-55.5 7.4902,-73.5 107.9727,-73.5 107.9727,-55.5 7.4902,-55.5"/>
<text text-anchor="middle" x="57.7314" y="-61.5" font-family="Helvetica,sans-Serif" font-size="10.00" fill="#000000">MultiProgressBar.h</text>
</a>
</g>
</g>
<!-- Node0&#45;&gt;Node1 -->
<g id="edge1" class="edge">
<title>Node0&#45;&gt;Node1</title>
<path fill="none" stroke="#191970" d="M350.6263,-165.4982C293.8457,-145.9187 159.0122,-99.4244 94.0078,-77.0091"/>
<polygon fill="#191970" stroke="#191970" points="94.792,-73.5773 84.1973,-73.6261 92.51,-80.1949 94.792,-73.5773"/>
</g>
<!-- Node6 -->
<g id="node7" class="node">
<title>Node6</title>
<polygon fill="#ffffff" stroke="#bfbfbf" points="576.2217,-55.5 576.2217,-73.5 627.2412,-73.5 627.2412,-55.5 576.2217,-55.5"/>
<text text-anchor="middle" x="601.7314" y="-61.5" font-family="Helvetica,sans-Serif" font-size="10.00" fill="#000000">iomanip</text>
</g>
<!-- Node0&#45;&gt;Node6 -->
<g id="edge6" class="edge">
<title>Node0&#45;&gt;Node6</title>
<path fill="none" stroke="#191970" d="M395.1441,-165.4982C434.534,-146.241 527.1792,-100.9478 573.8409,-78.1354"/>
<polygon fill="#191970" stroke="#191970" points="575.6177,-81.1626 583.0643,-73.6261 572.5432,-74.874 575.6177,-81.1626"/>
</g>
<!-- Node7 -->
<g id="node8" class="node">
<title>Node7</title>
<g id="a_node8"><a xlink:href="Conti2D_8h.html" target="_top" xlink:title="Conti2D.h">
<polygon fill="#ffffff" stroke="#000000" points="346.4976,-110.5 346.4976,-128.5 406.9653,-128.5 406.9653,-110.5 346.4976,-110.5"/>
<text text-anchor="middle" x="376.7314" y="-116.5" font-family="Helvetica,sans-Serif" font-size="10.00" fill="#000000">Conti2D.h</text>
</a>
</g>
</g>
<!-- Node0&#45;&gt;Node7 -->
<g id="edge7" class="edge">
<title>Node0&#45;&gt;Node7</title>
<path fill="none" stroke="#191970" d="M376.7314,-165.4179C376.7314,-158.2164 376.7314,-147.8962 376.7314,-138.8632"/>
<polygon fill="#191970" stroke="#191970" points="380.2315,-138.7794 376.7314,-128.7795 373.2315,-138.7795 380.2315,-138.7794"/>
</g>
<!-- Node2 -->
<g id="node3" class="node">
<title>Node2</title>
<polygon fill="#ffffff" stroke="#bfbfbf" points="0,-.5 0,-18.5 45.4629,-18.5 45.4629,-.5 0,-.5"/>
<text text-anchor="middle" x="22.7314" y="-6.5" font-family="Helvetica,sans-Serif" font-size="10.00" fill="#000000">stdio.h</text>
</g>
<!-- Node1&#45;&gt;Node2 -->
<g id="edge2" class="edge">
<title>Node1&#45;&gt;Node2</title>
<path fill="none" stroke="#191970" d="M51.9519,-55.4179C47.1173,-47.8207 40.0741,-36.7527 34.1138,-27.3866"/>
<polygon fill="#191970" stroke="#191970" points="36.9582,-25.337 28.6366,-18.7795 31.0525,-29.0952 36.9582,-25.337"/>
</g>
<!-- Node3 -->
<g id="node4" class="node">
<title>Node3</title>
<polygon fill="#ffffff" stroke="#bfbfbf" points="239.5591,-.5 239.5591,-18.5 293.9038,-18.5 293.9038,-.5 239.5591,-.5"/>
<text text-anchor="middle" x="266.7314" y="-6.5" font-family="Helvetica,sans-Serif" font-size="10.00" fill="#000000">iostream</text>
</g>
<!-- Node1&#45;&gt;Node3 -->
<g id="edge3" class="edge">
<title>Node1&#45;&gt;Node3</title>
<path fill="none" stroke="#191970" d="M92.2435,-55.4179C130.1327,-45.447 190.74,-29.4977 229.6287,-19.2639"/>
<polygon fill="#191970" stroke="#191970" points="230.7222,-22.5954 239.5022,-16.6656 228.9407,-15.8258 230.7222,-22.5954"/>
</g>
<!-- Node4 -->
<g id="node5" class="node">
<title>Node4</title>
<polygon fill="#ffffff" stroke="#bfbfbf" points="405.1157,-.5 405.1157,-18.5 448.3472,-18.5 448.3472,-.5 405.1157,-.5"/>
<text text-anchor="middle" x="426.7314" y="-6.5" font-family="Helvetica,sans-Serif" font-size="10.00" fill="#000000">vector</text>
</g>
<!-- Node1&#45;&gt;Node4 -->
<g id="edge4" class="edge">
<title>Node1&#45;&gt;Node4</title>
<path fill="none" stroke="#191970" d="M108.2547,-56.3175C111.1219,-55.8679 113.9628,-55.4261 116.7314,-55 218.2525,-39.3771 338.6708,-22.046 394.873,-14.0268"/>
<polygon fill="#191970" stroke="#191970" points="395.5109,-17.4714 404.917,-12.5953 394.5232,-10.5414 395.5109,-17.4714"/>
</g>
<!-- Node5 -->
<g id="node6" class="node">
<title>Node5</title>
<polygon fill="#ffffff" stroke="#bfbfbf" points="63.7808,-.5 63.7808,-18.5 123.6821,-18.5 123.6821,-.5 63.7808,-.5"/>
<text text-anchor="middle" x="93.7314" y="-6.5" font-family="Helvetica,sans-Serif" font-size="10.00" fill="#000000">sys/ioctl.h</text>
</g>
<!-- Node1&#45;&gt;Node5 -->
<g id="edge5" class="edge">
<title>Node1&#45;&gt;Node5</title>
<path fill="none" stroke="#191970" d="M63.6761,-55.4179C68.6488,-47.8207 75.8933,-36.7527 82.0238,-27.3866"/>
<polygon fill="#191970" stroke="#191970" points="85.1094,-29.0633 87.6576,-18.7795 79.2525,-25.2297 85.1094,-29.0633"/>
</g>
<!-- Node7&#45;&gt;Node1 -->
<g id="edge19" class="edge">
<title>Node7&#45;&gt;Node1</title>
<path fill="none" stroke="#191970" d="M346.4331,-114.2761C294.2141,-105.2729 186.3258,-86.6714 118.2399,-74.9325"/>
<polygon fill="#191970" stroke="#191970" points="118.5313,-71.4312 108.082,-73.1811 117.3419,-78.3294 118.5313,-71.4312"/>
</g>
<!-- Node7&#45;&gt;Node3 -->
<g id="edge9" class="edge">
<title>Node7&#45;&gt;Node3</title>
<path fill="none" stroke="#191970" d="M381.4664,-110.2493C387.5994,-96.8315 396.2229,-71.7472 384.7314,-55 375.2034,-41.1143 334.7255,-27.5325 303.8098,-18.8762"/>
<polygon fill="#191970" stroke="#191970" points="304.7282,-15.4989 294.1596,-16.2446 302.8865,-22.2523 304.7282,-15.4989"/>
</g>
<!-- Node7&#45;&gt;Node4 -->
<g id="edge12" class="edge">
<title>Node7&#45;&gt;Node4</title>
<path fill="none" stroke="#191970" d="M388.1536,-110.3271C397.7311,-101.9439 410.9053,-88.6503 417.7314,-74 424.3056,-59.8907 426.4117,-42.3029 426.9541,-29.0584"/>
<polygon fill="#191970" stroke="#191970" points="430.4583,-28.783 427.1013,-18.7341 423.459,-28.6831 430.4583,-28.783"/>
</g>
<!-- Node7&#45;&gt;Node6 -->
<g id="edge11" class="edge">
<title>Node7&#45;&gt;Node6</title>
<path fill="none" stroke="#191970" d="M407.0759,-112.0825C448.3863,-101.9844 522.1931,-83.9427 566.0891,-73.2126"/>
<polygon fill="#191970" stroke="#191970" points="567.1547,-76.5552 576.0376,-70.7807 565.4924,-69.7554 567.1547,-76.5552"/>
</g>
<!-- Node8 -->
<g id="node9" class="node">
<title>Node8</title>
<polygon fill="#ffffff" stroke="#bfbfbf" points="125.9507,-55.5 125.9507,-73.5 177.5122,-73.5 177.5122,-55.5 125.9507,-55.5"/>
<text text-anchor="middle" x="151.7314" y="-61.5" font-family="Helvetica,sans-Serif" font-size="10.00" fill="#000000">sstream</text>
</g>
<!-- Node7&#45;&gt;Node8 -->
<g id="edge8" class="edge">
<title>Node7&#45;&gt;Node8</title>
<path fill="none" stroke="#191970" d="M346.2082,-112.6112C310.3451,-104.4338 248.8197,-90.1459 187.5239,-74.4033"/>
<polygon fill="#191970" stroke="#191970" points="188.2497,-70.976 177.6922,-71.8649 186.4998,-77.7537 188.2497,-70.976"/>
</g>
<!-- Node9 -->
<g id="node10" class="node">
<title>Node9</title>
<polygon fill="#ffffff" stroke="#bfbfbf" points="195.0615,-55.5 195.0615,-73.5 244.4014,-73.5 244.4014,-55.5 195.0615,-55.5"/>
<text text-anchor="middle" x="219.7314" y="-61.5" font-family="Helvetica,sans-Serif" font-size="10.00" fill="#000000">fstream</text>
</g>
<!-- Node7&#45;&gt;Node9 -->
<g id="edge10" class="edge">
<title>Node7&#45;&gt;Node9</title>
<path fill="none" stroke="#191970" d="M350.8061,-110.4179C324.4729,-101.1929 283.5317,-86.8504 254.4184,-76.6515"/>
<polygon fill="#191970" stroke="#191970" points="255.2522,-73.2351 244.6573,-73.232 252.9378,-79.8414 255.2522,-73.2351"/>
</g>
<!-- Node10 -->
<g id="node11" class="node">
<title>Node10</title>
<polygon fill="#ffffff" stroke="#bfbfbf" points="529.4458,-.5 529.4458,-18.5 576.0171,-18.5 576.0171,-.5 529.4458,-.5"/>
<text text-anchor="middle" x="552.7314" y="-6.5" font-family="Helvetica,sans-Serif" font-size="10.00" fill="#000000">math.h</text>
</g>
<!-- Node7&#45;&gt;Node10 -->
<g id="edge13" class="edge">
<title>Node7&#45;&gt;Node10</title>
<path fill="none" stroke="#191970" d="M407.1356,-113.734C446.2007,-105.776 511.0903,-90.5242 528.7314,-74 541.2543,-62.2701 547.2797,-43.4029 550.1567,-29.0974"/>
<polygon fill="#191970" stroke="#191970" points="553.6767,-29.2628 551.853,-18.8262 546.7703,-28.1222 553.6767,-29.2628"/>
</g>
<!-- Node11 -->
<g id="node12" class="node">
<title>Node11</title>
<polygon fill="#ffffff" stroke="#bfbfbf" points="262.835,-55.5 262.835,-73.5 306.6279,-73.5 306.6279,-55.5 262.835,-55.5"/>
<text text-anchor="middle" x="284.7314" y="-61.5" font-family="Helvetica,sans-Serif" font-size="10.00" fill="#000000">omp.h</text>
</g>
<!-- Node7&#45;&gt;Node11 -->
<g id="edge14" class="edge">
<title>Node7&#45;&gt;Node11</title>
<path fill="none" stroke="#191970" d="M361.5395,-110.4179C347.1569,-101.8195 325.3375,-88.7754 308.6254,-78.7844"/>
<polygon fill="#191970" stroke="#191970" points="310.3251,-75.7228 299.9459,-73.5956 306.7332,-81.731 310.3251,-75.7228"/>
</g>
<!-- Node12 -->
<g id="node13" class="node">
<title>Node12</title>
<g id="a_node13"><a xlink:href="FFTN_8h.html" target="_top" xlink:title="FFTN.h">
<polygon fill="#ffffff" stroke="#000000" points="469.7881,-55.5 469.7881,-73.5 519.6748,-73.5 519.6748,-55.5 469.7881,-55.5"/>
<text text-anchor="middle" x="494.7314" y="-61.5" font-family="Helvetica,sans-Serif" font-size="10.00" fill="#000000">FFTN.h</text>
</a>
</g>
</g>
<!-- Node7&#45;&gt;Node12 -->
<g id="edge15" class="edge">
<title>Node7&#45;&gt;Node12</title>
<path fill="none" stroke="#191970" d="M396.2167,-110.4179C415.2619,-101.5409 444.4736,-87.9253 466.1477,-77.823"/>
<polygon fill="#191970" stroke="#191970" points="467.632,-80.9927 475.2172,-73.5956 464.6747,-74.648 467.632,-80.9927"/>
</g>
<!-- Node14 -->
<g id="node15" class="node">
<title>Node14</title>
<polygon fill="#ffffff" stroke="#bfbfbf" points="324.2192,-55.5 324.2192,-73.5 375.2437,-73.5 375.2437,-55.5 324.2192,-55.5"/>
<text text-anchor="middle" x="349.7314" y="-61.5" font-family="Helvetica,sans-Serif" font-size="10.00" fill="#000000">unistd.h</text>
</g>
<!-- Node7&#45;&gt;Node14 -->
<g id="edge20" class="edge">
<title>Node7&#45;&gt;Node14</title>
<path fill="none" stroke="#191970" d="M372.2729,-110.4179C368.6211,-102.9789 363.3357,-92.2123 358.8006,-82.9742"/>
<polygon fill="#191970" stroke="#191970" points="361.8354,-81.2138 354.2868,-73.7795 355.5518,-84.2985 361.8354,-81.2138"/>
</g>
<!-- Node12&#45;&gt;Node4 -->
<g id="edge17" class="edge">
<title>Node12&#45;&gt;Node4</title>
<path fill="none" stroke="#191970" d="M483.5026,-55.4179C473.327,-47.1876 458.1152,-34.8839 445.9984,-25.0836"/>
<polygon fill="#191970" stroke="#191970" points="448.1804,-22.3469 438.2042,-18.7795 443.7783,-27.7895 448.1804,-22.3469"/>
</g>
<!-- Node12&#45;&gt;Node10 -->
<g id="edge18" class="edge">
<title>Node12&#45;&gt;Node10</title>
<path fill="none" stroke="#191970" d="M504.309,-55.4179C512.7378,-47.425 525.218,-35.5903 535.3971,-25.9377"/>
<polygon fill="#191970" stroke="#191970" points="538.0979,-28.2001 542.9458,-18.7795 533.2812,-23.1207 538.0979,-28.2001"/>
</g>
<!-- Node13 -->
<g id="node14" class="node">
<title>Node13</title>
<polygon fill="#ffffff" stroke="#bfbfbf" points="466.0903,-.5 466.0903,-18.5 511.3726,-18.5 511.3726,-.5 466.0903,-.5"/>
<text text-anchor="middle" x="488.7314" y="-6.5" font-family="Helvetica,sans-Serif" font-size="10.00" fill="#000000">fftw3.h</text>
</g>
<!-- Node12&#45;&gt;Node13 -->
<g id="edge16" class="edge">
<title>Node12&#45;&gt;Node13</title>
<path fill="none" stroke="#191970" d="M493.7407,-55.4179C492.955,-48.2164 491.8292,-37.8962 490.8438,-28.8632"/>
<polygon fill="#191970" stroke="#191970" points="494.3077,-28.3409 489.7437,-18.7795 487.349,-29.1001 494.3077,-28.3409"/>
</g>
</g>
</svg>
