<?xml version="1.0" encoding="UTF-8" standalone="no"?>
<!DOCTYPE svg PUBLIC "-//W3C//DTD SVG 1.1//EN"
 "http://www.w3.org/Graphics/SVG/1.1/DTD/svg11.dtd">
<!-- Generated by graphviz version 2.40.1 (20161225.0304)
 -->
<!-- Title: MultiProgressBar::Update Pages: 1 -->
<svg width="478pt" height="360pt"
 viewBox="0.00 0.00 477.92 360.00" xmlns="http://www.w3.org/2000/svg" xmlns:xlink="http://www.w3.org/1999/xlink">
<g id="graph0" class="graph" transform="scale(1 1) rotate(0) translate(4 356)">
<title>MultiProgressBar::Update</title>
<polygon fill="#ffffff" stroke="transparent" points="-4,4 -4,-356 473.915,-356 473.915,4 -4,4"/>
<!-- Node1 -->
<g id="node1" class="node">
<title>Node1</title>
<polygon fill="#bfbfbf" stroke="#000000" points="0,-166.5 0,-184.5 130.4922,-184.5 130.4922,-166.5 0,-166.5"/>
<text text-anchor="middle" x="65.2461" y="-172.5" font-family="Helvetica,sans-Serif" font-size="10.00" fill="#000000">MultiProgressBar::Update</text>
</g>
<!-- Node2 -->
<g id="node2" class="node">
<title>Node2</title>
<g id="a_node2"><a xlink:href="Conti2D_8h_a68e9e4a8817a29dce16c782fa8213faa.html#a68e9e4a8817a29dce16c782fa8213faa" target="_top" xlink:title="DWC_p2p_CGLS">
<polygon fill="#ffffff" stroke="#000000" points="184.8418,-333.5 184.8418,-351.5 279.7627,-351.5 279.7627,-333.5 184.8418,-333.5"/>
<text text-anchor="middle" x="232.3022" y="-339.5" font-family="Helvetica,sans-Serif" font-size="10.00" fill="#000000">DWC_p2p_CGLS</text>
</a>
</g>
</g>
<!-- Node1&#45;&gt;Node2 -->
<g id="edge1" class="edge">
<title>Node1&#45;&gt;Node2</title>
<path fill="none" stroke="#191970" d="M72.6097,-193.8784C86.2461,-225.522 118.4838,-290.1922 166.4922,-324.5 171.9854,-328.4255 178.295,-331.4954 184.7851,-333.8959"/>
<polygon fill="#191970" stroke="#191970" points="75.7805,-192.3884 68.7024,-184.5048 69.3194,-195.0817 75.7805,-192.3884"/>
</g>
<!-- Node3 -->
<g id="node3" class="node">
<title>Node3</title>
<g id="a_node3"><a xlink:href="Conti2D_8h_a1bb3d1115c283e9063a98ee17fa9d31f.html#a1bb3d1115c283e9063a98ee17fa9d31f" target="_top" xlink:title="DWC_p2p_ItegrationIter">
<polygon fill="#ffffff" stroke="#000000" points="170.3862,-296.5 170.3862,-314.5 294.2183,-314.5 294.2183,-296.5 170.3862,-296.5"/>
<text text-anchor="middle" x="232.3022" y="-302.5" font-family="Helvetica,sans-Serif" font-size="10.00" fill="#000000">DWC_p2p_ItegrationIter</text>
</a>
</g>
</g>
<!-- Node1&#45;&gt;Node3 -->
<g id="edge2" class="edge">
<title>Node1&#45;&gt;Node3</title>
<path fill="none" stroke="#191970" d="M76.3355,-193.0826C92.9065,-217.8976 126.5005,-262.9046 166.4922,-287.5 172.445,-291.1611 179.1496,-294.0907 185.9431,-296.4316"/>
<polygon fill="#191970" stroke="#191970" points="79.2306,-191.1145 70.8401,-184.6453 73.365,-194.9349 79.2306,-191.1145"/>
</g>
<!-- Node4 -->
<g id="node4" class="node">
<title>Node4</title>
<g id="a_node4"><a xlink:href="Conti2D_8h_a8affb7fb2246ce1c959f681fc7baaa05.html#a8affb7fb2246ce1c959f681fc7baaa05" target="_top" xlink:title="DWC_p2p_LandweberIter">
<polygon fill="#ffffff" stroke="#000000" points="166.4922,-259.5 166.4922,-277.5 298.1123,-277.5 298.1123,-259.5 166.4922,-259.5"/>
<text text-anchor="middle" x="232.3022" y="-265.5" font-family="Helvetica,sans-Serif" font-size="10.00" fill="#000000">DWC_p2p_LandweberIter</text>
</a>
</g>
</g>
<!-- Node1&#45;&gt;Node4 -->
<g id="edge3" class="edge">
<title>Node1&#45;&gt;Node4</title>
<path fill="none" stroke="#191970" d="M82.3508,-191.3257C101.4962,-208.2467 134.0992,-234.7614 166.4922,-250.5 173.8435,-254.0717 182.0129,-257.0257 190.0253,-259.4355"/>
<polygon fill="#191970" stroke="#191970" points="84.5535,-188.5994 74.7796,-184.51 79.8701,-193.8019 84.5535,-188.5994"/>
</g>
<!-- Node5 -->
<g id="node5" class="node">
<title>Node5</title>
<g id="a_node5"><a xlink:href="Conti2D_8h_a6516cfeb71abcf844b32f101e5f77a71.html#a6516cfeb71abcf844b32f101e5f77a71" target="_top" xlink:title="DWC_s2p_CGLS">
<polygon fill="#ffffff" stroke="#000000" points="185.1226,-222.5 185.1226,-240.5 279.4819,-240.5 279.4819,-222.5 185.1226,-222.5"/>
<text text-anchor="middle" x="232.3022" y="-228.5" font-family="Helvetica,sans-Serif" font-size="10.00" fill="#000000">DWC_s2p_CGLS</text>
</a>
</g>
</g>
<!-- Node1&#45;&gt;Node5 -->
<g id="edge4" class="edge">
<title>Node1&#45;&gt;Node5</title>
<path fill="none" stroke="#191970" d="M97.0174,-188.2838C116.8347,-196.0426 142.9598,-205.8835 166.4922,-213.5 176.2966,-216.6733 187.0377,-219.7686 196.9466,-222.4725"/>
<polygon fill="#191970" stroke="#191970" points="98.1428,-184.9653 87.5561,-184.5503 95.5734,-191.4767 98.1428,-184.9653"/>
</g>
<!-- Node9 -->
<g id="node9" class="node">
<title>Node9</title>
<g id="a_node9"><a xlink:href="Conti2D_8h_a39a6a4cc378c878de458d5ae56eb1630.html#a39a6a4cc378c878de458d5ae56eb1630" target="_top" xlink:title="DWC_s2p_ItegrationIter">
<polygon fill="#ffffff" stroke="#000000" points="170.667,-185.5 170.667,-203.5 293.9375,-203.5 293.9375,-185.5 170.667,-185.5"/>
<text text-anchor="middle" x="232.3022" y="-191.5" font-family="Helvetica,sans-Serif" font-size="10.00" fill="#000000">DWC_s2p_ItegrationIter</text>
</a>
</g>
</g>
<!-- Node1&#45;&gt;Node9 -->
<g id="edge9" class="edge">
<title>Node1&#45;&gt;Node9</title>
<path fill="none" stroke="#191970" d="M141.0013,-184.116C150.8716,-185.2386 160.8879,-186.3778 170.4926,-187.4701"/>
<polygon fill="#191970" stroke="#191970" points="141.1231,-180.6073 130.7916,-182.9548 140.332,-187.5625 141.1231,-180.6073"/>
</g>
<!-- Node10 -->
<g id="node10" class="node">
<title>Node10</title>
<g id="a_node10"><a xlink:href="Conti2D_8h_a30671331e25e6cfa739e77aec57b7f18.html#a30671331e25e6cfa739e77aec57b7f18" target="_top" xlink:title="DWC_s2p_LandweberIter">
<polygon fill="#ffffff" stroke="#000000" points="166.7729,-148.5 166.7729,-166.5 297.8315,-166.5 297.8315,-148.5 166.7729,-148.5"/>
<text text-anchor="middle" x="232.3022" y="-154.5" font-family="Helvetica,sans-Serif" font-size="10.00" fill="#000000">DWC_s2p_LandweberIter</text>
</a>
</g>
</g>
<!-- Node1&#45;&gt;Node10 -->
<g id="edge12" class="edge">
<title>Node1&#45;&gt;Node10</title>
<path fill="none" stroke="#191970" d="M140.8378,-167.3551C149.4592,-166.4262 158.1944,-165.485 166.6715,-164.5716"/>
<polygon fill="#191970" stroke="#191970" points="140.3591,-163.8864 130.7916,-168.4376 141.1091,-170.8461 140.3591,-163.8864"/>
</g>
<!-- Node11 -->
<g id="node11" class="node">
<title>Node11</title>
<g id="a_node11"><a xlink:href="Conti2D_8h_a08f63b90a388692c22c4799d19a80207.html#a08f63b90a388692c22c4799d19a80207" target="_top" xlink:title="DWC_s2p_Tikhonov">
<polygon fill="#ffffff" stroke="#000000" points="178.6333,-37.5 178.6333,-55.5 285.9712,-55.5 285.9712,-37.5 178.6333,-37.5"/>
<text text-anchor="middle" x="232.3022" y="-43.5" font-family="Helvetica,sans-Serif" font-size="10.00" fill="#000000">DWC_s2p_Tikhonov</text>
</a>
</g>
</g>
<!-- Node1&#45;&gt;Node11 -->
<g id="edge15" class="edge">
<title>Node1&#45;&gt;Node11</title>
<path fill="none" stroke="#191970" d="M76.3738,-158.0771C92.9916,-133.4871 126.6421,-88.8859 166.4922,-64.5 172.4532,-60.8522 179.1621,-57.9297 185.9576,-55.592"/>
<polygon fill="#191970" stroke="#191970" points="73.4438,-156.1626 70.8614,-166.4379 79.288,-160.0157 73.4438,-156.1626"/>
</g>
<!-- Node12 -->
<g id="node12" class="node">
<title>Node12</title>
<g id="a_node12"><a xlink:href="Conti2D_8h_a771b48a44ec12bf118f2fbf3789a7d70.html#a771b48a44ec12bf118f2fbf3789a7d70" target="_top" xlink:title="Upward continue from plane to plane. ">
<polygon fill="#ffffff" stroke="#000000" points="191.502,-.5 191.502,-18.5 273.1025,-18.5 273.1025,-.5 191.502,-.5"/>
<text text-anchor="middle" x="232.3022" y="-6.5" font-family="Helvetica,sans-Serif" font-size="10.00" fill="#000000">Getkernel_p2p</text>
</a>
</g>
</g>
<!-- Node1&#45;&gt;Node12 -->
<g id="edge16" class="edge">
<title>Node1&#45;&gt;Node12</title>
<path fill="none" stroke="#191970" d="M72.8411,-156.7932C86.6419,-125.2016 118.8784,-61.4133 166.4922,-27.5 173.8246,-22.2774 182.6036,-18.5693 191.3239,-15.9368"/>
<polygon fill="#191970" stroke="#191970" points="69.5418,-155.6093 68.872,-166.183 75.9894,-158.3348 69.5418,-155.6093"/>
</g>
<!-- Node13 -->
<g id="node13" class="node">
<title>Node13</title>
<g id="a_node13"><a xlink:href="Conti2D_8h_a6f44a06f2b4926f66481fccf277bea50.html#a6f44a06f2b4926f66481fccf277bea50" target="_top" xlink:title="Getkernel_p2p_new">
<polygon fill="#ffffff" stroke="#000000" points="179.5488,-74.5 179.5488,-92.5 285.0557,-92.5 285.0557,-74.5 179.5488,-74.5"/>
<text text-anchor="middle" x="232.3022" y="-80.5" font-family="Helvetica,sans-Serif" font-size="10.00" fill="#000000">Getkernel_p2p_new</text>
</a>
</g>
</g>
<!-- Node1&#45;&gt;Node13 -->
<g id="edge17" class="edge">
<title>Node1&#45;&gt;Node13</title>
<path fill="none" stroke="#191970" d="M83.0859,-159.6849C102.4113,-143.2915 134.7515,-117.9454 166.4922,-102.5 174.7259,-98.4934 183.9604,-95.1781 192.8486,-92.5007"/>
<polygon fill="#191970" stroke="#191970" points="80.6892,-157.13 75.4056,-166.3134 85.2628,-162.4293 80.6892,-157.13"/>
</g>
<!-- Node15 -->
<g id="node15" class="node">
<title>Node15</title>
<g id="a_node15"><a xlink:href="Conti2D_8h_a78d8a6b80166f8976a0f18caddbe1dcb.html#a78d8a6b80166f8976a0f18caddbe1dcb" target="_top" xlink:title="Getkernel_p2s_new">
<polygon fill="#ffffff" stroke="#000000" points="179.8296,-111.5 179.8296,-129.5 284.7749,-129.5 284.7749,-111.5 179.8296,-111.5"/>
<text text-anchor="middle" x="232.3022" y="-117.5" font-family="Helvetica,sans-Serif" font-size="10.00" fill="#000000">Getkernel_p2s_new</text>
</a>
</g>
</g>
<!-- Node1&#45;&gt;Node15 -->
<g id="edge21" class="edge">
<title>Node1&#45;&gt;Node15</title>
<path fill="none" stroke="#191970" d="M99.0674,-162.8963C118.6612,-155.7399 143.8562,-146.7846 166.4922,-139.5 177.1332,-136.0756 188.8327,-132.6042 199.3786,-129.5822"/>
<polygon fill="#191970" stroke="#191970" points="97.8357,-159.62 89.6552,-166.3528 100.2488,-166.1909 97.8357,-159.62"/>
</g>
<!-- Node6 -->
<g id="node6" class="node">
<title>Node6</title>
<g id="a_node6"><a xlink:href="Conti2D_8h_ab87ce573de93575b7ece2e4f772e03fd.html#ab87ce573de93575b7ece2e4f772e03fd" target="_top" xlink:title="DWC_p2p">
<polygon fill="#ffffff" stroke="#000000" points="334.1123,-148.5 334.1123,-166.5 396.2402,-166.5 396.2402,-148.5 334.1123,-148.5"/>
<text text-anchor="middle" x="365.1763" y="-154.5" font-family="Helvetica,sans-Serif" font-size="10.00" fill="#000000">DWC_p2p</text>
</a>
</g>
</g>
<!-- Node5&#45;&gt;Node6 -->
<g id="edge5" class="edge">
<title>Node5&#45;&gt;Node6</title>
<path fill="none" stroke="#191970" d="M287.3288,-218.8935C291.0753,-217.2982 294.7091,-215.5079 298.1123,-213.5 317.8731,-201.841 316.1858,-190.8199 334.1123,-176.5 338.5578,-172.9489 343.7169,-169.5464 348.5385,-166.6268"/>
<polygon fill="#191970" stroke="#191970" points="285.9715,-215.6647 277.8512,-222.47 288.443,-222.2139 285.9715,-215.6647"/>
</g>
<!-- Node8 -->
<g id="node8" class="node">
<title>Node8</title>
<g id="a_node8"><a xlink:href="Conti2D_8h_ac96429563a5015babafa3274c3f3ec73.html#ac96429563a5015babafa3274c3f3ec73" target="_top" xlink:title="downward continuation from surface to plane ">
<polygon fill="#ffffff" stroke="#000000" points="334.3931,-185.5 334.3931,-203.5 395.9595,-203.5 395.9595,-185.5 334.3931,-185.5"/>
<text text-anchor="middle" x="365.1763" y="-191.5" font-family="Helvetica,sans-Serif" font-size="10.00" fill="#000000">DWC_s2p</text>
</a>
</g>
</g>
<!-- Node5&#45;&gt;Node8 -->
<g id="edge7" class="edge">
<title>Node5&#45;&gt;Node8</title>
<path fill="none" stroke="#191970" d="M275.271,-219.8079C282.8834,-217.7193 290.7335,-215.5543 298.1123,-213.5 309.8868,-210.2219 322.8093,-206.573 334.1412,-203.3561"/>
<polygon fill="#191970" stroke="#191970" points="274.1809,-216.4775 265.4601,-222.494 276.0294,-223.229 274.1809,-216.4775"/>
</g>
<!-- Node7 -->
<g id="node7" class="node">
<title>Node7</title>
<g id="a_node7"><a xlink:href="main_8cpp_a0ddf1224851353fc92bfbff6f499fa97.html#a0ddf1224851353fc92bfbff6f499fa97" target="_top" xlink:title="main">
<polygon fill="#ffffff" stroke="#000000" points="432.2402,-129.5 432.2402,-147.5 469.915,-147.5 469.915,-129.5 432.2402,-129.5"/>
<text text-anchor="middle" x="451.0776" y="-135.5" font-family="Helvetica,sans-Serif" font-size="10.00" fill="#000000">main</text>
</a>
</g>
</g>
<!-- Node6&#45;&gt;Node7 -->
<g id="edge6" class="edge">
<title>Node6&#45;&gt;Node7</title>
<path fill="none" stroke="#191970" d="M406.6169,-148.334C415.5279,-146.363 424.5256,-144.3729 432.0733,-142.7035"/>
<polygon fill="#191970" stroke="#191970" points="405.6831,-144.9559 396.675,-150.533 407.1949,-151.7907 405.6831,-144.9559"/>
</g>
<!-- Node8&#45;&gt;Node7 -->
<g id="edge8" class="edge">
<title>Node8&#45;&gt;Node7</title>
<path fill="none" stroke="#191970" d="M390.2791,-180.1887C392.308,-178.9609 394.3162,-177.7213 396.2402,-176.5 411.1045,-167.065 427.6498,-155.4375 438.6396,-147.5474"/>
<polygon fill="#191970" stroke="#191970" points="388.2797,-177.3046 381.4474,-185.4021 391.8382,-183.3327 388.2797,-177.3046"/>
</g>
<!-- Node9&#45;&gt;Node6 -->
<g id="edge10" class="edge">
<title>Node9&#45;&gt;Node6</title>
<path fill="none" stroke="#191970" d="M275.271,-182.8079C282.8834,-180.7193 290.7335,-178.5543 298.1123,-176.5 309.7702,-173.2544 322.5535,-169.6452 333.8042,-166.4518"/>
<polygon fill="#191970" stroke="#191970" points="274.1809,-179.4775 265.4601,-185.494 276.0294,-186.229 274.1809,-179.4775"/>
</g>
<!-- Node9&#45;&gt;Node8 -->
<g id="edge11" class="edge">
<title>Node9&#45;&gt;Node8</title>
<path fill="none" stroke="#191970" d="M304.2282,-194.5C314.7991,-194.5 325.1834,-194.5 334.3008,-194.5"/>
<polygon fill="#191970" stroke="#191970" points="304.0714,-191.0001 294.0713,-194.5 304.0713,-198.0001 304.0714,-191.0001"/>
</g>
<!-- Node10&#45;&gt;Node6 -->
<g id="edge13" class="edge">
<title>Node10&#45;&gt;Node6</title>
<path fill="none" stroke="#191970" d="M308.2302,-157.5C317.2684,-157.5 326.0673,-157.5 333.9393,-157.5"/>
<polygon fill="#191970" stroke="#191970" points="307.9607,-154.0001 297.9607,-157.5 307.9607,-161.0001 307.9607,-154.0001"/>
</g>
<!-- Node10&#45;&gt;Node8 -->
<g id="edge14" class="edge">
<title>Node10&#45;&gt;Node8</title>
<path fill="none" stroke="#191970" d="M274.6242,-169.2849C294.0323,-174.6893 316.6173,-180.9783 334.3766,-185.9236"/>
<polygon fill="#191970" stroke="#191970" points="275.3793,-165.8621 264.8069,-166.5512 273.5015,-172.6055 275.3793,-165.8621"/>
</g>
<!-- Node13&#45;&gt;Node6 -->
<g id="edge18" class="edge">
<title>Node13&#45;&gt;Node6</title>
<path fill="none" stroke="#191970" d="M285.1555,-96.0602C289.6693,-97.932 294.0549,-100.0674 298.1123,-102.5 317.7905,-114.2979 316.0169,-125.3941 334.1123,-139.5 338.2416,-142.7189 343.0056,-145.7634 347.5432,-148.4014"/>
<polygon fill="#191970" stroke="#191970" points="286.3674,-92.7768 275.7744,-92.5776 283.9311,-99.3392 286.3674,-92.7768"/>
</g>
<!-- Node14 -->
<g id="node14" class="node">
<title>Node14</title>
<g id="a_node14"><a xlink:href="Conti2D_8h_a7b6bfe9f5b32bc1a62005196d84edfde.html#a7b6bfe9f5b32bc1a62005196d84edfde" target="_top" xlink:title="UWC_p2p">
<polygon fill="#ffffff" stroke="#000000" points="334.1123,-74.5 334.1123,-92.5 396.2402,-92.5 396.2402,-74.5 334.1123,-74.5"/>
<text text-anchor="middle" x="365.1763" y="-80.5" font-family="Helvetica,sans-Serif" font-size="10.00" fill="#000000">UWC_p2p</text>
</a>
</g>
</g>
<!-- Node13&#45;&gt;Node14 -->
<g id="edge19" class="edge">
<title>Node13&#45;&gt;Node14</title>
<path fill="none" stroke="#191970" d="M295.3624,-83.5C308.7465,-83.5 322.3138,-83.5 333.8841,-83.5"/>
<polygon fill="#191970" stroke="#191970" points="295.1994,-80.0001 285.1994,-83.5 295.1993,-87.0001 295.1994,-80.0001"/>
</g>
<!-- Node14&#45;&gt;Node7 -->
<g id="edge20" class="edge">
<title>Node14&#45;&gt;Node7</title>
<path fill="none" stroke="#191970" d="M389.053,-97.9974C391.4872,-99.5073 393.9175,-101.0278 396.2402,-102.5 410.2841,-111.4015 426.1454,-121.859 437.1833,-129.2024"/>
<polygon fill="#191970" stroke="#191970" points="390.7564,-94.9361 380.4043,-92.6808 387.0905,-100.8995 390.7564,-94.9361"/>
</g>
<!-- Node15&#45;&gt;Node8 -->
<g id="edge22" class="edge">
<title>Node15&#45;&gt;Node8</title>
<path fill="none" stroke="#191970" d="M285.1555,-133.0602C289.6693,-134.932 294.0549,-137.0674 298.1123,-139.5 317.7905,-151.2979 316.0169,-162.3941 334.1123,-176.5 338.2416,-179.7189 343.0056,-182.7634 347.5432,-185.4014"/>
<polygon fill="#191970" stroke="#191970" points="286.3674,-129.7768 275.7744,-129.5776 283.9311,-136.3392 286.3674,-129.7768"/>
</g>
<!-- Node16 -->
<g id="node16" class="node">
<title>Node16</title>
<g id="a_node16"><a xlink:href="Conti2D_8h_af8adb87017663774bfd342b39facc828.html#af8adb87017663774bfd342b39facc828" target="_top" xlink:title="Upward continuation from plane to surface. ">
<polygon fill="#ffffff" stroke="#000000" points="334.3931,-111.5 334.3931,-129.5 395.9595,-129.5 395.9595,-111.5 334.3931,-111.5"/>
<text text-anchor="middle" x="365.1763" y="-117.5" font-family="Helvetica,sans-Serif" font-size="10.00" fill="#000000">UWC_p2s</text>
</a>
</g>
</g>
<!-- Node15&#45;&gt;Node16 -->
<g id="edge23" class="edge">
<title>Node15&#45;&gt;Node16</title>
<path fill="none" stroke="#191970" d="M295.0989,-120.5C308.6443,-120.5 322.392,-120.5 334.0809,-120.5"/>
<polygon fill="#191970" stroke="#191970" points="294.8176,-117.0001 284.8176,-120.5 294.8175,-124.0001 294.8176,-117.0001"/>
</g>
<!-- Node16&#45;&gt;Node7 -->
<g id="edge24" class="edge">
<title>Node16&#45;&gt;Node7</title>
<path fill="none" stroke="#191970" d="M406.2622,-129.1093C415.3019,-131.0035 424.4519,-132.9208 432.1066,-134.5248"/>
<polygon fill="#191970" stroke="#191970" points="406.6939,-125.6238 396.1886,-126.9984 405.2582,-132.475 406.6939,-125.6238"/>
</g>
</g>
</svg>
