<?xml version="1.0" encoding="UTF-8" standalone="no"?>
<!DOCTYPE svg PUBLIC "-//W3C//DTD SVG 1.1//EN"
 "http://www.w3.org/Graphics/SVG/1.1/DTD/svg11.dtd">
<!-- Generated by graphviz version 2.40.1 (20161225.0304)
 -->
<!-- Title: DWC_p2p Pages: 1 -->
<svg width="404pt" height="286pt"
 viewBox="0.00 0.00 403.68 286.00" xmlns="http://www.w3.org/2000/svg" xmlns:xlink="http://www.w3.org/1999/xlink">
<g id="graph0" class="graph" transform="scale(1 1) rotate(0) translate(4 282)">
<title>DWC_p2p</title>
<polygon fill="#ffffff" stroke="transparent" points="-4,4 -4,-282 399.6787,-282 399.6787,4 -4,4"/>
<!-- Node0 -->
<g id="node1" class="node">
<title>Node0</title>
<polygon fill="#bfbfbf" stroke="#000000" points="0,-129.5 0,-147.5 62.1279,-147.5 62.1279,-129.5 0,-129.5"/>
<text text-anchor="middle" x="31.064" y="-135.5" font-family="Helvetica,sans-Serif" font-size="10.00" fill="#000000">DWC_p2p</text>
</g>
<!-- Node1 -->
<g id="node2" class="node">
<title>Node1</title>
<g id="a_node2"><a xlink:href="Conti2D_8cpp_a6516cfeb71abcf844b32f101e5f77a71.html#a6516cfeb71abcf844b32f101e5f77a71" target="_top" xlink:title="DWC_s2p_CGLS">
<polygon fill="#ffffff" stroke="#000000" points="116.4775,-148.5 116.4775,-166.5 210.8369,-166.5 210.8369,-148.5 116.4775,-148.5"/>
<text text-anchor="middle" x="163.6572" y="-154.5" font-family="Helvetica,sans-Serif" font-size="10.00" fill="#000000">DWC_s2p_CGLS</text>
</a>
</g>
</g>
<!-- Node0&#45;&gt;Node1 -->
<g id="edge1" class="edge">
<title>Node0&#45;&gt;Node1</title>
<path fill="none" stroke="#191970" d="M62.1512,-142.9547C75.2737,-144.8351 90.9889,-147.087 106.0893,-149.2508"/>
<polygon fill="#191970" stroke="#191970" points="106.0104,-152.7752 116.4058,-150.7291 107.0034,-145.8459 106.0104,-152.7752"/>
</g>
<!-- Node3 -->
<g id="node4" class="node">
<title>Node3</title>
<g id="a_node4"><a xlink:href="Conti2D_8cpp_ab76adf263893ac28772283c5a00b964c.html#ab76adf263893ac28772283c5a00b964c" target="_top" xlink:title="Save a Surfer Grid data to file. ">
<polygon fill="#ffffff" stroke="#000000" points="302.7012,-148.5 302.7012,-166.5 358.1641,-166.5 358.1641,-148.5 302.7012,-148.5"/>
<text text-anchor="middle" x="330.4326" y="-154.5" font-family="Helvetica,sans-Serif" font-size="10.00" fill="#000000">SaveGrd</text>
</a>
</g>
</g>
<!-- Node0&#45;&gt;Node3 -->
<g id="edge25" class="edge">
<title>Node0&#45;&gt;Node3</title>
<path fill="none" stroke="#191970" d="M43.1119,-147.629C55.9522,-156.7375 77.2668,-170.1271 98.1279,-175.5 164.9564,-192.7121 245.8793,-178.9905 292.4342,-167.9198"/>
<polygon fill="#191970" stroke="#191970" points="293.5139,-171.2585 302.3863,-165.468 291.8394,-164.4617 293.5139,-171.2585"/>
</g>
<!-- Node7 -->
<g id="node8" class="node">
<title>Node7</title>
<g id="a_node8"><a xlink:href="Conti2D_8cpp_a0a60bfe4f254fa10e96fabb22a125343.html#a0a60bfe4f254fa10e96fabb22a125343" target="_top" xlink:title="DWC_s2p_ItegrationIter">
<polygon fill="#ffffff" stroke="#000000" points="102.022,-111.5 102.022,-129.5 225.2925,-129.5 225.2925,-111.5 102.022,-111.5"/>
<text text-anchor="middle" x="163.6572" y="-117.5" font-family="Helvetica,sans-Serif" font-size="10.00" fill="#000000">DWC_s2p_ItegrationIter</text>
</a>
</g>
</g>
<!-- Node0&#45;&gt;Node7 -->
<g id="edge7" class="edge">
<title>Node0&#45;&gt;Node7</title>
<path fill="none" stroke="#191970" d="M62.1512,-134.2798C71.2001,-133.0514 81.4819,-131.6556 91.9449,-130.2352"/>
<polygon fill="#191970" stroke="#191970" points="92.5592,-133.684 101.9975,-128.8705 91.6175,-126.7476 92.5592,-133.684"/>
</g>
<!-- Node10 -->
<g id="node11" class="node">
<title>Node10</title>
<g id="a_node11"><a xlink:href="Conti2D_8cpp_a7730328c8e132ff0a35142a6d31bac18.html#a7730328c8e132ff0a35142a6d31bac18" target="_top" xlink:title="DWC_s2p_LandweberIter">
<polygon fill="#ffffff" stroke="#000000" points="98.1279,-74.5 98.1279,-92.5 229.1865,-92.5 229.1865,-74.5 98.1279,-74.5"/>
<text text-anchor="middle" x="163.6572" y="-80.5" font-family="Helvetica,sans-Serif" font-size="10.00" fill="#000000">DWC_s2p_LandweberIter</text>
</a>
</g>
</g>
<!-- Node0&#45;&gt;Node10 -->
<g id="edge14" class="edge">
<title>Node0&#45;&gt;Node10</title>
<path fill="none" stroke="#191970" d="M45.2275,-129.3913C58.4767,-121.1886 79.0342,-109.262 98.1279,-101.5 103.5192,-99.3083 109.2658,-97.293 115.0307,-95.4673"/>
<polygon fill="#191970" stroke="#191970" points="116.1136,-98.7967 124.6902,-92.5764 114.1065,-92.0906 116.1136,-98.7967"/>
</g>
<!-- Node11 -->
<g id="node12" class="node">
<title>Node11</title>
<g id="a_node12"><a xlink:href="Conti2D_8cpp_a6f44a06f2b4926f66481fccf277bea50.html#a6f44a06f2b4926f66481fccf277bea50" target="_top" xlink:title="Getkernel_p2p_new">
<polygon fill="#ffffff" stroke="#000000" points="110.9038,-224.5 110.9038,-242.5 216.4106,-242.5 216.4106,-224.5 110.9038,-224.5"/>
<text text-anchor="middle" x="163.6572" y="-230.5" font-family="Helvetica,sans-Serif" font-size="10.00" fill="#000000">Getkernel_p2p_new</text>
</a>
</g>
</g>
<!-- Node0&#45;&gt;Node11 -->
<g id="edge21" class="edge">
<title>Node0&#45;&gt;Node11</title>
<path fill="none" stroke="#191970" d="M37.457,-147.631C48.3222,-162.5318 71.7908,-192.1509 98.1279,-209.5 104.9613,-214.0014 112.7502,-217.7981 120.5147,-220.9486"/>
<polygon fill="#191970" stroke="#191970" points="119.3155,-224.2369 129.9077,-224.4751 121.7759,-217.6835 119.3155,-224.2369"/>
</g>
<!-- Node13 -->
<g id="node14" class="node">
<title>Node13</title>
<g id="a_node14"><a xlink:href="Conti2D_8cpp_a2c90cdea3ca11177ba34c14a3b0a00cb.html#a2c90cdea3ca11177ba34c14a3b0a00cb" target="_top" xlink:title="Read a Surfer Grid data from file. ">
<polygon fill="#ffffff" stroke="#000000" points="135.3691,-37.5 135.3691,-55.5 191.9453,-55.5 191.9453,-37.5 135.3691,-37.5"/>
<text text-anchor="middle" x="163.6572" y="-43.5" font-family="Helvetica,sans-Serif" font-size="10.00" fill="#000000">ReadGrd</text>
</a>
</g>
</g>
<!-- Node0&#45;&gt;Node13 -->
<g id="edge24" class="edge">
<title>Node0&#45;&gt;Node13</title>
<path fill="none" stroke="#191970" d="M36.8683,-129.2241C47.209,-113.479 70.3615,-81.5735 98.1279,-64.5 106.3203,-59.4625 115.9395,-55.8081 125.2463,-53.1667"/>
<polygon fill="#191970" stroke="#191970" points="126.2948,-56.5121 135.1403,-50.6805 124.5888,-49.7231 126.2948,-56.5121"/>
</g>
<!-- Node2 -->
<g id="node3" class="node">
<title>Node2</title>
<g id="a_node3"><a xlink:href="Conti2D_8cpp_a98827c14ed7072c96834f20205c7a916.html#a98827c14ed7072c96834f20205c7a916" target="_top" xlink:title="Norm2">
<polygon fill="#ffffff" stroke="#000000" points="307.4302,-111.5 307.4302,-129.5 353.4351,-129.5 353.4351,-111.5 307.4302,-111.5"/>
<text text-anchor="middle" x="330.4326" y="-117.5" font-family="Helvetica,sans-Serif" font-size="10.00" fill="#000000">Norm2</text>
</a>
</g>
</g>
<!-- Node1&#45;&gt;Node2 -->
<g id="edge2" class="edge">
<title>Node1&#45;&gt;Node2</title>
<path fill="none" stroke="#191970" d="M204.4551,-148.4488C232.8892,-142.1405 270.3545,-133.8287 297.0185,-127.9131"/>
<polygon fill="#191970" stroke="#191970" points="298.015,-131.2772 307.0195,-125.6943 296.4988,-124.4434 298.015,-131.2772"/>
</g>
<!-- Node1&#45;&gt;Node3 -->
<g id="edge3" class="edge">
<title>Node1&#45;&gt;Node3</title>
<path fill="none" stroke="#191970" d="M211.0023,-157.5C236.6717,-157.5 267.9838,-157.5 292.1057,-157.5"/>
<polygon fill="#191970" stroke="#191970" points="292.3006,-161.0001 302.3006,-157.5 292.3006,-154.0001 292.3006,-161.0001"/>
</g>
<!-- Node4 -->
<g id="node5" class="node">
<title>Node4</title>
<g id="a_node5"><a xlink:href="classMultiProgressBar_a58eef55ad6d5c7d769b3a402a2ef7b85.html#a58eef55ad6d5c7d769b3a402a2ef7b85" target="_top" xlink:title="MultiProgressBar::Update">
<polygon fill="#ffffff" stroke="#000000" points="265.1865,-185.5 265.1865,-203.5 395.6787,-203.5 395.6787,-185.5 265.1865,-185.5"/>
<text text-anchor="middle" x="330.4326" y="-191.5" font-family="Helvetica,sans-Serif" font-size="10.00" fill="#000000">MultiProgressBar::Update</text>
</a>
</g>
</g>
<!-- Node1&#45;&gt;Node4 -->
<g id="edge4" class="edge">
<title>Node1&#45;&gt;Node4</title>
<path fill="none" stroke="#191970" d="M204.4551,-166.5512C227.153,-171.5869 255.6057,-177.8992 279.7251,-183.2503"/>
<polygon fill="#191970" stroke="#191970" points="279.2465,-186.7291 289.7673,-185.4782 280.7627,-179.8953 279.2465,-186.7291"/>
</g>
<!-- Node5 -->
<g id="node6" class="node">
<title>Node5</title>
<g id="a_node6"><a xlink:href="Conti2D_8cpp_a632c1e4efbb7e9b1aaf04db729e69394.html#a632c1e4efbb7e9b1aaf04db729e69394" target="_top" xlink:title="UWC_Gij">
<polygon fill="#ffffff" stroke="#000000" points="301.6001,-74.5 301.6001,-92.5 359.2651,-92.5 359.2651,-74.5 301.6001,-74.5"/>
<text text-anchor="middle" x="330.4326" y="-80.5" font-family="Helvetica,sans-Serif" font-size="10.00" fill="#000000">UWC_Gij</text>
</a>
</g>
</g>
<!-- Node1&#45;&gt;Node5 -->
<g id="edge5" class="edge">
<title>Node1&#45;&gt;Node5</title>
<path fill="none" stroke="#191970" d="M206.9441,-148.4024C214.6509,-145.8328 222.3822,-142.5848 229.1865,-138.5 248.858,-126.6909 245.4386,-113.1807 265.1865,-101.5 273.2823,-96.7114 282.6944,-93.1576 291.8082,-90.5345"/>
<polygon fill="#191970" stroke="#191970" points="292.692,-93.9212 301.504,-88.0391 290.9472,-87.1421 292.692,-93.9212"/>
</g>
<!-- Node6 -->
<g id="node7" class="node">
<title>Node6</title>
<g id="a_node7"><a xlink:href="Conti2D_8cpp_a9d30373a0ff29e4f743eaf5e4cbc3cbf.html#a9d30373a0ff29e4f743eaf5e4cbc3cbf" target="_top" xlink:title="UWC_Gji">
<polygon fill="#ffffff" stroke="#000000" points="301.6001,-222.5 301.6001,-240.5 359.2651,-240.5 359.2651,-222.5 301.6001,-222.5"/>
<text text-anchor="middle" x="330.4326" y="-228.5" font-family="Helvetica,sans-Serif" font-size="10.00" fill="#000000">UWC_Gji</text>
</a>
</g>
</g>
<!-- Node1&#45;&gt;Node6 -->
<g id="edge6" class="edge">
<title>Node1&#45;&gt;Node6</title>
<path fill="none" stroke="#191970" d="M177.9727,-166.5292C197.2079,-178.36 232.7378,-199.165 265.1865,-212.5 273.5908,-215.9538 282.8435,-219.0491 291.6735,-221.689"/>
<polygon fill="#191970" stroke="#191970" points="290.8185,-225.0848 301.3956,-224.4709 292.7443,-218.3549 290.8185,-225.0848"/>
</g>
<!-- Node7&#45;&gt;Node2 -->
<g id="edge8" class="edge">
<title>Node7&#45;&gt;Node2</title>
<path fill="none" stroke="#191970" d="M225.7582,-120.5C250.0482,-120.5 276.9208,-120.5 297.3558,-120.5"/>
<polygon fill="#191970" stroke="#191970" points="297.4074,-124.0001 307.4074,-120.5 297.4073,-117.0001 297.4074,-124.0001"/>
</g>
<!-- Node7&#45;&gt;Node3 -->
<g id="edge11" class="edge">
<title>Node7&#45;&gt;Node3</title>
<path fill="none" stroke="#191970" d="M204.4551,-129.5512C231.3568,-135.5195 266.3425,-143.2813 292.6165,-149.1103"/>
<polygon fill="#191970" stroke="#191970" points="292.0591,-152.5717 302.5798,-151.3207 293.5753,-145.7378 292.0591,-152.5717"/>
</g>
<!-- Node7&#45;&gt;Node4 -->
<g id="edge12" class="edge">
<title>Node7&#45;&gt;Node4</title>
<path fill="none" stroke="#191970" d="M209.0121,-129.5495C216.0261,-131.9015 222.9902,-134.8395 229.1865,-138.5 248.9409,-150.1698 245.5219,-163.6795 265.1865,-175.5 269.2691,-177.9541 273.6869,-180.1067 278.2325,-181.9918"/>
<polygon fill="#191970" stroke="#191970" points="277.0833,-185.2985 287.6763,-185.4967 279.519,-178.7359 277.0833,-185.2985"/>
</g>
<!-- Node7&#45;&gt;Node5 -->
<g id="edge13" class="edge">
<title>Node7&#45;&gt;Node5</title>
<path fill="none" stroke="#191970" d="M204.4551,-111.4488C231.0163,-105.556 265.4581,-97.9149 291.6146,-92.112"/>
<polygon fill="#191970" stroke="#191970" points="292.5506,-95.4895 301.5551,-89.9066 291.0344,-88.6557 292.5506,-95.4895"/>
</g>
<!-- Node8 -->
<g id="node9" class="node">
<title>Node8</title>
<g id="a_node9"><a xlink:href="Conti2D_8cpp_a43fc3af75243a047d61aadea31c0fa9c.html#a43fc3af75243a047d61aadea31c0fa9c" target="_top" xlink:title="Get 2nd norm of the gradient of a grid data. ">
<polygon fill="#ffffff" stroke="#000000" points="285.4722,-37.5 285.4722,-55.5 375.3931,-55.5 375.3931,-37.5 285.4722,-37.5"/>
<text text-anchor="middle" x="330.4326" y="-43.5" font-family="Helvetica,sans-Serif" font-size="10.00" fill="#000000">Norm2_Gradient</text>
</a>
</g>
</g>
<!-- Node7&#45;&gt;Node8 -->
<g id="edge9" class="edge">
<title>Node7&#45;&gt;Node8</title>
<path fill="none" stroke="#191970" d="M206.9441,-111.4024C214.6509,-108.8328 222.3822,-105.5848 229.1865,-101.5 248.858,-89.6909 245.4386,-76.1807 265.1865,-64.5 268.5604,-62.5044 272.163,-60.7232 275.8772,-59.1344"/>
<polygon fill="#191970" stroke="#191970" points="277.1656,-62.3891 285.2735,-55.5691 274.6822,-55.8444 277.1656,-62.3891"/>
</g>
<!-- Node9 -->
<g id="node10" class="node">
<title>Node9</title>
<g id="a_node10"><a xlink:href="Conti2D_8cpp_a88f10a86b8808047787d2df5e8cbcb72.html#a88f10a86b8808047787d2df5e8cbcb72" target="_top" xlink:title="Get file name from a full path. ">
<polygon fill="#ffffff" stroke="#000000" points="279.9131,-.5 279.9131,-18.5 380.9521,-18.5 380.9521,-.5 279.9131,-.5"/>
<text text-anchor="middle" x="330.4326" y="-6.5" font-family="Helvetica,sans-Serif" font-size="10.00" fill="#000000">Path_GetFileName</text>
</a>
</g>
</g>
<!-- Node7&#45;&gt;Node9 -->
<g id="edge10" class="edge">
<title>Node7&#45;&gt;Node9</title>
<path fill="none" stroke="#191970" d="M212.5323,-111.3774C218.551,-108.8492 224.2948,-105.6212 229.1865,-101.5 257.1574,-77.935 237.0627,-50.8823 265.1865,-27.5 266.9852,-26.0046 268.8986,-24.6329 270.8981,-23.3747"/>
<polygon fill="#191970" stroke="#191970" points="272.8839,-26.2862 280.1269,-18.5539 269.6428,-20.0817 272.8839,-26.2862"/>
</g>
<!-- Node10&#45;&gt;Node2 -->
<g id="edge15" class="edge">
<title>Node10&#45;&gt;Node2</title>
<path fill="none" stroke="#191970" d="M204.4551,-92.5512C232.8892,-98.8595 270.3545,-107.1713 297.0185,-113.0869"/>
<polygon fill="#191970" stroke="#191970" points="296.4988,-116.5566 307.0195,-115.3057 298.015,-109.7228 296.4988,-116.5566"/>
</g>
<!-- Node10&#45;&gt;Node3 -->
<g id="edge18" class="edge">
<title>Node10&#45;&gt;Node3</title>
<path fill="none" stroke="#191970" d="M209.0121,-92.5495C216.0261,-94.9015 222.9902,-97.8395 229.1865,-101.5 248.9409,-113.1698 245.5219,-126.6795 265.1865,-138.5 273.5034,-143.4993 283.2112,-147.2475 292.5576,-150.0324"/>
<polygon fill="#191970" stroke="#191970" points="291.9095,-153.4822 302.4746,-152.6899 293.7214,-146.7207 291.9095,-153.4822"/>
</g>
<!-- Node10&#45;&gt;Node4 -->
<g id="edge19" class="edge">
<title>Node10&#45;&gt;Node4</title>
<path fill="none" stroke="#191970" d="M214.1799,-92.5296C219.5936,-94.8676 224.7392,-97.8066 229.1865,-101.5 257.3233,-124.8667 237.2293,-151.9188 265.1865,-175.5 267.5891,-177.5265 270.1981,-179.3369 272.9448,-180.9544"/>
<polygon fill="#191970" stroke="#191970" points="271.5863,-184.1874 282.1005,-185.4915 274.6944,-177.9152 271.5863,-184.1874"/>
</g>
<!-- Node10&#45;&gt;Node5 -->
<g id="edge20" class="edge">
<title>Node10&#45;&gt;Node5</title>
<path fill="none" stroke="#191970" d="M229.5713,-83.5C250.523,-83.5 273.0156,-83.5 291.4317,-83.5"/>
<polygon fill="#191970" stroke="#191970" points="291.4838,-87.0001 301.4838,-83.5 291.4837,-80.0001 291.4838,-87.0001"/>
</g>
<!-- Node10&#45;&gt;Node8 -->
<g id="edge16" class="edge">
<title>Node10&#45;&gt;Node8</title>
<path fill="none" stroke="#191970" d="M204.4551,-74.4488C227.153,-69.4131 255.6057,-63.1008 279.7251,-57.7497"/>
<polygon fill="#191970" stroke="#191970" points="280.7627,-61.1047 289.7673,-55.5218 279.2465,-54.2709 280.7627,-61.1047"/>
</g>
<!-- Node10&#45;&gt;Node9 -->
<g id="edge17" class="edge">
<title>Node10&#45;&gt;Node9</title>
<path fill="none" stroke="#191970" d="M206.9441,-74.4024C214.6509,-71.8328 222.3822,-68.5848 229.1865,-64.5 248.858,-52.6909 245.4386,-39.1807 265.1865,-27.5 268.5604,-25.5044 272.163,-23.7232 275.8772,-22.1344"/>
<polygon fill="#191970" stroke="#191970" points="277.1656,-25.3891 285.2735,-18.5691 274.6822,-18.8444 277.1656,-25.3891"/>
</g>
<!-- Node11&#45;&gt;Node4 -->
<g id="edge23" class="edge">
<title>Node11&#45;&gt;Node4</title>
<path fill="none" stroke="#191970" d="M202.338,-224.4546C226.0387,-218.9123 256.5802,-211.7702 281.896,-205.8502"/>
<polygon fill="#191970" stroke="#191970" points="282.7327,-209.249 291.673,-203.5638 281.1387,-202.4329 282.7327,-209.249"/>
</g>
<!-- Node12 -->
<g id="node13" class="node">
<title>Node12</title>
<g id="a_node13"><a xlink:href="Conti2D_8cpp_a4bb34ae88cf16e429505f9eb746384cd.html#a4bb34ae88cf16e429505f9eb746384cd" target="_top" xlink:title="GetPmnij">
<polygon fill="#ffffff" stroke="#000000" points="301.8711,-259.5 301.8711,-277.5 358.9941,-277.5 358.9941,-259.5 301.8711,-259.5"/>
<text text-anchor="middle" x="330.4326" y="-265.5" font-family="Helvetica,sans-Serif" font-size="10.00" fill="#000000">GetPmnij</text>
</a>
</g>
</g>
<!-- Node11&#45;&gt;Node12 -->
<g id="edge22" class="edge">
<title>Node11&#45;&gt;Node12</title>
<path fill="none" stroke="#191970" d="M206.606,-242.5134C232.9019,-248.0319 266.2768,-255.0361 291.7499,-260.3819"/>
<polygon fill="#191970" stroke="#191970" points="291.2839,-263.8603 301.7896,-262.4889 292.7217,-257.0095 291.2839,-263.8603"/>
</g>
</g>
</svg>
