<?xml version="1.0" encoding="UTF-8" standalone="no"?>
<!DOCTYPE svg PUBLIC "-//W3C//DTD SVG 1.1//EN"
 "http://www.w3.org/Graphics/SVG/1.1/DTD/svg11.dtd">
<!-- Generated by graphviz version 2.40.1 (20161225.0304)
 -->
<!-- Title: Conti2D.cpp Pages: 1 -->
<svg width="762pt" height="192pt"
 viewBox="0.00 0.00 762.29 192.00" xmlns="http://www.w3.org/2000/svg" xmlns:xlink="http://www.w3.org/1999/xlink">
<g id="graph0" class="graph" transform="scale(1 1) rotate(0) translate(4 188)">
<title>Conti2D.cpp</title>
<polygon fill="#ffffff" stroke="transparent" points="-4,4 -4,-188 758.293,-188 758.293,4 -4,4"/>
<!-- Node0 -->
<g id="node1" class="node">
<title>Node0</title>
<polygon fill="#bfbfbf" stroke="#000000" points="326.2661,-165.5 326.2661,-183.5 397.2954,-183.5 397.2954,-165.5 326.2661,-165.5"/>
<text text-anchor="middle" x="361.7808" y="-171.5" font-family="Helvetica,sans-Serif" font-size="10.00" fill="#000000">Conti2D.cpp</text>
</g>
<!-- Node1 -->
<g id="node2" class="node">
<title>Node1</title>
<g id="a_node2"><a xlink:href="Conti2D_8h.html" target="_top" xlink:title="Conti2D.h">
<polygon fill="#ffffff" stroke="#000000" points="331.5469,-110.5 331.5469,-128.5 392.0146,-128.5 392.0146,-110.5 331.5469,-110.5"/>
<text text-anchor="middle" x="361.7808" y="-116.5" font-family="Helvetica,sans-Serif" font-size="10.00" fill="#000000">Conti2D.h</text>
</a>
</g>
</g>
<!-- Node0&#45;&gt;Node1 -->
<g id="edge1" class="edge">
<title>Node0&#45;&gt;Node1</title>
<path fill="none" stroke="#191970" d="M361.7808,-165.4179C361.7808,-158.2164 361.7808,-147.8962 361.7808,-138.8632"/>
<polygon fill="#191970" stroke="#191970" points="365.2809,-138.7794 361.7808,-128.7795 358.2809,-138.7795 365.2809,-138.7794"/>
</g>
<!-- Node2 -->
<g id="node3" class="node">
<title>Node2</title>
<polygon fill="#ffffff" stroke="#bfbfbf" points="0,-55.5 0,-73.5 51.5615,-73.5 51.5615,-55.5 0,-55.5"/>
<text text-anchor="middle" x="25.7808" y="-61.5" font-family="Helvetica,sans-Serif" font-size="10.00" fill="#000000">sstream</text>
</g>
<!-- Node1&#45;&gt;Node2 -->
<g id="edge2" class="edge">
<title>Node1&#45;&gt;Node2</title>
<path fill="none" stroke="#191970" d="M331.3867,-115.6516C277.6007,-108.6583 162.2249,-92.8334 65.7808,-74 64.5198,-73.7538 63.2384,-73.4952 61.9457,-73.2272"/>
<polygon fill="#191970" stroke="#191970" points="62.4827,-69.7619 51.965,-71.0382 60.983,-76.5994 62.4827,-69.7619"/>
</g>
<!-- Node3 -->
<g id="node4" class="node">
<title>Node3</title>
<polygon fill="#ffffff" stroke="#bfbfbf" points="462.6084,-.5 462.6084,-18.5 516.9531,-18.5 516.9531,-.5 462.6084,-.5"/>
<text text-anchor="middle" x="489.7808" y="-6.5" font-family="Helvetica,sans-Serif" font-size="10.00" fill="#000000">iostream</text>
</g>
<!-- Node1&#45;&gt;Node3 -->
<g id="edge3" class="edge">
<title>Node1&#45;&gt;Node3</title>
<path fill="none" stroke="#191970" d="M392.0673,-113.7996C415.9888,-107.7927 448.5976,-96.027 468.7808,-74 480.2062,-61.5308 485.4214,-42.7538 487.7984,-28.6699"/>
<polygon fill="#191970" stroke="#191970" points="491.2896,-28.97 489.1607,-18.5913 484.3527,-28.0323 491.2896,-28.97"/>
</g>
<!-- Node4 -->
<g id="node5" class="node">
<title>Node4</title>
<polygon fill="#ffffff" stroke="#bfbfbf" points="108.1108,-55.5 108.1108,-73.5 157.4507,-73.5 157.4507,-55.5 108.1108,-55.5"/>
<text text-anchor="middle" x="132.7808" y="-61.5" font-family="Helvetica,sans-Serif" font-size="10.00" fill="#000000">fstream</text>
</g>
<!-- Node1&#45;&gt;Node4 -->
<g id="edge4" class="edge">
<title>Node1&#45;&gt;Node4</title>
<path fill="none" stroke="#191970" d="M331.4417,-112.9722C294.7055,-104.9558 230.742,-90.6398 167.3613,-74.3255"/>
<polygon fill="#191970" stroke="#191970" points="168.1671,-70.9188 157.6088,-71.7978 166.4108,-77.6949 168.1671,-70.9188"/>
</g>
<!-- Node5 -->
<g id="node6" class="node">
<title>Node5</title>
<polygon fill="#ffffff" stroke="#bfbfbf" points="175.271,-55.5 175.271,-73.5 226.2905,-73.5 226.2905,-55.5 175.271,-55.5"/>
<text text-anchor="middle" x="200.7808" y="-61.5" font-family="Helvetica,sans-Serif" font-size="10.00" fill="#000000">iomanip</text>
</g>
<!-- Node1&#45;&gt;Node5 -->
<g id="edge5" class="edge">
<title>Node1&#45;&gt;Node5</title>
<path fill="none" stroke="#191970" d="M335.1949,-110.4179C308.0729,-101.1526 265.8395,-86.725 235.9611,-76.5181"/>
<polygon fill="#191970" stroke="#191970" points="236.9363,-73.1527 226.3417,-73.232 234.6733,-79.7769 236.9363,-73.1527"/>
</g>
<!-- Node6 -->
<g id="node7" class="node">
<title>Node6</title>
<polygon fill="#ffffff" stroke="#bfbfbf" points="366.165,-.5 366.165,-18.5 409.3965,-18.5 409.3965,-.5 366.165,-.5"/>
<text text-anchor="middle" x="387.7808" y="-6.5" font-family="Helvetica,sans-Serif" font-size="10.00" fill="#000000">vector</text>
</g>
<!-- Node1&#45;&gt;Node6 -->
<g id="edge6" class="edge">
<title>Node1&#45;&gt;Node6</title>
<path fill="none" stroke="#191970" d="M363.9085,-110.4982C368.1174,-92.6913 377.5882,-52.6225 383.2541,-28.6515"/>
<polygon fill="#191970" stroke="#191970" points="386.7295,-29.1631 385.6237,-18.6261 379.9172,-27.5529 386.7295,-29.1631"/>
</g>
<!-- Node7 -->
<g id="node8" class="node">
<title>Node7</title>
<polygon fill="#ffffff" stroke="#bfbfbf" points="311.3843,-55.5 311.3843,-73.5 360.1772,-73.5 360.1772,-55.5 311.3843,-55.5"/>
<text text-anchor="middle" x="335.7808" y="-61.5" font-family="Helvetica,sans-Serif" font-size="10.00" fill="#000000">string.h</text>
</g>
<!-- Node1&#45;&gt;Node7 -->
<g id="edge7" class="edge">
<title>Node1&#45;&gt;Node7</title>
<path fill="none" stroke="#191970" d="M357.4874,-110.4179C353.9708,-102.9789 348.8811,-92.2123 344.514,-82.9742"/>
<polygon fill="#191970" stroke="#191970" points="347.6055,-81.3243 340.1674,-73.7795 341.277,-84.316 347.6055,-81.3243"/>
</g>
<!-- Node8 -->
<g id="node9" class="node">
<title>Node8</title>
<polygon fill="#ffffff" stroke="#bfbfbf" points="119.4951,-.5 119.4951,-18.5 166.0664,-18.5 166.0664,-.5 119.4951,-.5"/>
<text text-anchor="middle" x="142.7808" y="-6.5" font-family="Helvetica,sans-Serif" font-size="10.00" fill="#000000">math.h</text>
</g>
<!-- Node1&#45;&gt;Node8 -->
<g id="edge8" class="edge">
<title>Node1&#45;&gt;Node8</title>
<path fill="none" stroke="#191970" d="M331.4731,-118.9419C268.7838,-117.0798 128.2504,-109.0058 98.7808,-74 85.4267,-58.1373 103.7418,-38.2021 120.6472,-24.725"/>
<polygon fill="#191970" stroke="#191970" points="122.8023,-27.4835 128.688,-18.6739 118.5932,-21.8904 122.8023,-27.4835"/>
</g>
<!-- Node9 -->
<g id="node10" class="node">
<title>Node9</title>
<polygon fill="#ffffff" stroke="#bfbfbf" points="415.8843,-55.5 415.8843,-73.5 459.6772,-73.5 459.6772,-55.5 415.8843,-55.5"/>
<text text-anchor="middle" x="437.7808" y="-61.5" font-family="Helvetica,sans-Serif" font-size="10.00" fill="#000000">omp.h</text>
</g>
<!-- Node1&#45;&gt;Node9 -->
<g id="edge9" class="edge">
<title>Node1&#45;&gt;Node9</title>
<path fill="none" stroke="#191970" d="M374.3306,-110.4179C385.8819,-102.0584 403.24,-89.4966 416.8823,-79.6239"/>
<polygon fill="#191970" stroke="#191970" points="419.163,-82.2938 425.2123,-73.5956 415.0591,-76.6229 419.163,-82.2938"/>
</g>
<!-- Node10 -->
<g id="node11" class="node">
<title>Node10</title>
<g id="a_node11"><a xlink:href="FFTN_8h.html" target="_top" xlink:title="FFTN.h">
<polygon fill="#ffffff" stroke="#000000" points="243.8374,-55.5 243.8374,-73.5 293.7241,-73.5 293.7241,-55.5 243.8374,-55.5"/>
<text text-anchor="middle" x="268.7808" y="-61.5" font-family="Helvetica,sans-Serif" font-size="10.00" fill="#000000">FFTN.h</text>
</a>
</g>
</g>
<!-- Node1&#45;&gt;Node10 -->
<g id="edge10" class="edge">
<title>Node1&#45;&gt;Node10</title>
<path fill="none" stroke="#191970" d="M346.4237,-110.4179C331.8847,-101.8195 309.8282,-88.7754 292.9344,-78.7844"/>
<polygon fill="#191970" stroke="#191970" points="294.5497,-75.6735 284.1606,-73.5956 290.9864,-81.6987 294.5497,-75.6735"/>
</g>
<!-- Node12 -->
<g id="node13" class="node">
<title>Node12</title>
<g id="a_node13"><a xlink:href="MultiProgressBar_8h.html" target="_top" xlink:title="MultiProgressBar.h">
<polygon fill="#ffffff" stroke="#000000" points="515.5396,-55.5 515.5396,-73.5 616.022,-73.5 616.022,-55.5 515.5396,-55.5"/>
<text text-anchor="middle" x="565.7808" y="-61.5" font-family="Helvetica,sans-Serif" font-size="10.00" fill="#000000">MultiProgressBar.h</text>
</a>
</g>
</g>
<!-- Node1&#45;&gt;Node12 -->
<g id="edge14" class="edge">
<title>Node1&#45;&gt;Node12</title>
<path fill="none" stroke="#191970" d="M392.3216,-111.2659C426.8087,-101.9679 483.1983,-86.7649 522.2794,-76.2283"/>
<polygon fill="#191970" stroke="#191970" points="523.5697,-79.5055 532.3138,-73.5229 521.7475,-72.7468 523.5697,-79.5055"/>
</g>
<!-- Node15 -->
<g id="node16" class="node">
<title>Node15</title>
<polygon fill="#ffffff" stroke="#bfbfbf" points="633.9902,-55.5 633.9902,-73.5 685.5713,-73.5 685.5713,-55.5 633.9902,-55.5"/>
<text text-anchor="middle" x="659.7808" y="-61.5" font-family="Helvetica,sans-Serif" font-size="10.00" fill="#000000">netcdf.h</text>
</g>
<!-- Node1&#45;&gt;Node15 -->
<g id="edge19" class="edge">
<title>Node1&#45;&gt;Node15</title>
<path fill="none" stroke="#191970" d="M392.3352,-115.1652C439.8208,-108.223 534.3618,-93.5821 624.0698,-73.9891"/>
<polygon fill="#191970" stroke="#191970" points="624.8446,-77.4024 633.8542,-71.8278 623.3346,-70.5672 624.8446,-77.4024"/>
</g>
<!-- Node16 -->
<g id="node17" class="node">
<title>Node16</title>
<polygon fill="#ffffff" stroke="#bfbfbf" points="703.2686,-55.5 703.2686,-73.5 754.293,-73.5 754.293,-55.5 703.2686,-55.5"/>
<text text-anchor="middle" x="728.7808" y="-61.5" font-family="Helvetica,sans-Serif" font-size="10.00" fill="#000000">unistd.h</text>
</g>
<!-- Node1&#45;&gt;Node16 -->
<g id="edge20" class="edge">
<title>Node1&#45;&gt;Node16</title>
<path fill="none" stroke="#191970" d="M392.3205,-116.7372C449.5667,-111.2568 577.0152,-97.6299 693.1309,-74.1174"/>
<polygon fill="#191970" stroke="#191970" points="694.1626,-77.4786 703.2528,-72.0363 692.7528,-70.622 694.1626,-77.4786"/>
</g>
<!-- Node10&#45;&gt;Node6 -->
<g id="edge12" class="edge">
<title>Node10&#45;&gt;Node6</title>
<path fill="none" stroke="#191970" d="M288.4312,-55.4179C307.6378,-46.5409 337.097,-32.9253 358.9547,-22.823"/>
<polygon fill="#191970" stroke="#191970" points="360.4922,-25.9682 368.1011,-18.5956 357.5554,-19.614 360.4922,-25.9682"/>
</g>
<!-- Node10&#45;&gt;Node8 -->
<g id="edge13" class="edge">
<title>Node10&#45;&gt;Node8</title>
<path fill="none" stroke="#191970" d="M247.9744,-55.4179C227.5469,-46.5011 196.1659,-32.803 172.9916,-22.6873"/>
<polygon fill="#191970" stroke="#191970" points="174.1831,-19.3885 163.618,-18.5956 171.3827,-25.804 174.1831,-19.3885"/>
</g>
<!-- Node11 -->
<g id="node12" class="node">
<title>Node11</title>
<polygon fill="#ffffff" stroke="#bfbfbf" points="246.1396,-.5 246.1396,-18.5 291.4219,-18.5 291.4219,-.5 246.1396,-.5"/>
<text text-anchor="middle" x="268.7808" y="-6.5" font-family="Helvetica,sans-Serif" font-size="10.00" fill="#000000">fftw3.h</text>
</g>
<!-- Node10&#45;&gt;Node11 -->
<g id="edge11" class="edge">
<title>Node10&#45;&gt;Node11</title>
<path fill="none" stroke="#191970" d="M268.7808,-55.4179C268.7808,-48.2164 268.7808,-37.8962 268.7808,-28.8632"/>
<polygon fill="#191970" stroke="#191970" points="272.2809,-28.7794 268.7808,-18.7795 265.2809,-28.7795 272.2809,-28.7794"/>
</g>
<!-- Node12&#45;&gt;Node3 -->
<g id="edge16" class="edge">
<title>Node12&#45;&gt;Node3</title>
<path fill="none" stroke="#191970" d="M553.2309,-55.4179C541.6796,-47.0584 524.3216,-34.4966 510.6793,-24.6239"/>
<polygon fill="#191970" stroke="#191970" points="512.5024,-21.6229 502.3493,-18.5956 508.3985,-27.2938 512.5024,-21.6229"/>
</g>
<!-- Node12&#45;&gt;Node6 -->
<g id="edge17" class="edge">
<title>Node12&#45;&gt;Node6</title>
<path fill="none" stroke="#191970" d="M536.3877,-55.4179C504.0829,-45.4361 452.3872,-29.4627 419.271,-19.2301"/>
<polygon fill="#191970" stroke="#191970" points="420.2197,-15.8601 409.6321,-16.2518 418.1531,-22.5481 420.2197,-15.8601"/>
</g>
<!-- Node13 -->
<g id="node14" class="node">
<title>Node13</title>
<polygon fill="#ffffff" stroke="#bfbfbf" points="540.0493,-.5 540.0493,-18.5 585.5122,-18.5 585.5122,-.5 540.0493,-.5"/>
<text text-anchor="middle" x="562.7808" y="-6.5" font-family="Helvetica,sans-Serif" font-size="10.00" fill="#000000">stdio.h</text>
</g>
<!-- Node12&#45;&gt;Node13 -->
<g id="edge15" class="edge">
<title>Node12&#45;&gt;Node13</title>
<path fill="none" stroke="#191970" d="M565.2854,-55.4179C564.8926,-48.2164 564.3296,-37.8962 563.8369,-28.8632"/>
<polygon fill="#191970" stroke="#191970" points="567.3265,-28.574 563.2869,-18.7795 560.3368,-28.9553 567.3265,-28.574"/>
</g>
<!-- Node14 -->
<g id="node15" class="node">
<title>Node14</title>
<polygon fill="#ffffff" stroke="#bfbfbf" points="603.8301,-.5 603.8301,-18.5 663.7314,-18.5 663.7314,-.5 603.8301,-.5"/>
<text text-anchor="middle" x="633.7808" y="-6.5" font-family="Helvetica,sans-Serif" font-size="10.00" fill="#000000">sys/ioctl.h</text>
</g>
<!-- Node12&#45;&gt;Node14 -->
<g id="edge18" class="edge">
<title>Node12&#45;&gt;Node14</title>
<path fill="none" stroke="#191970" d="M577.0096,-55.4179C587.1852,-47.1876 602.397,-34.8839 614.5138,-25.0836"/>
<polygon fill="#191970" stroke="#191970" points="616.7339,-27.7895 622.308,-18.7795 612.3318,-22.3469 616.7339,-27.7895"/>
</g>
</g>
</svg>
