<?xml version="1.0" encoding="UTF-8" standalone="no"?>
<!DOCTYPE svg PUBLIC "-//W3C//DTD SVG 1.1//EN"
 "http://www.w3.org/Graphics/SVG/1.1/DTD/svg11.dtd">
<!-- Generated by graphviz version 2.40.1 (20161225.0304)
 -->
<!-- Title: Conti2D.cpp Pages: 1 -->
<svg width="627pt" height="192pt"
 viewBox="0.00 0.00 627.29 192.00" xmlns="http://www.w3.org/2000/svg" xmlns:xlink="http://www.w3.org/1999/xlink">
<g id="graph0" class="graph" transform="scale(1 1) rotate(0) translate(4 188)">
<title>Conti2D.cpp</title>
<polygon fill="#ffffff" stroke="transparent" points="-4,4 -4,-188 623.293,-188 623.293,4 -4,4"/>
<!-- Node0 -->
<g id="node1" class="node">
<title>Node0</title>
<polygon fill="#bfbfbf" stroke="#000000" points="259.2661,-165.5 259.2661,-183.5 330.2954,-183.5 330.2954,-165.5 259.2661,-165.5"/>
<text text-anchor="middle" x="294.7808" y="-171.5" font-family="Helvetica,sans-Serif" font-size="10.00" fill="#000000">Conti2D.cpp</text>
</g>
<!-- Node1 -->
<g id="node2" class="node">
<title>Node1</title>
<g id="a_node2"><a xlink:href="Conti2D_8h.html" target="_top" xlink:title="Conti2D.h">
<polygon fill="#ffffff" stroke="#000000" points="264.5469,-110.5 264.5469,-128.5 325.0146,-128.5 325.0146,-110.5 264.5469,-110.5"/>
<text text-anchor="middle" x="294.7808" y="-116.5" font-family="Helvetica,sans-Serif" font-size="10.00" fill="#000000">Conti2D.h</text>
</a>
</g>
</g>
<!-- Node0&#45;&gt;Node1 -->
<g id="edge1" class="edge">
<title>Node0&#45;&gt;Node1</title>
<path fill="none" stroke="#191970" d="M294.7808,-165.4179C294.7808,-158.2164 294.7808,-147.8962 294.7808,-138.8632"/>
<polygon fill="#191970" stroke="#191970" points="298.2809,-138.7794 294.7808,-128.7795 291.2809,-138.7795 298.2809,-138.7794"/>
</g>
<!-- Node2 -->
<g id="node3" class="node">
<title>Node2</title>
<polygon fill="#ffffff" stroke="#bfbfbf" points="0,-55.5 0,-73.5 51.5615,-73.5 51.5615,-55.5 0,-55.5"/>
<text text-anchor="middle" x="25.7808" y="-61.5" font-family="Helvetica,sans-Serif" font-size="10.00" fill="#000000">sstream</text>
</g>
<!-- Node1&#45;&gt;Node2 -->
<g id="edge2" class="edge">
<title>Node1&#45;&gt;Node2</title>
<path fill="none" stroke="#191970" d="M264.3315,-113.8219C220.3857,-105.5426 136.6716,-89.4554 65.7808,-74 64.3424,-73.6864 62.8762,-73.3617 61.3959,-73.0297"/>
<polygon fill="#191970" stroke="#191970" points="62.0992,-69.6001 51.5695,-70.773 60.5324,-76.4225 62.0992,-69.6001"/>
</g>
<!-- Node3 -->
<g id="node4" class="node">
<title>Node3</title>
<polygon fill="#ffffff" stroke="#bfbfbf" points="396.6084,-.5 396.6084,-18.5 450.9531,-18.5 450.9531,-.5 396.6084,-.5"/>
<text text-anchor="middle" x="423.7808" y="-6.5" font-family="Helvetica,sans-Serif" font-size="10.00" fill="#000000">iostream</text>
</g>
<!-- Node1&#45;&gt;Node3 -->
<g id="edge3" class="edge">
<title>Node1&#45;&gt;Node3</title>
<path fill="none" stroke="#191970" d="M325.3459,-113.8746C349.4884,-107.9112 382.4007,-96.1675 402.7808,-74 414.227,-61.5499 419.4396,-42.7705 421.8105,-28.681"/>
<polygon fill="#191970" stroke="#191970" points="425.3024,-28.9748 423.1674,-18.5974 418.3649,-28.0412 425.3024,-28.9748"/>
</g>
<!-- Node4 -->
<g id="node5" class="node">
<title>Node4</title>
<polygon fill="#ffffff" stroke="#bfbfbf" points="108.1108,-55.5 108.1108,-73.5 157.4507,-73.5 157.4507,-55.5 108.1108,-55.5"/>
<text text-anchor="middle" x="132.7808" y="-61.5" font-family="Helvetica,sans-Serif" font-size="10.00" fill="#000000">fstream</text>
</g>
<!-- Node1&#45;&gt;Node4 -->
<g id="edge4" class="edge">
<title>Node1&#45;&gt;Node4</title>
<path fill="none" stroke="#191970" d="M268.0298,-110.4179C240.4971,-101.0704 197.488,-86.4685 167.382,-76.2473"/>
<polygon fill="#191970" stroke="#191970" points="168.3022,-72.8636 157.7078,-72.9629 166.0518,-79.492 168.3022,-72.8636"/>
</g>
<!-- Node5 -->
<g id="node6" class="node">
<title>Node5</title>
<polygon fill="#ffffff" stroke="#bfbfbf" points="175.271,-55.5 175.271,-73.5 226.2905,-73.5 226.2905,-55.5 175.271,-55.5"/>
<text text-anchor="middle" x="200.7808" y="-61.5" font-family="Helvetica,sans-Serif" font-size="10.00" fill="#000000">iomanip</text>
</g>
<!-- Node1&#45;&gt;Node5 -->
<g id="edge5" class="edge">
<title>Node1&#45;&gt;Node5</title>
<path fill="none" stroke="#191970" d="M279.2586,-110.4179C264.5632,-101.8195 242.2696,-88.7754 225.1941,-78.7844"/>
<polygon fill="#191970" stroke="#191970" points="226.7247,-75.6249 216.326,-73.5956 223.1896,-81.6667 226.7247,-75.6249"/>
</g>
<!-- Node6 -->
<g id="node7" class="node">
<title>Node6</title>
<polygon fill="#ffffff" stroke="#bfbfbf" points="304.165,-.5 304.165,-18.5 347.3965,-18.5 347.3965,-.5 304.165,-.5"/>
<text text-anchor="middle" x="325.7808" y="-6.5" font-family="Helvetica,sans-Serif" font-size="10.00" fill="#000000">vector</text>
</g>
<!-- Node1&#45;&gt;Node6 -->
<g id="edge6" class="edge">
<title>Node1&#45;&gt;Node6</title>
<path fill="none" stroke="#191970" d="M297.3176,-110.4982C302.3586,-92.6108 313.7304,-52.2594 320.475,-28.3271"/>
<polygon fill="#191970" stroke="#191970" points="323.865,-29.2006 323.2088,-18.6261 317.1275,-27.3018 323.865,-29.2006"/>
</g>
<!-- Node7 -->
<g id="node8" class="node">
<title>Node7</title>
<polygon fill="#ffffff" stroke="#bfbfbf" points="118.4951,-.5 118.4951,-18.5 165.0664,-18.5 165.0664,-.5 118.4951,-.5"/>
<text text-anchor="middle" x="141.7808" y="-6.5" font-family="Helvetica,sans-Serif" font-size="10.00" fill="#000000">math.h</text>
</g>
<!-- Node1&#45;&gt;Node7 -->
<g id="edge7" class="edge">
<title>Node1&#45;&gt;Node7</title>
<path fill="none" stroke="#191970" d="M264.1678,-116.9391C214.3155,-112.064 119.0979,-99.5738 98.7808,-74 86.0913,-58.0273 103.5039,-38.3568 119.8203,-24.9673"/>
<polygon fill="#191970" stroke="#191970" points="122.3068,-27.4696 128.0876,-18.5908 118.0316,-21.9268 122.3068,-27.4696"/>
</g>
<!-- Node8 -->
<g id="node9" class="node">
<title>Node8</title>
<polygon fill="#ffffff" stroke="#bfbfbf" points="349.8843,-55.5 349.8843,-73.5 393.6772,-73.5 393.6772,-55.5 349.8843,-55.5"/>
<text text-anchor="middle" x="371.7808" y="-61.5" font-family="Helvetica,sans-Serif" font-size="10.00" fill="#000000">omp.h</text>
</g>
<!-- Node1&#45;&gt;Node8 -->
<g id="edge8" class="edge">
<title>Node1&#45;&gt;Node8</title>
<path fill="none" stroke="#191970" d="M307.4957,-110.4179C319.199,-102.0584 336.7855,-89.4966 350.6073,-79.6239"/>
<polygon fill="#191970" stroke="#191970" points="352.9439,-82.2561 359.0469,-73.5956 348.8752,-76.56 352.9439,-82.2561"/>
</g>
<!-- Node9 -->
<g id="node10" class="node">
<title>Node9</title>
<g id="a_node10"><a xlink:href="FFTN_8h.html" target="_top" xlink:title="FFTN.h">
<polygon fill="#ffffff" stroke="#000000" points="243.8374,-55.5 243.8374,-73.5 293.7241,-73.5 293.7241,-55.5 243.8374,-55.5"/>
<text text-anchor="middle" x="268.7808" y="-61.5" font-family="Helvetica,sans-Serif" font-size="10.00" fill="#000000">FFTN.h</text>
</a>
</g>
</g>
<!-- Node1&#45;&gt;Node9 -->
<g id="edge9" class="edge">
<title>Node1&#45;&gt;Node9</title>
<path fill="none" stroke="#191970" d="M290.4874,-110.4179C286.9708,-102.9789 281.8811,-92.2123 277.514,-82.9742"/>
<polygon fill="#191970" stroke="#191970" points="280.6055,-81.3243 273.1674,-73.7795 274.277,-84.316 280.6055,-81.3243"/>
</g>
<!-- Node11 -->
<g id="node12" class="node">
<title>Node11</title>
<g id="a_node12"><a xlink:href="MultiProgressBar_8h.html" target="_top" xlink:title="MultiProgressBar.h">
<polygon fill="#ffffff" stroke="#000000" points="449.5396,-55.5 449.5396,-73.5 550.022,-73.5 550.022,-55.5 449.5396,-55.5"/>
<text text-anchor="middle" x="499.7808" y="-61.5" font-family="Helvetica,sans-Serif" font-size="10.00" fill="#000000">MultiProgressBar.h</text>
</a>
</g>
</g>
<!-- Node1&#45;&gt;Node11 -->
<g id="edge13" class="edge">
<title>Node1&#45;&gt;Node11</title>
<path fill="none" stroke="#191970" d="M325.0292,-111.3846C359.6596,-102.0935 416.6775,-86.796 456.1195,-76.214"/>
<polygon fill="#191970" stroke="#191970" points="457.2423,-79.5366 465.9938,-73.5648 455.4284,-72.7757 457.2423,-79.5366"/>
</g>
<!-- Node14 -->
<g id="node15" class="node">
<title>Node14</title>
<polygon fill="#ffffff" stroke="#bfbfbf" points="568.2686,-55.5 568.2686,-73.5 619.293,-73.5 619.293,-55.5 568.2686,-55.5"/>
<text text-anchor="middle" x="593.7808" y="-61.5" font-family="Helvetica,sans-Serif" font-size="10.00" fill="#000000">unistd.h</text>
</g>
<!-- Node1&#45;&gt;Node14 -->
<g id="edge18" class="edge">
<title>Node1&#45;&gt;Node14</title>
<path fill="none" stroke="#191970" d="M325.0516,-115.2332C372.5815,-108.3286 467.7725,-93.6751 558.3547,-73.913"/>
<polygon fill="#191970" stroke="#191970" points="559.2247,-77.3053 568.2355,-71.7326 557.7162,-70.4698 559.2247,-77.3053"/>
</g>
<!-- Node9&#45;&gt;Node6 -->
<g id="edge11" class="edge">
<title>Node9&#45;&gt;Node6</title>
<path fill="none" stroke="#191970" d="M278.1932,-55.4179C286.4767,-47.425 298.7417,-35.5903 308.7453,-25.9377"/>
<polygon fill="#191970" stroke="#191970" points="311.398,-28.2419 316.1639,-18.7795 306.5374,-23.2045 311.398,-28.2419"/>
</g>
<!-- Node9&#45;&gt;Node7 -->
<g id="edge12" class="edge">
<title>Node9&#45;&gt;Node7</title>
<path fill="none" stroke="#191970" d="M247.8093,-55.4179C227.2196,-46.5011 195.5896,-32.803 172.2313,-22.6873"/>
<polygon fill="#191970" stroke="#191970" points="173.3508,-19.358 162.7834,-18.5956 170.5689,-25.7815 173.3508,-19.358"/>
</g>
<!-- Node10 -->
<g id="node11" class="node">
<title>Node10</title>
<polygon fill="#ffffff" stroke="#bfbfbf" points="241.1396,-.5 241.1396,-18.5 286.4219,-18.5 286.4219,-.5 241.1396,-.5"/>
<text text-anchor="middle" x="263.7808" y="-6.5" font-family="Helvetica,sans-Serif" font-size="10.00" fill="#000000">fftw3.h</text>
</g>
<!-- Node9&#45;&gt;Node10 -->
<g id="edge10" class="edge">
<title>Node9&#45;&gt;Node10</title>
<path fill="none" stroke="#191970" d="M267.9551,-55.4179C267.3004,-48.2164 266.3622,-37.8962 265.5411,-28.8632"/>
<polygon fill="#191970" stroke="#191970" points="269.0154,-28.4215 264.6243,-18.7795 262.0442,-29.0553 269.0154,-28.4215"/>
</g>
<!-- Node11&#45;&gt;Node3 -->
<g id="edge15" class="edge">
<title>Node11&#45;&gt;Node3</title>
<path fill="none" stroke="#191970" d="M487.2309,-55.4179C475.6796,-47.0584 458.3216,-34.4966 444.6793,-24.6239"/>
<polygon fill="#191970" stroke="#191970" points="446.5024,-21.6229 436.3493,-18.5956 442.3985,-27.2938 446.5024,-21.6229"/>
</g>
<!-- Node11&#45;&gt;Node6 -->
<g id="edge16" class="edge">
<title>Node11&#45;&gt;Node6</title>
<path fill="none" stroke="#191970" d="M471.0482,-55.4179C439.6926,-45.5066 389.6488,-29.6882 357.2526,-19.448"/>
<polygon fill="#191970" stroke="#191970" points="357.9904,-16.0106 347.4004,-16.3338 355.8806,-22.6851 357.9904,-16.0106"/>
</g>
<!-- Node12 -->
<g id="node13" class="node">
<title>Node12</title>
<polygon fill="#ffffff" stroke="#bfbfbf" points="474.0493,-.5 474.0493,-18.5 519.5122,-18.5 519.5122,-.5 474.0493,-.5"/>
<text text-anchor="middle" x="496.7808" y="-6.5" font-family="Helvetica,sans-Serif" font-size="10.00" fill="#000000">stdio.h</text>
</g>
<!-- Node11&#45;&gt;Node12 -->
<g id="edge14" class="edge">
<title>Node11&#45;&gt;Node12</title>
<path fill="none" stroke="#191970" d="M499.2854,-55.4179C498.8926,-48.2164 498.3296,-37.8962 497.8369,-28.8632"/>
<polygon fill="#191970" stroke="#191970" points="501.3265,-28.574 497.2869,-18.7795 494.3368,-28.9553 501.3265,-28.574"/>
</g>
<!-- Node13 -->
<g id="node14" class="node">
<title>Node13</title>
<polygon fill="#ffffff" stroke="#bfbfbf" points="537.8301,-.5 537.8301,-18.5 597.7314,-18.5 597.7314,-.5 537.8301,-.5"/>
<text text-anchor="middle" x="567.7808" y="-6.5" font-family="Helvetica,sans-Serif" font-size="10.00" fill="#000000">sys/ioctl.h</text>
</g>
<!-- Node11&#45;&gt;Node13 -->
<g id="edge17" class="edge">
<title>Node11&#45;&gt;Node13</title>
<path fill="none" stroke="#191970" d="M511.0096,-55.4179C521.1852,-47.1876 536.397,-34.8839 548.5138,-25.0836"/>
<polygon fill="#191970" stroke="#191970" points="550.7339,-27.7895 556.308,-18.7795 546.3318,-22.3469 550.7339,-27.7895"/>
</g>
</g>
</svg>
