<?xml version="1.0" encoding="UTF-8" standalone="no"?>
<!DOCTYPE svg PUBLIC "-//W3C//DTD SVG 1.1//EN"
 "http://www.w3.org/Graphics/SVG/1.1/DTD/svg11.dtd">
<!-- Generated by graphviz version 2.40.1 (20161225.0304)
 -->
<!-- Title: UWC_p2p_f Pages: 1 -->
<svg width="278pt" height="78pt"
 viewBox="0.00 0.00 277.51 78.34" xmlns="http://www.w3.org/2000/svg" xmlns:xlink="http://www.w3.org/1999/xlink">
<g id="graph0" class="graph" transform="scale(1 1) rotate(0) translate(4 74.3363)">
<title>UWC_p2p_f</title>
<polygon fill="#ffffff" stroke="transparent" points="-4,4 -4,-74.3363 273.5117,-74.3363 273.5117,4 -4,4"/>
<!-- Node0 -->
<g id="node1" class="node">
<title>Node0</title>
<polygon fill="#bfbfbf" stroke="#000000" points="0,-19.5 0,-37.5 70.4678,-37.5 70.4678,-19.5 0,-19.5"/>
<text text-anchor="middle" x="35.2339" y="-25.5" font-family="Helvetica,sans-Serif" font-size="10.00" fill="#000000">UWC_p2p_f</text>
</g>
<!-- Node1 -->
<g id="node2" class="node">
<title>Node1</title>
<g id="a_node2"><a xlink:href="Conti2D_8cpp_a2c90cdea3ca11177ba34c14a3b0a00cb.html#a2c90cdea3ca11177ba34c14a3b0a00cb" target="_top" xlink:title="Read a Surfer Grid data from file. ">
<polygon fill="#ffffff" stroke="#000000" points="212.9355,-37.5 212.9355,-55.5 269.5117,-55.5 269.5117,-37.5 212.9355,-37.5"/>
<text text-anchor="middle" x="241.2236" y="-43.5" font-family="Helvetica,sans-Serif" font-size="10.00" fill="#000000">ReadGrd</text>
</a>
</g>
</g>
<!-- Node0&#45;&gt;Node1 -->
<g id="edge1" class="edge">
<title>Node0&#45;&gt;Node1</title>
<path fill="none" stroke="#191970" d="M48.1227,-37.6359C61.8362,-46.7499 84.5364,-60.144 106.4678,-65.5 136.8926,-72.9303 145.9393,-69.9845 176.9355,-65.5 186.8522,-64.0653 197.3698,-61.4466 206.9627,-58.6027"/>
<polygon fill="#191970" stroke="#191970" points="208.0633,-61.9257 216.5606,-55.5976 205.9717,-55.2455 208.0633,-61.9257"/>
</g>
<!-- Node2 -->
<g id="node3" class="node">
<title>Node2</title>
<g id="a_node3"><a xlink:href="Conti2D_8cpp_ab76adf263893ac28772283c5a00b964c.html#ab76adf263893ac28772283c5a00b964c" target="_top" xlink:title="Save a Surfer Grid data to file. ">
<polygon fill="#ffffff" stroke="#000000" points="213.4922,-.5 213.4922,-18.5 268.9551,-18.5 268.9551,-.5 213.4922,-.5"/>
<text text-anchor="middle" x="241.2236" y="-6.5" font-family="Helvetica,sans-Serif" font-size="10.00" fill="#000000">SaveGrd</text>
</a>
</g>
</g>
<!-- Node0&#45;&gt;Node2 -->
<g id="edge2" class="edge">
<title>Node0&#45;&gt;Node2</title>
<path fill="none" stroke="#191970" d="M62.2983,-19.4997C75.4644,-15.5821 91.6195,-11.4462 106.4678,-9.5 138.9259,-5.2456 176.1608,-5.642 203.2536,-6.8761"/>
<polygon fill="#191970" stroke="#191970" points="203.3048,-10.3833 213.4718,-7.4029 203.6653,-3.3926 203.3048,-10.3833"/>
</g>
<!-- Node3 -->
<g id="node4" class="node">
<title>Node3</title>
<g id="a_node4"><a xlink:href="Conti2D_8cpp_af82757cb7e0f4f398e774b4e89b9ea72.html#af82757cb7e0f4f398e774b4e89b9ea72" target="_top" xlink:title="UWC_p2p_f">
<polygon fill="#ffffff" stroke="#000000" points="106.4678,-19.5 106.4678,-37.5 176.9355,-37.5 176.9355,-19.5 106.4678,-19.5"/>
<text text-anchor="middle" x="141.7017" y="-25.5" font-family="Helvetica,sans-Serif" font-size="10.00" fill="#000000">UWC_p2p_f</text>
</a>
</g>
</g>
<!-- Node0&#45;&gt;Node3 -->
<g id="edge3" class="edge">
<title>Node0&#45;&gt;Node3</title>
<path fill="none" stroke="#191970" d="M70.6861,-28.5C78.8572,-28.5 87.6597,-28.5 96.1918,-28.5"/>
<polygon fill="#191970" stroke="#191970" points="96.4043,-32.0001 106.4042,-28.5 96.4042,-25.0001 96.4043,-32.0001"/>
</g>
<!-- Node3&#45;&gt;Node1 -->
<g id="edge4" class="edge">
<title>Node3&#45;&gt;Node1</title>
<path fill="none" stroke="#191970" d="M177.0696,-34.8968C185.4108,-36.4054 194.3424,-38.0208 202.8108,-39.5525"/>
<polygon fill="#191970" stroke="#191970" points="202.3766,-43.0307 212.8399,-41.3664 203.6225,-36.1424 202.3766,-43.0307"/>
</g>
<!-- Node3&#45;&gt;Node2 -->
<g id="edge5" class="edge">
<title>Node3&#45;&gt;Node2</title>
<path fill="none" stroke="#191970" d="M177.0696,-21.7478C185.6631,-20.1072 194.8832,-18.347 203.5779,-16.687"/>
<polygon fill="#191970" stroke="#191970" points="204.3081,-20.1109 213.4743,-14.7977 202.9954,-13.2351 204.3081,-20.1109"/>
</g>
<!-- Node3&#45;&gt;Node3 -->
<g id="edge6" class="edge">
<title>Node3&#45;&gt;Node3</title>
<path fill="none" stroke="#191970" d="M127.0995,-37.5134C119.0335,-46.322 123.9009,-56 141.7017,-56 153.1053,-56 159.201,-52.0281 159.9889,-46.8575"/>
<polygon fill="#191970" stroke="#191970" points="163.2286,-45.532 156.3039,-37.5134 156.7168,-48.1002 163.2286,-45.532"/>
</g>
</g>
</svg>
