<?xml version="1.0" encoding="UTF-8" standalone="no"?>
<!DOCTYPE svg PUBLIC "-//W3C//DTD SVG 1.1//EN"
 "http://www.w3.org/Graphics/SVG/1.1/DTD/svg11.dtd">
<!-- Generated by graphviz version 2.40.1 (20161225.0304)
 -->
<!-- Title: Path_GetFileName Pages: 1 -->
<svg width="448pt" height="138pt"
 viewBox="0.00 0.00 448.46 138.00" xmlns="http://www.w3.org/2000/svg" xmlns:xlink="http://www.w3.org/1999/xlink">
<g id="graph0" class="graph" transform="scale(1 1) rotate(0) translate(4 134)">
<title>Path_GetFileName</title>
<polygon fill="#ffffff" stroke="transparent" points="-4,4 -4,-134 444.4619,-134 444.4619,4 -4,4"/>
<!-- Node1 -->
<g id="node1" class="node">
<title>Node1</title>
<polygon fill="#bfbfbf" stroke="#000000" points="0,-55.5 0,-73.5 101.0391,-73.5 101.0391,-55.5 0,-55.5"/>
<text text-anchor="middle" x="50.5195" y="-61.5" font-family="Helvetica,sans-Serif" font-size="10.00" fill="#000000">Path_GetFileName</text>
</g>
<!-- Node2 -->
<g id="node2" class="node">
<title>Node2</title>
<g id="a_node2"><a xlink:href="Conti2D_8h_a1bb3d1115c283e9063a98ee17fa9d31f.html#a1bb3d1115c283e9063a98ee17fa9d31f" target="_top" xlink:title="DWC_p2p_ItegrationIter">
<polygon fill="#ffffff" stroke="#000000" points="140.9331,-111.5 140.9331,-129.5 264.7651,-129.5 264.7651,-111.5 140.9331,-111.5"/>
<text text-anchor="middle" x="202.8491" y="-117.5" font-family="Helvetica,sans-Serif" font-size="10.00" fill="#000000">DWC_p2p_ItegrationIter</text>
</a>
</g>
</g>
<!-- Node1&#45;&gt;Node2 -->
<g id="edge1" class="edge">
<title>Node1&#45;&gt;Node2</title>
<path fill="none" stroke="#191970" d="M78.3219,-77.9573C95.0839,-85.7554 117.002,-95.4028 137.0391,-102.5 146.3063,-105.7825 156.4821,-108.8286 166.0032,-111.4466"/>
<polygon fill="#191970" stroke="#191970" points="79.6397,-74.7092 69.1017,-73.6129 76.6559,-81.0415 79.6397,-74.7092"/>
</g>
<!-- Node3 -->
<g id="node3" class="node">
<title>Node3</title>
<g id="a_node3"><a xlink:href="Conti2D_8h_a8affb7fb2246ce1c959f681fc7baaa05.html#a8affb7fb2246ce1c959f681fc7baaa05" target="_top" xlink:title="DWC_p2p_LandweberIter">
<polygon fill="#ffffff" stroke="#000000" points="137.0391,-74.5 137.0391,-92.5 268.6592,-92.5 268.6592,-74.5 137.0391,-74.5"/>
<text text-anchor="middle" x="202.8491" y="-80.5" font-family="Helvetica,sans-Serif" font-size="10.00" fill="#000000">DWC_p2p_LandweberIter</text>
</a>
</g>
</g>
<!-- Node1&#45;&gt;Node3 -->
<g id="edge2" class="edge">
<title>Node1&#45;&gt;Node3</title>
<path fill="none" stroke="#191970" d="M111.3374,-72.0858C119.7425,-73.1341 128.4077,-74.215 136.9004,-75.2742"/>
<polygon fill="#191970" stroke="#191970" points="111.5994,-68.5914 101.2431,-70.8267 110.733,-75.5376 111.5994,-68.5914"/>
</g>
<!-- Node4 -->
<g id="node4" class="node">
<title>Node4</title>
<g id="a_node4"><a xlink:href="Conti2D_8h_a39a6a4cc378c878de458d5ae56eb1630.html#a39a6a4cc378c878de458d5ae56eb1630" target="_top" xlink:title="DWC_s2p_ItegrationIter">
<polygon fill="#ffffff" stroke="#000000" points="141.2139,-37.5 141.2139,-55.5 264.4844,-55.5 264.4844,-37.5 141.2139,-37.5"/>
<text text-anchor="middle" x="202.8491" y="-43.5" font-family="Helvetica,sans-Serif" font-size="10.00" fill="#000000">DWC_s2p_ItegrationIter</text>
</a>
</g>
</g>
<!-- Node1&#45;&gt;Node4 -->
<g id="edge3" class="edge">
<title>Node1&#45;&gt;Node4</title>
<path fill="none" stroke="#191970" d="M111.2681,-57.3217C121.0381,-56.1672 131.1613,-54.971 140.9578,-53.8134"/>
<polygon fill="#191970" stroke="#191970" points="110.7632,-53.8569 101.2431,-58.5063 111.5847,-60.8085 110.7632,-53.8569"/>
</g>
<!-- Node8 -->
<g id="node8" class="node">
<title>Node8</title>
<g id="a_node8"><a xlink:href="Conti2D_8h_a30671331e25e6cfa739e77aec57b7f18.html#a30671331e25e6cfa739e77aec57b7f18" target="_top" xlink:title="DWC_s2p_LandweberIter">
<polygon fill="#ffffff" stroke="#000000" points="137.3198,-.5 137.3198,-18.5 268.3784,-18.5 268.3784,-.5 137.3198,-.5"/>
<text text-anchor="middle" x="202.8491" y="-6.5" font-family="Helvetica,sans-Serif" font-size="10.00" fill="#000000">DWC_s2p_LandweberIter</text>
</a>
</g>
</g>
<!-- Node1&#45;&gt;Node8 -->
<g id="edge8" class="edge">
<title>Node1&#45;&gt;Node8</title>
<path fill="none" stroke="#191970" d="M79.7406,-51.371C96.3597,-44.1502 117.6628,-35.3036 137.0391,-28.5 147.2496,-24.9147 158.5167,-21.4776 168.7991,-18.5362"/>
<polygon fill="#191970" stroke="#191970" points="78.2966,-48.1825 70.5468,-55.4069 81.1103,-54.5921 78.2966,-48.1825"/>
</g>
<!-- Node5 -->
<g id="node5" class="node">
<title>Node5</title>
<g id="a_node5"><a xlink:href="Conti2D_8h_ac96429563a5015babafa3274c3f3ec73.html#ac96429563a5015babafa3274c3f3ec73" target="_top" xlink:title="DWC_s2p">
<polygon fill="#ffffff" stroke="#000000" points="304.9399,-37.5 304.9399,-55.5 366.5063,-55.5 366.5063,-37.5 304.9399,-37.5"/>
<text text-anchor="middle" x="335.7231" y="-43.5" font-family="Helvetica,sans-Serif" font-size="10.00" fill="#000000">DWC_s2p</text>
</a>
</g>
</g>
<!-- Node4&#45;&gt;Node5 -->
<g id="edge4" class="edge">
<title>Node4&#45;&gt;Node5</title>
<path fill="none" stroke="#191970" d="M274.7751,-46.5C285.346,-46.5 295.7303,-46.5 304.8477,-46.5"/>
<polygon fill="#191970" stroke="#191970" points="274.6182,-43.0001 264.6182,-46.5 274.6182,-50.0001 274.6182,-43.0001"/>
</g>
<!-- Node7 -->
<g id="node7" class="node">
<title>Node7</title>
<g id="a_node7"><a xlink:href="Conti2D_8h_ab87ce573de93575b7ece2e4f772e03fd.html#ab87ce573de93575b7ece2e4f772e03fd" target="_top" xlink:title="DWC_p2p">
<polygon fill="#ffffff" stroke="#000000" points="304.6592,-.5 304.6592,-18.5 366.7871,-18.5 366.7871,-.5 304.6592,-.5"/>
<text text-anchor="middle" x="335.7231" y="-6.5" font-family="Helvetica,sans-Serif" font-size="10.00" fill="#000000">DWC_p2p</text>
</a>
</g>
</g>
<!-- Node4&#45;&gt;Node7 -->
<g id="edge6" class="edge">
<title>Node4&#45;&gt;Node7</title>
<path fill="none" stroke="#191970" d="M245.8178,-34.8079C253.4303,-32.7193 261.2803,-30.5543 268.6592,-28.5 280.3171,-25.2544 293.1004,-21.6452 304.3511,-18.4518"/>
<polygon fill="#191970" stroke="#191970" points="244.7278,-31.4775 236.007,-37.494 246.5763,-38.229 244.7278,-31.4775"/>
</g>
<!-- Node6 -->
<g id="node6" class="node">
<title>Node6</title>
<g id="a_node6"><a xlink:href="main_8cpp_a0ddf1224851353fc92bfbff6f499fa97.html#a0ddf1224851353fc92bfbff6f499fa97" target="_top" xlink:title="main">
<polygon fill="#ffffff" stroke="#000000" points="402.7871,-18.5 402.7871,-36.5 440.4619,-36.5 440.4619,-18.5 402.7871,-18.5"/>
<text text-anchor="middle" x="421.6245" y="-24.5" font-family="Helvetica,sans-Serif" font-size="10.00" fill="#000000">main</text>
</a>
</g>
</g>
<!-- Node5&#45;&gt;Node6 -->
<g id="edge5" class="edge">
<title>Node5&#45;&gt;Node6</title>
<path fill="none" stroke="#191970" d="M376.5175,-37.4769C385.6518,-35.4566 394.9165,-33.4074 402.6534,-31.6961"/>
<polygon fill="#191970" stroke="#191970" points="375.7436,-34.0634 366.7355,-39.6406 377.2554,-40.8982 375.7436,-34.0634"/>
</g>
<!-- Node7&#45;&gt;Node6 -->
<g id="edge7" class="edge">
<title>Node7&#45;&gt;Node6</title>
<path fill="none" stroke="#191970" d="M377.1638,-18.1836C386.0747,-20.0508 395.0724,-21.9362 402.6202,-23.5178"/>
<polygon fill="#191970" stroke="#191970" points="377.7271,-14.7257 367.2219,-16.1003 376.2915,-21.5769 377.7271,-14.7257"/>
</g>
<!-- Node8&#45;&gt;Node5 -->
<g id="edge9" class="edge">
<title>Node8&#45;&gt;Node5</title>
<path fill="none" stroke="#191970" d="M245.171,-21.2849C264.5792,-26.6893 287.1641,-32.9783 304.9235,-37.9236"/>
<polygon fill="#191970" stroke="#191970" points="245.9262,-17.8621 235.3538,-18.5512 244.0483,-24.6055 245.9262,-17.8621"/>
</g>
<!-- Node8&#45;&gt;Node7 -->
<g id="edge10" class="edge">
<title>Node8&#45;&gt;Node7</title>
<path fill="none" stroke="#191970" d="M278.777,-9.5C287.8152,-9.5 296.6142,-9.5 304.4861,-9.5"/>
<polygon fill="#191970" stroke="#191970" points="278.5076,-6.0001 268.5076,-9.5 278.5076,-13.0001 278.5076,-6.0001"/>
</g>
</g>
</svg>
