<?xml version="1.0" encoding="UTF-8" standalone="no"?>
<!DOCTYPE svg PUBLIC "-//W3C//DTD SVG 1.1//EN"
 "http://www.w3.org/Graphics/SVG/1.1/DTD/svg11.dtd">
<!-- Generated by graphviz version 2.40.1 (20161225.0304)
 -->
<!-- Title: UWC_p2p Pages: 1 -->
<svg width="378pt" height="156pt"
 viewBox="0.00 0.00 378.13 156.00" xmlns="http://www.w3.org/2000/svg" xmlns:xlink="http://www.w3.org/1999/xlink">
<g id="graph0" class="graph" transform="scale(1 1) rotate(0) translate(4 152)">
<title>UWC_p2p</title>
<polygon fill="#ffffff" stroke="transparent" points="-4,4 -4,-152 374.127,-152 374.127,4 -4,4"/>
<!-- Node0 -->
<g id="node1" class="node">
<title>Node0</title>
<polygon fill="#bfbfbf" stroke="#000000" points="0,-55.5 0,-73.5 62.1279,-73.5 62.1279,-55.5 0,-55.5"/>
<text text-anchor="middle" x="31.064" y="-61.5" font-family="Helvetica,sans-Serif" font-size="10.00" fill="#000000">UWC_p2p</text>
</g>
<!-- Node1 -->
<g id="node2" class="node">
<title>Node1</title>
<g id="a_node2"><a xlink:href="Conti2D_8cpp_a6f44a06f2b4926f66481fccf277bea50.html#a6f44a06f2b4926f66481fccf277bea50" target="_top" xlink:title="Getkernel_p2p_new">
<polygon fill="#ffffff" stroke="#000000" points="98.1279,-111.5 98.1279,-129.5 203.6348,-129.5 203.6348,-111.5 98.1279,-111.5"/>
<text text-anchor="middle" x="150.8813" y="-117.5" font-family="Helvetica,sans-Serif" font-size="10.00" fill="#000000">Getkernel_p2p_new</text>
</a>
</g>
</g>
<!-- Node0&#45;&gt;Node1 -->
<g id="edge1" class="edge">
<title>Node0&#45;&gt;Node1</title>
<path fill="none" stroke="#191970" d="M45.308,-73.6087C58.6127,-81.8632 79.2066,-94.001 98.1279,-102.5 102.4782,-104.454 107.1085,-106.3228 111.7498,-108.0667"/>
<polygon fill="#191970" stroke="#191970" points="110.6115,-111.3767 121.2061,-111.4583 112.9748,-104.7877 110.6115,-111.3767"/>
</g>
<!-- Node4 -->
<g id="node5" class="node">
<title>Node4</title>
<g id="a_node5"><a xlink:href="Conti2D_8cpp_a2c90cdea3ca11177ba34c14a3b0a00cb.html#a2c90cdea3ca11177ba34c14a3b0a00cb" target="_top" xlink:title="Read a Surfer Grid data from file. ">
<polygon fill="#ffffff" stroke="#000000" points="122.5933,-74.5 122.5933,-92.5 179.1694,-92.5 179.1694,-74.5 122.5933,-74.5"/>
<text text-anchor="middle" x="150.8813" y="-80.5" font-family="Helvetica,sans-Serif" font-size="10.00" fill="#000000">ReadGrd</text>
</a>
</g>
</g>
<!-- Node0&#45;&gt;Node4 -->
<g id="edge4" class="edge">
<title>Node0&#45;&gt;Node4</title>
<path fill="none" stroke="#191970" d="M62.2318,-69.4424C77.4754,-71.8597 95.9726,-74.7929 112.1189,-77.3533"/>
<polygon fill="#191970" stroke="#191970" points="111.9072,-80.8633 122.3319,-78.9728 113.0035,-73.9497 111.9072,-80.8633"/>
</g>
<!-- Node5 -->
<g id="node6" class="node">
<title>Node5</title>
<g id="a_node6"><a xlink:href="Conti2D_8cpp_ab76adf263893ac28772283c5a00b964c.html#ab76adf263893ac28772283c5a00b964c" target="_top" xlink:title="Save a Surfer Grid data to file. ">
<polygon fill="#ffffff" stroke="#000000" points="123.1499,-37.5 123.1499,-55.5 178.6128,-55.5 178.6128,-37.5 123.1499,-37.5"/>
<text text-anchor="middle" x="150.8813" y="-43.5" font-family="Helvetica,sans-Serif" font-size="10.00" fill="#000000">SaveGrd</text>
</a>
</g>
</g>
<!-- Node0&#45;&gt;Node5 -->
<g id="edge5" class="edge">
<title>Node0&#45;&gt;Node5</title>
<path fill="none" stroke="#191970" d="M62.2318,-59.8177C77.703,-57.4935 96.5255,-54.6658 112.8402,-52.2149"/>
<polygon fill="#191970" stroke="#191970" points="113.7698,-55.6146 123.1388,-50.6677 112.7298,-48.6923 113.7698,-55.6146"/>
</g>
<!-- Node6 -->
<g id="node7" class="node">
<title>Node6</title>
<g id="a_node7"><a xlink:href="Conti2D_8cpp_a632c1e4efbb7e9b1aaf04db729e69394.html#a632c1e4efbb7e9b1aaf04db729e69394" target="_top" xlink:title="UWC_Gij">
<polygon fill="#ffffff" stroke="#000000" points="122.0488,-.5 122.0488,-18.5 179.7139,-18.5 179.7139,-.5 122.0488,-.5"/>
<text text-anchor="middle" x="150.8813" y="-6.5" font-family="Helvetica,sans-Serif" font-size="10.00" fill="#000000">UWC_Gij</text>
</a>
</g>
</g>
<!-- Node0&#45;&gt;Node6 -->
<g id="edge6" class="edge">
<title>Node0&#45;&gt;Node6</title>
<path fill="none" stroke="#191970" d="M46.4567,-55.3981C59.844,-47.6871 79.9016,-36.6214 98.1279,-28.5 103.1851,-26.2466 108.599,-24.0566 113.9616,-22.0132"/>
<polygon fill="#191970" stroke="#191970" points="115.2963,-25.2515 123.4705,-18.5111 112.877,-18.6828 115.2963,-25.2515"/>
</g>
<!-- Node2 -->
<g id="node3" class="node">
<title>Node2</title>
<g id="a_node3"><a xlink:href="Conti2D_8cpp_a4bb34ae88cf16e429505f9eb746384cd.html#a4bb34ae88cf16e429505f9eb746384cd" target="_top" xlink:title="GetPmnij">
<polygon fill="#ffffff" stroke="#000000" points="276.3193,-129.5 276.3193,-147.5 333.4424,-147.5 333.4424,-129.5 276.3193,-129.5"/>
<text text-anchor="middle" x="304.8809" y="-135.5" font-family="Helvetica,sans-Serif" font-size="10.00" fill="#000000">GetPmnij</text>
</a>
</g>
</g>
<!-- Node1&#45;&gt;Node2 -->
<g id="edge2" class="edge">
<title>Node1&#45;&gt;Node2</title>
<path fill="none" stroke="#191970" d="M203.8792,-126.6946C224.2874,-129.08 247.1949,-131.7575 266.0283,-133.9588"/>
<polygon fill="#191970" stroke="#191970" points="265.6918,-137.4432 276.0305,-135.1279 266.5045,-130.4905 265.6918,-137.4432"/>
</g>
<!-- Node3 -->
<g id="node4" class="node">
<title>Node3</title>
<g id="a_node4"><a xlink:href="classMultiProgressBar_a58eef55ad6d5c7d769b3a402a2ef7b85.html#a58eef55ad6d5c7d769b3a402a2ef7b85" target="_top" xlink:title="MultiProgressBar::Update">
<polygon fill="#ffffff" stroke="#000000" points="239.6348,-92.5 239.6348,-110.5 370.127,-110.5 370.127,-92.5 239.6348,-92.5"/>
<text text-anchor="middle" x="304.8809" y="-98.5" font-family="Helvetica,sans-Serif" font-size="10.00" fill="#000000">MultiProgressBar::Update</text>
</a>
</g>
</g>
<!-- Node1&#45;&gt;Node3 -->
<g id="edge3" class="edge">
<title>Node1&#45;&gt;Node3</title>
<path fill="none" stroke="#191970" d="M203.8792,-113.9613C212.1338,-112.9428 220.7973,-111.874 229.4348,-110.8083"/>
<polygon fill="#191970" stroke="#191970" points="230.0402,-114.2602 239.5363,-109.562 229.183,-107.3129 230.0402,-114.2602"/>
</g>
</g>
</svg>
