<?xml version="1.0" encoding="UTF-8" standalone="no"?>
<!DOCTYPE svg PUBLIC "-//W3C//DTD SVG 1.1//EN"
 "http://www.w3.org/Graphics/SVG/1.1/DTD/svg11.dtd">
<!-- Generated by graphviz version 2.40.1 (20161225.0304)
 -->
<!-- Title: UWC_Gij Pages: 1 -->
<svg width="450pt" height="364pt"
 viewBox="0.00 0.00 450.30 364.00" xmlns="http://www.w3.org/2000/svg" xmlns:xlink="http://www.w3.org/1999/xlink">
<g id="graph0" class="graph" transform="scale(1 1) rotate(0) translate(4 360)">
<title>UWC_Gij</title>
<polygon fill="#ffffff" stroke="transparent" points="-4,4 -4,-360 446.2979,-360 446.2979,4 -4,4"/>
<!-- Node1 -->
<g id="node1" class="node">
<title>Node1</title>
<polygon fill="#bfbfbf" stroke="#000000" points="0,-168.5 0,-186.5 57.665,-186.5 57.665,-168.5 0,-168.5"/>
<text text-anchor="middle" x="28.8325" y="-174.5" font-family="Helvetica,sans-Serif" font-size="10.00" fill="#000000">UWC_Gij</text>
</g>
<!-- Node2 -->
<g id="node2" class="node">
<title>Node2</title>
<g id="a_node2"><a xlink:href="Conti2D_8h_a68e9e4a8817a29dce16c782fa8213faa.html#a68e9e4a8817a29dce16c782fa8213faa" target="_top" xlink:title="DWC_p2p_CGLS">
<polygon fill="#ffffff" stroke="#000000" points="112.0146,-337.5 112.0146,-355.5 206.9355,-355.5 206.9355,-337.5 112.0146,-337.5"/>
<text text-anchor="middle" x="159.4751" y="-343.5" font-family="Helvetica,sans-Serif" font-size="10.00" fill="#000000">DWC_p2p_CGLS</text>
</a>
</g>
</g>
<!-- Node1&#45;&gt;Node2 -->
<g id="edge1" class="edge">
<title>Node1&#45;&gt;Node2</title>
<path fill="none" stroke="#191970" d="M31.6493,-196.8469C37.3713,-229.0281 53.413,-293.472 93.665,-328.5 98.9369,-333.0877 105.2744,-336.5168 111.9062,-339.0778"/>
<polygon fill="#191970" stroke="#191970" points="35.0376,-195.8756 29.9824,-186.5646 28.1278,-196.9958 35.0376,-195.8756"/>
</g>
<!-- Node3 -->
<g id="node3" class="node">
<title>Node3</title>
<g id="a_node3"><a xlink:href="Conti2D_8h_a1bb3d1115c283e9063a98ee17fa9d31f.html#a1bb3d1115c283e9063a98ee17fa9d31f" target="_top" xlink:title="DWC_p2p_ItegrationIter">
<polygon fill="#ffffff" stroke="#000000" points="97.5591,-300.5 97.5591,-318.5 221.3911,-318.5 221.3911,-300.5 97.5591,-300.5"/>
<text text-anchor="middle" x="159.4751" y="-306.5" font-family="Helvetica,sans-Serif" font-size="10.00" fill="#000000">DWC_p2p_ItegrationIter</text>
</a>
</g>
</g>
<!-- Node1&#45;&gt;Node3 -->
<g id="edge2" class="edge">
<title>Node1&#45;&gt;Node3</title>
<path fill="none" stroke="#191970" d="M34.4874,-196.4141C43.0815,-221.8737 61.8818,-266.8153 93.665,-291.5 98.4361,-295.2055 103.918,-298.1489 109.6383,-300.4869"/>
<polygon fill="#191970" stroke="#191970" points="37.7972,-195.2729 31.421,-186.8115 31.1289,-197.4023 37.7972,-195.2729"/>
</g>
<!-- Node4 -->
<g id="node4" class="node">
<title>Node4</title>
<g id="a_node4"><a xlink:href="Conti2D_8h_a8affb7fb2246ce1c959f681fc7baaa05.html#a8affb7fb2246ce1c959f681fc7baaa05" target="_top" xlink:title="DWC_p2p_LandweberIter">
<polygon fill="#ffffff" stroke="#000000" points="93.665,-263.5 93.665,-281.5 225.2852,-281.5 225.2852,-263.5 93.665,-263.5"/>
<text text-anchor="middle" x="159.4751" y="-269.5" font-family="Helvetica,sans-Serif" font-size="10.00" fill="#000000">DWC_p2p_LandweberIter</text>
</a>
</g>
</g>
<!-- Node1&#45;&gt;Node4 -->
<g id="edge3" class="edge">
<title>Node1&#45;&gt;Node4</title>
<path fill="none" stroke="#191970" d="M40.9959,-195.0612C52.8165,-210.9659 72.1024,-234.0553 93.665,-248.5 103.1626,-254.8624 114.5584,-259.7882 125.1778,-263.4747"/>
<polygon fill="#191970" stroke="#191970" points="43.6212,-192.7173 34.938,-186.6466 37.9402,-196.8072 43.6212,-192.7173"/>
</g>
<!-- Node5 -->
<g id="node5" class="node">
<title>Node5</title>
<g id="a_node5"><a xlink:href="Conti2D_8h_a6516cfeb71abcf844b32f101e5f77a71.html#a6516cfeb71abcf844b32f101e5f77a71" target="_top" xlink:title="DWC_s2p_CGLS">
<polygon fill="#ffffff" stroke="#000000" points="112.2954,-150.5 112.2954,-168.5 206.6548,-168.5 206.6548,-150.5 112.2954,-150.5"/>
<text text-anchor="middle" x="159.4751" y="-156.5" font-family="Helvetica,sans-Serif" font-size="10.00" fill="#000000">DWC_s2p_CGLS</text>
</a>
</g>
</g>
<!-- Node1&#45;&gt;Node5 -->
<g id="edge4" class="edge">
<title>Node1&#45;&gt;Node5</title>
<path fill="none" stroke="#191970" d="M68.009,-172.1022C81.8729,-170.1921 97.6185,-168.0226 112.0908,-166.0286"/>
<polygon fill="#191970" stroke="#191970" points="67.255,-168.673 57.8263,-173.5052 68.2105,-175.6075 67.255,-168.673"/>
</g>
<!-- Node9 -->
<g id="node9" class="node">
<title>Node9</title>
<g id="a_node9"><a xlink:href="Conti2D_8h_a39a6a4cc378c878de458d5ae56eb1630.html#a39a6a4cc378c878de458d5ae56eb1630" target="_top" xlink:title="DWC_s2p_ItegrationIter">
<polygon fill="#ffffff" stroke="#000000" points="97.8398,-113.5 97.8398,-131.5 221.1104,-131.5 221.1104,-113.5 97.8398,-113.5"/>
<text text-anchor="middle" x="159.4751" y="-119.5" font-family="Helvetica,sans-Serif" font-size="10.00" fill="#000000">DWC_s2p_ItegrationIter</text>
</a>
</g>
</g>
<!-- Node1&#45;&gt;Node9 -->
<g id="edge9" class="edge">
<title>Node1&#45;&gt;Node9</title>
<path fill="none" stroke="#191970" d="M51.867,-163.036C63.9783,-155.8667 79.2655,-147.486 93.665,-141.5 102.889,-137.6655 113.1453,-134.3017 122.7633,-131.5126"/>
<polygon fill="#191970" stroke="#191970" points="50.0371,-160.0523 43.2918,-168.2224 53.6598,-166.042 50.0371,-160.0523"/>
</g>
<!-- Node10 -->
<g id="node10" class="node">
<title>Node10</title>
<g id="a_node10"><a xlink:href="Conti2D_8h_a30671331e25e6cfa739e77aec57b7f18.html#a30671331e25e6cfa739e77aec57b7f18" target="_top" xlink:title="DWC_s2p_LandweberIter">
<polygon fill="#ffffff" stroke="#000000" points="93.9458,-187.5 93.9458,-205.5 225.0044,-205.5 225.0044,-187.5 93.9458,-187.5"/>
<text text-anchor="middle" x="159.4751" y="-193.5" font-family="Helvetica,sans-Serif" font-size="10.00" fill="#000000">DWC_s2p_LandweberIter</text>
</a>
</g>
</g>
<!-- Node1&#45;&gt;Node10 -->
<g id="edge12" class="edge">
<title>Node1&#45;&gt;Node10</title>
<path fill="none" stroke="#191970" d="M67.909,-183.1831C77.2045,-184.535 87.3504,-186.0106 97.394,-187.4712"/>
<polygon fill="#191970" stroke="#191970" points="68.226,-179.6924 57.8263,-181.7167 67.2185,-186.6196 68.226,-179.6924"/>
</g>
<!-- Node11 -->
<g id="node11" class="node">
<title>Node11</title>
<g id="a_node11"><a xlink:href="Conti2D_8h_aca8df189bd3e80e2041b22f7691d87b0.html#aca8df189bd3e80e2041b22f7691d87b0" target="_top" xlink:title="DWC_Tikhonov_old">
<polygon fill="#ffffff" stroke="#000000" points="107.1953,-37.5 107.1953,-55.5 211.7549,-55.5 211.7549,-37.5 107.1953,-37.5"/>
<text text-anchor="middle" x="159.4751" y="-43.5" font-family="Helvetica,sans-Serif" font-size="10.00" fill="#000000">DWC_Tikhonov_old</text>
</a>
</g>
</g>
<!-- Node1&#45;&gt;Node11 -->
<g id="edge15" class="edge">
<title>Node1&#45;&gt;Node11</title>
<path fill="none" stroke="#191970" d="M35.6313,-158.7537C45.1342,-135.0393 64.5603,-94.4171 93.665,-70.5 101.6516,-63.937 111.5897,-59.0864 121.3031,-55.5345"/>
<polygon fill="#191970" stroke="#191970" points="32.2685,-157.7485 31.9642,-168.339 38.8064,-160.2497 32.2685,-157.7485"/>
</g>
<!-- Node12 -->
<g id="node12" class="node">
<title>Node12</title>
<g id="a_node12"><a xlink:href="Conti2D_8h_a4a8eda8a2eef4509306c37faad796c2f.html#a4a8eda8a2eef4509306c37faad796c2f" target="_top" xlink:title="UWC_G_CGLS_Tik">
<polygon fill="#ffffff" stroke="#000000" points="107.2051,-.5 107.2051,-18.5 211.7451,-18.5 211.7451,-.5 107.2051,-.5"/>
<text text-anchor="middle" x="159.4751" y="-6.5" font-family="Helvetica,sans-Serif" font-size="10.00" fill="#000000">UWC_G_CGLS_Tik</text>
</a>
</g>
</g>
<!-- Node1&#45;&gt;Node12 -->
<g id="edge16" class="edge">
<title>Node1&#45;&gt;Node12</title>
<path fill="none" stroke="#191970" d="M31.6891,-158.2786C37.4699,-126.3066 53.5959,-62.2838 93.665,-27.5 97.8691,-23.8505 102.7477,-20.9343 107.9115,-18.6052"/>
<polygon fill="#191970" stroke="#191970" points="28.1783,-158.0575 30.0023,-168.4941 35.0848,-159.198 28.1783,-158.0575"/>
</g>
<!-- Node14 -->
<g id="node14" class="node">
<title>Node14</title>
<g id="a_node14"><a xlink:href="Conti2D_8h_a7b6bfe9f5b32bc1a62005196d84edfde.html#a7b6bfe9f5b32bc1a62005196d84edfde" target="_top" xlink:title="UWC_p2p">
<polygon fill="#ffffff" stroke="#000000" points="283.8901,-215.5 283.8901,-233.5 346.0181,-233.5 346.0181,-215.5 283.8901,-215.5"/>
<text text-anchor="middle" x="314.9541" y="-221.5" font-family="Helvetica,sans-Serif" font-size="10.00" fill="#000000">UWC_p2p</text>
</a>
</g>
</g>
<!-- Node1&#45;&gt;Node14 -->
<g id="edge18" class="edge">
<title>Node1&#45;&gt;Node14</title>
<path fill="none" stroke="#191970" d="M48.9188,-192.7606C61.1558,-201.1356 77.504,-210.7582 93.665,-215.5 159.153,-234.715 240.2117,-231.6109 283.7657,-227.9005"/>
<polygon fill="#191970" stroke="#191970" points="50.6056,-189.6644 40.4336,-186.7009 46.5374,-195.3608 50.6056,-189.6644"/>
</g>
<!-- Node15 -->
<g id="node15" class="node">
<title>Node15</title>
<g id="a_node15"><a xlink:href="Conti2D_8h_af8adb87017663774bfd342b39facc828.html#af8adb87017663774bfd342b39facc828" target="_top" xlink:title="Upward continuation from plane to surface. ">
<polygon fill="#ffffff" stroke="#000000" points="284.1709,-85.5 284.1709,-103.5 345.7373,-103.5 345.7373,-85.5 284.1709,-85.5"/>
<text text-anchor="middle" x="314.9541" y="-91.5" font-family="Helvetica,sans-Serif" font-size="10.00" fill="#000000">UWC_p2s</text>
</a>
</g>
</g>
<!-- Node1&#45;&gt;Node15 -->
<g id="edge20" class="edge">
<title>Node1&#45;&gt;Node15</title>
<path fill="none" stroke="#191970" d="M38.7818,-159.7054C49.7021,-142.1396 69.0075,-116.2554 93.665,-104.5 155.8035,-74.8757 239.2349,-81.7901 283.8025,-88.6296"/>
<polygon fill="#191970" stroke="#191970" points="35.6783,-158.0775 33.597,-168.4659 41.7023,-161.6428 35.6783,-158.0775"/>
</g>
<!-- Node6 -->
<g id="node6" class="node">
<title>Node6</title>
<g id="a_node6"><a xlink:href="Conti2D_8h_ac96429563a5015babafa3274c3f3ec73.html#ac96429563a5015babafa3274c3f3ec73" target="_top" xlink:title="downward continuation from surface to plane ">
<polygon fill="#ffffff" stroke="#000000" points="284.1709,-159.5 284.1709,-177.5 345.7373,-177.5 345.7373,-159.5 284.1709,-159.5"/>
<text text-anchor="middle" x="314.9541" y="-165.5" font-family="Helvetica,sans-Serif" font-size="10.00" fill="#000000">DWC_s2p</text>
</a>
</g>
</g>
<!-- Node5&#45;&gt;Node6 -->
<g id="edge5" class="edge">
<title>Node5&#45;&gt;Node6</title>
<path fill="none" stroke="#191970" d="M217.1632,-162.8393C239.7895,-164.149 264.8481,-165.5996 283.9342,-166.7044"/>
<polygon fill="#191970" stroke="#191970" points="217.1543,-159.333 206.9687,-162.2492 216.7497,-166.3213 217.1543,-159.333"/>
</g>
<!-- Node8 -->
<g id="node8" class="node">
<title>Node8</title>
<g id="a_node8"><a xlink:href="Conti2D_8h_ab87ce573de93575b7ece2e4f772e03fd.html#ab87ce573de93575b7ece2e4f772e03fd" target="_top" xlink:title="DWC_p2p">
<polygon fill="#ffffff" stroke="#000000" points="283.8901,-122.5 283.8901,-140.5 346.0181,-140.5 346.0181,-122.5 283.8901,-122.5"/>
<text text-anchor="middle" x="314.9541" y="-128.5" font-family="Helvetica,sans-Serif" font-size="10.00" fill="#000000">DWC_p2p</text>
</a>
</g>
</g>
<!-- Node5&#45;&gt;Node8 -->
<g id="edge7" class="edge">
<title>Node5&#45;&gt;Node8</title>
<path fill="none" stroke="#191970" d="M217.089,-149.1244C239.5483,-145.0797 264.4145,-140.6016 283.4613,-137.1715"/>
<polygon fill="#191970" stroke="#191970" points="216.1901,-145.7299 206.9687,-150.9469 217.4308,-152.6191 216.1901,-145.7299"/>
</g>
<!-- Node7 -->
<g id="node7" class="node">
<title>Node7</title>
<g id="a_node7"><a xlink:href="main_8cpp_a0ddf1224851353fc92bfbff6f499fa97.html#a0ddf1224851353fc92bfbff6f499fa97" target="_top" xlink:title="main">
<polygon fill="#ffffff" stroke="#000000" points="404.623,-140.5 404.623,-158.5 442.2979,-158.5 442.2979,-140.5 404.623,-140.5"/>
<text text-anchor="middle" x="423.4604" y="-146.5" font-family="Helvetica,sans-Serif" font-size="10.00" fill="#000000">main</text>
</a>
</g>
</g>
<!-- Node6&#45;&gt;Node7 -->
<g id="edge6" class="edge">
<title>Node6&#45;&gt;Node7</title>
<path fill="none" stroke="#191970" d="M355.8699,-161.3354C372.5839,-158.4087 391.0984,-155.1668 404.5174,-152.817"/>
<polygon fill="#191970" stroke="#191970" points="355.0038,-157.9338 345.7574,-163.1062 356.2113,-164.8288 355.0038,-157.9338"/>
</g>
<!-- Node8&#45;&gt;Node7 -->
<g id="edge8" class="edge">
<title>Node8&#45;&gt;Node7</title>
<path fill="none" stroke="#191970" d="M356.1479,-138.3336C372.8312,-141.1012 391.2662,-144.1593 404.6192,-146.3744"/>
<polygon fill="#191970" stroke="#191970" points="356.4857,-134.8419 346.0477,-136.6581 355.34,-141.7475 356.4857,-134.8419"/>
</g>
<!-- Node9&#45;&gt;Node6 -->
<g id="edge10" class="edge">
<title>Node9&#45;&gt;Node6</title>
<path fill="none" stroke="#191970" d="M200.685,-134.3195C208.8423,-136.6812 217.3381,-139.1564 225.2852,-141.5 245.2455,-147.3863 267.6627,-154.1363 285.0899,-159.4147"/>
<polygon fill="#191970" stroke="#191970" points="201.5409,-130.9238 190.9624,-131.5116 199.5987,-137.6489 201.5409,-130.9238"/>
</g>
<!-- Node9&#45;&gt;Node8 -->
<g id="edge11" class="edge">
<title>Node9&#45;&gt;Node8</title>
<path fill="none" stroke="#191970" d="M231.4704,-126.6675C249.7747,-127.727 268.506,-128.8113 283.5754,-129.6836"/>
<polygon fill="#191970" stroke="#191970" points="231.5568,-123.1667 221.3713,-126.0829 231.1523,-130.155 231.5568,-123.1667"/>
</g>
<!-- Node10&#45;&gt;Node6 -->
<g id="edge13" class="edge">
<title>Node10&#45;&gt;Node6</title>
<path fill="none" stroke="#191970" d="M219.4837,-185.6931C241.5246,-181.7238 265.5741,-177.3928 284.0215,-174.0706"/>
<polygon fill="#191970" stroke="#191970" points="218.7468,-182.2695 209.5255,-187.4865 219.9875,-189.1586 218.7468,-182.2695"/>
</g>
<!-- Node10&#45;&gt;Node8 -->
<g id="edge14" class="edge">
<title>Node10&#45;&gt;Node8</title>
<path fill="none" stroke="#191970" d="M211.7883,-184.2573C216.4437,-182.5533 221.0084,-180.6403 225.2852,-178.5 243.4117,-169.4284 243.5031,-160.2294 261.2852,-150.5 268.3955,-146.6096 276.4572,-143.2621 284.1313,-140.5089"/>
<polygon fill="#191970" stroke="#191970" points="210.546,-180.9821 202.1681,-187.4676 212.7618,-187.6221 210.546,-180.9821"/>
</g>
<!-- Node13 -->
<g id="node13" class="node">
<title>Node13</title>
<g id="a_node13"><a xlink:href="Conti2D_8h_a08f63b90a388692c22c4799d19a80207.html#a08f63b90a388692c22c4799d19a80207" target="_top" xlink:title="DWC_s2p_Tikhonov">
<polygon fill="#ffffff" stroke="#000000" points="261.2852,-.5 261.2852,-18.5 368.623,-18.5 368.623,-.5 261.2852,-.5"/>
<text text-anchor="middle" x="314.9541" y="-6.5" font-family="Helvetica,sans-Serif" font-size="10.00" fill="#000000">DWC_s2p_Tikhonov</text>
</a>
</g>
</g>
<!-- Node12&#45;&gt;Node13 -->
<g id="edge17" class="edge">
<title>Node12&#45;&gt;Node13</title>
<path fill="none" stroke="#191970" d="M222.2701,-9.5C235.1214,-9.5 248.5389,-9.5 261.0455,-9.5"/>
<polygon fill="#191970" stroke="#191970" points="222.1132,-6.0001 212.1132,-9.5 222.1132,-13.0001 222.1132,-6.0001"/>
</g>
<!-- Node14&#45;&gt;Node7 -->
<g id="edge19" class="edge">
<title>Node14&#45;&gt;Node7</title>
<path fill="none" stroke="#191970" d="M336.5553,-209.6253C346.3486,-202.8771 358.0739,-194.7914 368.623,-187.5 382.9155,-177.6213 399.2859,-166.2729 410.3922,-158.5688"/>
<polygon fill="#191970" stroke="#191970" points="334.4431,-206.8302 328.1936,-215.3856 338.4143,-212.5948 334.4431,-206.8302"/>
</g>
<!-- Node15&#45;&gt;Node7 -->
<g id="edge21" class="edge">
<title>Node15&#45;&gt;Node7</title>
<path fill="none" stroke="#191970" d="M353.9921,-107.0687C358.9935,-109.0417 363.9829,-111.1977 368.623,-113.5 384.1298,-121.1942 400.5546,-132.4429 411.3405,-140.3127"/>
<polygon fill="#191970" stroke="#191970" points="355.0412,-103.7245 344.4485,-103.5096 352.5952,-110.2833 355.0412,-103.7245"/>
</g>
</g>
</svg>
