<?xml version="1.0" encoding="UTF-8" standalone="no"?>
<!DOCTYPE svg PUBLIC "-//W3C//DTD SVG 1.1//EN"
 "http://www.w3.org/Graphics/SVG/1.1/DTD/svg11.dtd">
<!-- Generated by graphviz version 2.40.1 (20161225.0304)
 -->
<!-- Title: SaveGrd Pages: 1 -->
<svg width="411pt" height="488pt"
 viewBox="0.00 0.00 411.23 488.49" xmlns="http://www.w3.org/2000/svg" xmlns:xlink="http://www.w3.org/1999/xlink">
<g id="graph0" class="graph" transform="scale(1 1) rotate(0) translate(4 484.4876)">
<title>SaveGrd</title>
<polygon fill="#ffffff" stroke="transparent" points="-4,4 -4,-484.4876 407.2256,-484.4876 407.2256,4 -4,4"/>
<!-- Node1 -->
<g id="node1" class="node">
<title>Node1</title>
<polygon fill="#bfbfbf" stroke="#000000" points="0,-225.5 0,-243.5 55.4629,-243.5 55.4629,-225.5 0,-225.5"/>
<text text-anchor="middle" x="27.7314" y="-231.5" font-family="Helvetica,sans-Serif" font-size="10.00" fill="#000000">SaveGrd</text>
</g>
<!-- Node2 -->
<g id="node2" class="node">
<title>Node2</title>
<g id="a_node2"><a xlink:href="Conti2D_8h_ab87ce573de93575b7ece2e4f772e03fd.html#ab87ce573de93575b7ece2e4f772e03fd" target="_top" xlink:title="DWC_p2p">
<polygon fill="#ffffff" stroke="#000000" points="263.2529,-394.5 263.2529,-412.5 325.3809,-412.5 325.3809,-394.5 263.2529,-394.5"/>
<text text-anchor="middle" x="294.3169" y="-400.5" font-family="Helvetica,sans-Serif" font-size="10.00" fill="#000000">DWC_p2p</text>
</a>
</g>
</g>
<!-- Node1&#45;&gt;Node2 -->
<g id="edge1" class="edge">
<title>Node1&#45;&gt;Node2</title>
<path fill="none" stroke="#191970" d="M30.2158,-253.7051C37.0802,-303.4229 58.0387,-434.2283 91.4629,-459.5 138.1244,-494.7803 167.8009,-478.6282 223.083,-459.5 249.8422,-450.241 274.1882,-426.3169 286.2853,-412.928"/>
<polygon fill="#191970" stroke="#191970" points="33.6658,-253.0978 28.869,-243.651 26.7278,-254.0272 33.6658,-253.0978"/>
</g>
<!-- Node4 -->
<g id="node4" class="node">
<title>Node4</title>
<g id="a_node4"><a xlink:href="Conti2D_8h_a68e9e4a8817a29dce16c782fa8213faa.html#a68e9e4a8817a29dce16c782fa8213faa" target="_top" xlink:title="DWC_p2p_CGLS">
<polygon fill="#ffffff" stroke="#000000" points="109.8125,-111.5 109.8125,-129.5 204.7334,-129.5 204.7334,-111.5 109.8125,-111.5"/>
<text text-anchor="middle" x="157.2729" y="-117.5" font-family="Helvetica,sans-Serif" font-size="10.00" fill="#000000">DWC_p2p_CGLS</text>
</a>
</g>
</g>
<!-- Node1&#45;&gt;Node4 -->
<g id="edge3" class="edge">
<title>Node1&#45;&gt;Node4</title>
<path fill="none" stroke="#191970" d="M36.3044,-216.3996C46.7154,-196.2211 66.0792,-163.8838 91.4629,-144.5 99.9686,-138.0048 110.403,-133.1391 120.435,-129.5502"/>
<polygon fill="#191970" stroke="#191970" points="33.1161,-214.9509 31.8084,-225.4647 39.3872,-218.0612 33.1161,-214.9509"/>
</g>
<!-- Node5 -->
<g id="node5" class="node">
<title>Node5</title>
<g id="a_node5"><a xlink:href="Conti2D_8h_afb187c363388d28caa8a055176269f12.html#afb187c363388d28caa8a055176269f12" target="_top" xlink:title="DWC_p2p_f">
<polygon fill="#ffffff" stroke="#000000" points="259.083,-263.5 259.083,-281.5 329.5508,-281.5 329.5508,-263.5 259.083,-263.5"/>
<text text-anchor="middle" x="294.3169" y="-269.5" font-family="Helvetica,sans-Serif" font-size="10.00" fill="#000000">DWC_p2p_f</text>
</a>
</g>
</g>
<!-- Node1&#45;&gt;Node5 -->
<g id="edge4" class="edge">
<title>Node1&#45;&gt;Node5</title>
<path fill="none" stroke="#191970" d="M47.4389,-249.5683C59.4551,-257.7951 75.5252,-267.1668 91.4629,-271.5 148.3868,-286.9767 217.6632,-282.6288 258.7582,-277.773"/>
<polygon fill="#191970" stroke="#191970" points="49.2775,-246.5801 39.1096,-243.6028 45.2016,-252.271 49.2775,-246.5801"/>
</g>
<!-- Node6 -->
<g id="node6" class="node">
<title>Node6</title>
<g id="a_node6"><a xlink:href="Conti2D_8h_a1bb3d1115c283e9063a98ee17fa9d31f.html#a1bb3d1115c283e9063a98ee17fa9d31f" target="_top" xlink:title="DWC_p2p_ItegrationIter">
<polygon fill="#ffffff" stroke="#000000" points="95.3569,-74.5 95.3569,-92.5 219.189,-92.5 219.189,-74.5 95.3569,-74.5"/>
<text text-anchor="middle" x="157.2729" y="-80.5" font-family="Helvetica,sans-Serif" font-size="10.00" fill="#000000">DWC_p2p_ItegrationIter</text>
</a>
</g>
</g>
<!-- Node1&#45;&gt;Node6 -->
<g id="edge6" class="edge">
<title>Node1&#45;&gt;Node6</title>
<path fill="none" stroke="#191970" d="M31.5761,-215.4247C38.4278,-186.4303 55.5395,-131.4802 91.4629,-101.5 95.8281,-97.857 100.8699,-94.9473 106.1813,-92.624"/>
<polygon fill="#191970" stroke="#191970" points="28.0944,-214.9621 29.3699,-225.4799 34.9317,-216.4624 28.0944,-214.9621"/>
</g>
<!-- Node7 -->
<g id="node7" class="node">
<title>Node7</title>
<g id="a_node7"><a xlink:href="Conti2D_8h_a8affb7fb2246ce1c959f681fc7baaa05.html#a8affb7fb2246ce1c959f681fc7baaa05" target="_top" xlink:title="DWC_p2p_LandweberIter">
<polygon fill="#ffffff" stroke="#000000" points="91.4629,-37.5 91.4629,-55.5 223.083,-55.5 223.083,-37.5 91.4629,-37.5"/>
<text text-anchor="middle" x="157.2729" y="-43.5" font-family="Helvetica,sans-Serif" font-size="10.00" fill="#000000">DWC_p2p_LandweberIter</text>
</a>
</g>
</g>
<!-- Node1&#45;&gt;Node7 -->
<g id="edge7" class="edge">
<title>Node1&#45;&gt;Node7</title>
<path fill="none" stroke="#191970" d="M29.3504,-215.1981C33.3588,-179.9677 46.9178,-105.1371 91.4629,-64.5 95.4882,-60.8278 100.1918,-57.8941 105.1999,-55.5521"/>
<polygon fill="#191970" stroke="#191970" points="25.8675,-214.8534 28.3574,-225.1515 32.8329,-215.5484 25.8675,-214.8534"/>
</g>
<!-- Node8 -->
<g id="node8" class="node">
<title>Node8</title>
<g id="a_node8"><a xlink:href="Conti2D_8h_ac96429563a5015babafa3274c3f3ec73.html#ac96429563a5015babafa3274c3f3ec73" target="_top" xlink:title="downward continuation from surface to plane ">
<polygon fill="#ffffff" stroke="#000000" points="263.5337,-357.5 263.5337,-375.5 325.1001,-375.5 325.1001,-357.5 263.5337,-357.5"/>
<text text-anchor="middle" x="294.3169" y="-363.5" font-family="Helvetica,sans-Serif" font-size="10.00" fill="#000000">DWC_s2p</text>
</a>
</g>
</g>
<!-- Node1&#45;&gt;Node8 -->
<g id="edge8" class="edge">
<title>Node1&#45;&gt;Node8</title>
<path fill="none" stroke="#191970" d="M43.1105,-250.9234C55.2839,-263.1593 73.2203,-279.5725 91.4629,-290.5 147.923,-324.3201 221.9853,-347.4166 263.2005,-358.6466"/>
<polygon fill="#191970" stroke="#191970" points="45.4709,-248.3299 35.9977,-243.5856 40.4447,-253.202 45.4709,-248.3299"/>
</g>
<!-- Node9 -->
<g id="node9" class="node">
<title>Node9</title>
<g id="a_node9"><a xlink:href="Conti2D_8h_a6516cfeb71abcf844b32f101e5f77a71.html#a6516cfeb71abcf844b32f101e5f77a71" target="_top" xlink:title="DWC_s2p_CGLS">
<polygon fill="#ffffff" stroke="#000000" points="110.0933,-431.5 110.0933,-449.5 204.4526,-449.5 204.4526,-431.5 110.0933,-431.5"/>
<text text-anchor="middle" x="157.2729" y="-437.5" font-family="Helvetica,sans-Serif" font-size="10.00" fill="#000000">DWC_s2p_CGLS</text>
</a>
</g>
</g>
<!-- Node1&#45;&gt;Node9 -->
<g id="edge10" class="edge">
<title>Node1&#45;&gt;Node9</title>
<path fill="none" stroke="#191970" d="M31.7962,-253.4935C41.3319,-296.3639 66.2455,-398.7486 91.4629,-422.5 96.7227,-427.454 103.2124,-431.0691 110.0473,-433.7021"/>
<polygon fill="#191970" stroke="#191970" points="35.1723,-252.5477 29.619,-243.5249 28.3335,-254.0414 35.1723,-252.5477"/>
</g>
<!-- Node10 -->
<g id="node10" class="node">
<title>Node10</title>
<g id="a_node10"><a xlink:href="Conti2D_8h_a39a6a4cc378c878de458d5ae56eb1630.html#a39a6a4cc378c878de458d5ae56eb1630" target="_top" xlink:title="DWC_s2p_ItegrationIter">
<polygon fill="#ffffff" stroke="#000000" points="95.6377,-394.5 95.6377,-412.5 218.9082,-412.5 218.9082,-394.5 95.6377,-394.5"/>
<text text-anchor="middle" x="157.2729" y="-400.5" font-family="Helvetica,sans-Serif" font-size="10.00" fill="#000000">DWC_s2p_ItegrationIter</text>
</a>
</g>
</g>
<!-- Node1&#45;&gt;Node10 -->
<g id="edge13" class="edge">
<title>Node1&#45;&gt;Node10</title>
<path fill="none" stroke="#191970" d="M30.398,-253.8399C35.872,-286.0109 51.4245,-350.4402 91.4629,-385.5 95.6512,-389.1676 100.5199,-392.0951 105.678,-394.4309"/>
<polygon fill="#191970" stroke="#191970" points="33.796,-252.9098 28.8107,-243.5611 26.878,-253.9782 33.796,-252.9098"/>
</g>
<!-- Node11 -->
<g id="node11" class="node">
<title>Node11</title>
<g id="a_node11"><a xlink:href="Conti2D_8h_a30671331e25e6cfa739e77aec57b7f18.html#a30671331e25e6cfa739e77aec57b7f18" target="_top" xlink:title="DWC_s2p_LandweberIter">
<polygon fill="#ffffff" stroke="#000000" points="91.7437,-357.5 91.7437,-375.5 222.8022,-375.5 222.8022,-357.5 91.7437,-357.5"/>
<text text-anchor="middle" x="157.2729" y="-363.5" font-family="Helvetica,sans-Serif" font-size="10.00" fill="#000000">DWC_s2p_LandweberIter</text>
</a>
</g>
</g>
<!-- Node1&#45;&gt;Node11 -->
<g id="edge16" class="edge">
<title>Node1&#45;&gt;Node11</title>
<path fill="none" stroke="#191970" d="M34.2829,-253.4209C43.4838,-277.3563 62.43,-318.3574 91.4629,-342.5 99.3176,-349.0316 109.1031,-353.8609 118.7067,-357.4017"/>
<polygon fill="#191970" stroke="#191970" points="37.4654,-251.9329 30.74,-243.7463 30.8923,-254.3401 37.4654,-251.9329"/>
</g>
<!-- Node12 -->
<g id="node12" class="node">
<title>Node12</title>
<g id="a_node12"><a xlink:href="Conti2D_8h_a08f63b90a388692c22c4799d19a80207.html#a08f63b90a388692c22c4799d19a80207" target="_top" xlink:title="DWC_s2p_Tikhonov">
<polygon fill="#ffffff" stroke="#000000" points="103.604,-.5 103.604,-18.5 210.9419,-18.5 210.9419,-.5 103.604,-.5"/>
<text text-anchor="middle" x="157.2729" y="-6.5" font-family="Helvetica,sans-Serif" font-size="10.00" fill="#000000">DWC_s2p_Tikhonov</text>
</a>
</g>
</g>
<!-- Node1&#45;&gt;Node12 -->
<g id="edge19" class="edge">
<title>Node1&#45;&gt;Node12</title>
<path fill="none" stroke="#191970" d="M31.2392,-215.1368C39.9811,-168.9312 64.0184,-54.0883 91.4629,-27.5 95.2061,-23.8735 99.6067,-20.9619 104.3281,-18.6266"/>
<polygon fill="#191970" stroke="#191970" points="27.7778,-214.6076 29.3955,-225.0782 34.6604,-215.8841 27.7778,-214.6076"/>
</g>
<!-- Node13 -->
<g id="node13" class="node">
<title>Node13</title>
<g id="a_node13"><a xlink:href="Conti2D_8h_a7b6bfe9f5b32bc1a62005196d84edfde.html#a7b6bfe9f5b32bc1a62005196d84edfde" target="_top" xlink:title="UWC_p2p">
<polygon fill="#ffffff" stroke="#000000" points="263.2529,-187.5 263.2529,-205.5 325.3809,-205.5 325.3809,-187.5 263.2529,-187.5"/>
<text text-anchor="middle" x="294.3169" y="-193.5" font-family="Helvetica,sans-Serif" font-size="10.00" fill="#000000">UWC_p2p</text>
</a>
</g>
</g>
<!-- Node1&#45;&gt;Node13 -->
<g id="edge20" class="edge">
<title>Node1&#45;&gt;Node13</title>
<path fill="none" stroke="#191970" d="M65.3923,-222.6744C73.8991,-220.3367 82.9369,-218.1112 91.4629,-216.5 151.6202,-205.1319 223.1106,-199.9949 263.144,-197.8589"/>
<polygon fill="#191970" stroke="#191970" points="64.3661,-219.3275 55.7124,-225.44 66.2891,-226.0582 64.3661,-219.3275"/>
</g>
<!-- Node14 -->
<g id="node14" class="node">
<title>Node14</title>
<g id="a_node14"><a xlink:href="Conti2D_8h_af82757cb7e0f4f398e774b4e89b9ea72.html#af82757cb7e0f4f398e774b4e89b9ea72" target="_top" xlink:title="UWC_p2p_f">
<polygon fill="#ffffff" stroke="#000000" points="122.0391,-225.5 122.0391,-243.5 192.5068,-243.5 192.5068,-225.5 122.0391,-225.5"/>
<text text-anchor="middle" x="157.2729" y="-231.5" font-family="Helvetica,sans-Serif" font-size="10.00" fill="#000000">UWC_p2p_f</text>
</a>
</g>
</g>
<!-- Node1&#45;&gt;Node14 -->
<g id="edge22" class="edge">
<title>Node1&#45;&gt;Node14</title>
<path fill="none" stroke="#191970" d="M66.0142,-234.5C83.6161,-234.5 104.371,-234.5 121.6368,-234.5"/>
<polygon fill="#191970" stroke="#191970" points="65.5214,-231.0001 55.5213,-234.5 65.5213,-238.0001 65.5214,-231.0001"/>
</g>
<!-- Node15 -->
<g id="node15" class="node">
<title>Node15</title>
<g id="a_node15"><a xlink:href="Conti2D_8h_af8adb87017663774bfd342b39facc828.html#af8adb87017663774bfd342b39facc828" target="_top" xlink:title="Upward continuation from plane to surface. ">
<polygon fill="#ffffff" stroke="#000000" points="263.5337,-150.5 263.5337,-168.5 325.1001,-168.5 325.1001,-150.5 263.5337,-150.5"/>
<text text-anchor="middle" x="294.3169" y="-156.5" font-family="Helvetica,sans-Serif" font-size="10.00" fill="#000000">UWC_p2s</text>
</a>
</g>
</g>
<!-- Node1&#45;&gt;Node15 -->
<g id="edge26" class="edge">
<title>Node1&#45;&gt;Node15</title>
<path fill="none" stroke="#191970" d="M48.6145,-219.4491C60.6136,-211.484 76.2778,-202.199 91.4629,-196.5 149.9484,-174.5502 222.9546,-165.3327 263.5113,-161.6884"/>
<polygon fill="#191970" stroke="#191970" points="46.4916,-216.6609 40.2219,-225.2015 50.4491,-222.4348 46.4916,-216.6609"/>
</g>
<!-- Node3 -->
<g id="node3" class="node">
<title>Node3</title>
<g id="a_node3"><a xlink:href="main_8cpp_a0ddf1224851353fc92bfbff6f499fa97.html#a0ddf1224851353fc92bfbff6f499fa97" target="_top" xlink:title="main">
<polygon fill="#ffffff" stroke="#000000" points="365.5508,-244.5 365.5508,-262.5 403.2256,-262.5 403.2256,-244.5 365.5508,-244.5"/>
<text text-anchor="middle" x="384.3882" y="-250.5" font-family="Helvetica,sans-Serif" font-size="10.00" fill="#000000">main</text>
</a>
</g>
</g>
<!-- Node2&#45;&gt;Node3 -->
<g id="edge2" class="edge">
<title>Node2&#45;&gt;Node3</title>
<path fill="none" stroke="#191970" d="M326.2637,-388.6405C327.4279,-387.6497 328.5308,-386.6034 329.5508,-385.5 364.0822,-348.1432 378.4739,-285.9706 382.8376,-262.6813"/>
<polygon fill="#191970" stroke="#191970" points="324.1658,-385.8356 317.9195,-394.3933 328.1391,-391.5987 324.1658,-385.8356"/>
</g>
<!-- Node5&#45;&gt;Node3 -->
<g id="edge5" class="edge">
<title>Node5&#45;&gt;Node3</title>
<path fill="none" stroke="#191970" d="M339.5367,-262.9611C348.7042,-261.0273 357.8615,-259.0956 365.4891,-257.4866"/>
<polygon fill="#191970" stroke="#191970" points="338.7192,-259.5565 329.6569,-265.0452 340.164,-266.4058 338.7192,-259.5565"/>
</g>
<!-- Node8&#45;&gt;Node3 -->
<g id="edge9" class="edge">
<title>Node8&#45;&gt;Node3</title>
<path fill="none" stroke="#191970" d="M308.0792,-349.2344C327.4816,-324.8929 362.1801,-281.3614 377.1672,-262.5592"/>
<polygon fill="#191970" stroke="#191970" points="305.184,-347.2514 301.6878,-357.2527 310.6578,-351.6145 305.184,-347.2514"/>
</g>
<!-- Node9&#45;&gt;Node2 -->
<g id="edge11" class="edge">
<title>Node9&#45;&gt;Node2</title>
<path fill="none" stroke="#191970" d="M200.7215,-428.7695C220.954,-423.307 244.5695,-416.9311 263.0172,-411.9505"/>
<polygon fill="#191970" stroke="#191970" points="199.5397,-425.4632 190.7977,-431.4488 201.3643,-432.2212 199.5397,-425.4632"/>
</g>
<!-- Node9&#45;&gt;Node8 -->
<g id="edge12" class="edge">
<title>Node9&#45;&gt;Node8</title>
<path fill="none" stroke="#191970" d="M212.2995,-427.8935C216.046,-426.2982 219.6798,-424.5079 223.083,-422.5 242.8438,-410.841 240.7738,-399.3272 259.083,-385.5 263.9634,-381.8143 269.6519,-378.4174 275.0162,-375.5463"/>
<polygon fill="#191970" stroke="#191970" points="210.9422,-424.6647 202.8219,-431.47 213.4137,-431.2139 210.9422,-424.6647"/>
</g>
<!-- Node10&#45;&gt;Node2 -->
<g id="edge14" class="edge">
<title>Node10&#45;&gt;Node2</title>
<path fill="none" stroke="#191970" d="M228.99,-403.5C240.9089,-403.5 252.6986,-403.5 262.9125,-403.5"/>
<polygon fill="#191970" stroke="#191970" points="228.9796,-400.0001 218.9795,-403.5 228.9795,-407.0001 228.9796,-400.0001"/>
</g>
<!-- Node10&#45;&gt;Node8 -->
<g id="edge15" class="edge">
<title>Node10&#45;&gt;Node8</title>
<path fill="none" stroke="#191970" d="M200.5163,-391.8249C220.9641,-386.3043 244.9048,-379.8406 263.4815,-374.8251"/>
<polygon fill="#191970" stroke="#191970" points="199.5397,-388.4632 190.7977,-394.4488 201.3643,-395.2212 199.5397,-388.4632"/>
</g>
<!-- Node11&#45;&gt;Node2 -->
<g id="edge17" class="edge">
<title>Node11&#45;&gt;Node2</title>
<path fill="none" stroke="#191970" d="M200.7215,-378.2305C220.954,-383.693 244.5695,-390.0689 263.0172,-395.0495"/>
<polygon fill="#191970" stroke="#191970" points="201.3643,-374.7788 190.7977,-375.5512 199.5397,-381.5368 201.3643,-374.7788"/>
</g>
<!-- Node11&#45;&gt;Node8 -->
<g id="edge18" class="edge">
<title>Node11&#45;&gt;Node8</title>
<path fill="none" stroke="#191970" d="M233.2606,-366.5C243.9356,-366.5 254.366,-366.5 263.4988,-366.5"/>
<polygon fill="#191970" stroke="#191970" points="232.9852,-363.0001 222.9852,-366.5 232.9851,-370.0001 232.9852,-363.0001"/>
</g>
<!-- Node13&#45;&gt;Node3 -->
<g id="edge21" class="edge">
<title>Node13&#45;&gt;Node3</title>
<path fill="none" stroke="#191970" d="M317.3729,-211.0906C333.9472,-221.5793 355.7835,-235.3981 369.9526,-244.3647"/>
<polygon fill="#191970" stroke="#191970" points="319.1102,-208.048 308.7884,-205.658 315.3669,-213.9631 319.1102,-208.048"/>
</g>
<!-- Node14&#45;&gt;Node3 -->
<g id="edge24" class="edge">
<title>Node14&#45;&gt;Node3</title>
<path fill="none" stroke="#191970" d="M202.9455,-238.3209C252.7543,-242.4878 330.0922,-248.9577 365.5122,-251.9209"/>
<polygon fill="#191970" stroke="#191970" points="203.0167,-234.8147 192.7597,-237.4688 202.4331,-241.7903 203.0167,-234.8147"/>
</g>
<!-- Node14&#45;&gt;Node5 -->
<g id="edge23" class="edge">
<title>Node14&#45;&gt;Node5</title>
<path fill="none" stroke="#191970" d="M199.5356,-246.2187C219.5142,-251.7585 243.0019,-258.2712 261.5976,-263.4275"/>
<polygon fill="#191970" stroke="#191970" points="200.3221,-242.8048 189.7505,-243.5055 198.4516,-249.5503 200.3221,-242.8048"/>
</g>
<!-- Node14&#45;&gt;Node14 -->
<g id="edge25" class="edge">
<title>Node14&#45;&gt;Node14</title>
<path fill="none" stroke="#191970" d="M133.3246,-252.477C134.0324,-257.832 142.0151,-262 157.2729,-262 180.5229,-262 186.8804,-252.322 176.3452,-243.5134"/>
<polygon fill="#191970" stroke="#191970" points="136.4966,-253.9703 138.2007,-243.5134 130.3475,-250.6253 136.4966,-253.9703"/>
</g>
<!-- Node15&#45;&gt;Node3 -->
<g id="edge27" class="edge">
<title>Node15&#45;&gt;Node3</title>
<path fill="none" stroke="#191970" d="M324.8176,-173.8605C326.4732,-175.0114 328.0649,-176.2254 329.5508,-177.5 352.7673,-197.4162 371.4588,-229.0678 379.7505,-244.4775"/>
<polygon fill="#191970" stroke="#191970" points="326.5684,-170.829 316.2019,-168.6414 322.9416,-176.8162 326.5684,-170.829"/>
</g>
</g>
</svg>
