<?xml version="1.0" encoding="UTF-8" standalone="no"?>
<!DOCTYPE svg PUBLIC "-//W3C//DTD SVG 1.1//EN"
 "http://www.w3.org/Graphics/SVG/1.1/DTD/svg11.dtd">
<!-- Generated by graphviz version 2.40.1 (20161225.0304)
 -->
<!-- Title: UWC_p2p_f Pages: 1 -->
<svg width="365pt" height="93pt"
 viewBox="0.00 0.00 365.08 93.07" xmlns="http://www.w3.org/2000/svg" xmlns:xlink="http://www.w3.org/1999/xlink">
<g id="graph0" class="graph" transform="scale(1 1) rotate(0) translate(4 89.067)">
<title>UWC_p2p_f</title>
<polygon fill="#ffffff" stroke="transparent" points="-4,4 -4,-89.067 361.0781,-89.067 361.0781,4 -4,4"/>
<!-- Node8 -->
<g id="node1" class="node">
<title>Node8</title>
<polygon fill="#bfbfbf" stroke="#000000" points="0,-56.5 0,-74.5 70.4678,-74.5 70.4678,-56.5 0,-56.5"/>
<text text-anchor="middle" x="35.2339" y="-62.5" font-family="Helvetica,sans-Serif" font-size="10.00" fill="#000000">UWC_p2p_f</text>
</g>
<!-- Node9 -->
<g id="node2" class="node">
<title>Node9</title>
<g id="a_node2"><a xlink:href="Conti2D_8h_afb187c363388d28caa8a055176269f12.html#afb187c363388d28caa8a055176269f12" target="_top" xlink:title="DWC_p2p_f">
<polygon fill="#ffffff" stroke="#000000" points="212.9355,-52.5 212.9355,-70.5 283.4033,-70.5 283.4033,-52.5 212.9355,-52.5"/>
<text text-anchor="middle" x="248.1694" y="-58.5" font-family="Helvetica,sans-Serif" font-size="10.00" fill="#000000">DWC_p2p_f</text>
</a>
</g>
</g>
<!-- Node8&#45;&gt;Node9 -->
<g id="edge1" class="edge">
<title>Node8&#45;&gt;Node9</title>
<path fill="none" stroke="#191970" d="M81.0293,-64.6397C120.4981,-63.8983 176.6646,-62.8432 212.7675,-62.165"/>
<polygon fill="#191970" stroke="#191970" points="80.807,-61.1432 70.8745,-64.8305 80.9385,-68.142 80.807,-61.1432"/>
</g>
<!-- Node10 -->
<g id="node3" class="node">
<title>Node10</title>
<g id="a_node3"><a xlink:href="main_8cpp_a0ddf1224851353fc92bfbff6f499fa97.html#a0ddf1224851353fc92bfbff6f499fa97" target="_top" xlink:title="main">
<polygon fill="#ffffff" stroke="#000000" points="319.4033,-52.5 319.4033,-70.5 357.0781,-70.5 357.0781,-52.5 319.4033,-52.5"/>
<text text-anchor="middle" x="338.2407" y="-58.5" font-family="Helvetica,sans-Serif" font-size="10.00" fill="#000000">main</text>
</a>
</g>
</g>
<!-- Node8&#45;&gt;Node10 -->
<g id="edge3" class="edge">
<title>Node8&#45;&gt;Node10</title>
<path fill="none" stroke="#191970" d="M80.9884,-73.9102C131.0123,-81.7533 213.3865,-90.6974 283.4033,-79.5 295.6724,-77.5379 308.9217,-73.2534 319.3231,-69.3567"/>
<polygon fill="#191970" stroke="#191970" points="81.2523,-70.4073 70.8209,-72.2609 80.1314,-77.317 81.2523,-70.4073"/>
</g>
<!-- Node11 -->
<g id="node4" class="node">
<title>Node11</title>
<g id="a_node4"><a xlink:href="Conti2D_8h_af82757cb7e0f4f398e774b4e89b9ea72.html#af82757cb7e0f4f398e774b4e89b9ea72" target="_top" xlink:title="UWC_p2p_f">
<polygon fill="#ffffff" stroke="#000000" points="106.4678,-.5 106.4678,-18.5 176.9355,-18.5 176.9355,-.5 106.4678,-.5"/>
<text text-anchor="middle" x="141.7017" y="-6.5" font-family="Helvetica,sans-Serif" font-size="10.00" fill="#000000">UWC_p2p_f</text>
</a>
</g>
</g>
<!-- Node8&#45;&gt;Node11 -->
<g id="edge4" class="edge">
<title>Node8&#45;&gt;Node11</title>
<path fill="none" stroke="#191970" d="M61.8443,-51.5034C81.4373,-41.1979 107.5102,-27.4841 124.4478,-18.5752"/>
<polygon fill="#191970" stroke="#191970" points="60.036,-48.4999 52.8149,-56.2527 63.2946,-54.6952 60.036,-48.4999"/>
</g>
<!-- Node9&#45;&gt;Node10 -->
<g id="edge2" class="edge">
<title>Node9&#45;&gt;Node10</title>
<path fill="none" stroke="#191970" d="M293.6818,-61.5C302.7514,-61.5 311.7952,-61.5 319.3417,-61.5"/>
<polygon fill="#191970" stroke="#191970" points="293.5095,-58.0001 283.5095,-61.5 293.5094,-65.0001 293.5095,-58.0001"/>
</g>
<!-- Node11&#45;&gt;Node9 -->
<g id="edge6" class="edge">
<title>Node11&#45;&gt;Node9</title>
<path fill="none" stroke="#191970" d="M169.2864,-22.9727C188.2108,-32.2156 212.8181,-44.234 229.4795,-52.3716"/>
<polygon fill="#191970" stroke="#191970" points="170.7685,-19.8015 160.2469,-18.5577 167.6964,-26.0913 170.7685,-19.8015"/>
</g>
<!-- Node11&#45;&gt;Node10 -->
<g id="edge7" class="edge">
<title>Node11&#45;&gt;Node10</title>
<path fill="none" stroke="#191970" d="M187.0893,-18.802C215.0488,-24.845 251.5239,-33.2925 283.4033,-42.5 295.5033,-45.9947 308.8611,-50.6066 319.3636,-54.4114"/>
<polygon fill="#191970" stroke="#191970" points="187.7087,-15.3554 177.1979,-16.6875 186.2453,-22.2008 187.7087,-15.3554"/>
</g>
<!-- Node11&#45;&gt;Node11 -->
<g id="edge5" class="edge">
<title>Node11&#45;&gt;Node11</title>
<path fill="none" stroke="#191970" d="M121.9215,-27.8575C122.7738,-33.0281 129.3671,-37 141.7017,-37 160.9556,-37 166.2203,-27.322 157.4959,-18.5134"/>
<polygon fill="#191970" stroke="#191970" points="125.2031,-29.0848 125.9074,-18.5134 118.7644,-26.3382 125.2031,-29.0848"/>
</g>
</g>
</svg>
