<?xml version="1.0" encoding="UTF-8" standalone="no"?>
<!DOCTYPE svg PUBLIC "-//W3C//DTD SVG 1.1//EN"
 "http://www.w3.org/Graphics/SVG/1.1/DTD/svg11.dtd">
<!-- Generated by graphviz version 2.40.1 (20161225.0304)
 -->
<!-- Title: DWC_s2p Pages: 1 -->
<svg width="403pt" height="286pt"
 viewBox="0.00 0.00 403.12 286.00" xmlns="http://www.w3.org/2000/svg" xmlns:xlink="http://www.w3.org/1999/xlink">
<g id="graph0" class="graph" transform="scale(1 1) rotate(0) translate(4 282)">
<title>DWC_s2p</title>
<polygon fill="#ffffff" stroke="transparent" points="-4,4 -4,-282 399.1172,-282 399.1172,4 -4,4"/>
<!-- Node0 -->
<g id="node1" class="node">
<title>Node0</title>
<polygon fill="#bfbfbf" stroke="#000000" points="0,-129.5 0,-147.5 61.5664,-147.5 61.5664,-129.5 0,-129.5"/>
<text text-anchor="middle" x="30.7832" y="-135.5" font-family="Helvetica,sans-Serif" font-size="10.00" fill="#000000">DWC_s2p</text>
</g>
<!-- Node1 -->
<g id="node2" class="node">
<title>Node1</title>
<g id="a_node2"><a xlink:href="Conti2D_8cpp_a6516cfeb71abcf844b32f101e5f77a71.html#a6516cfeb71abcf844b32f101e5f77a71" target="_top" xlink:title="DWC_s2p_CGLS">
<polygon fill="#ffffff" stroke="#000000" points="115.916,-148.5 115.916,-166.5 210.2754,-166.5 210.2754,-148.5 115.916,-148.5"/>
<text text-anchor="middle" x="163.0957" y="-154.5" font-family="Helvetica,sans-Serif" font-size="10.00" fill="#000000">DWC_s2p_CGLS</text>
</a>
</g>
</g>
<!-- Node0&#45;&gt;Node1 -->
<g id="edge1" class="edge">
<title>Node0&#45;&gt;Node1</title>
<path fill="none" stroke="#191970" d="M61.8046,-142.9547C74.8373,-144.8261 90.4327,-147.0656 105.4354,-149.22"/>
<polygon fill="#191970" stroke="#191970" points="105.2925,-152.7353 115.6884,-150.6923 106.2875,-145.8064 105.2925,-152.7353"/>
</g>
<!-- Node3 -->
<g id="node4" class="node">
<title>Node3</title>
<g id="a_node4"><a xlink:href="Conti2D_8cpp_ab76adf263893ac28772283c5a00b964c.html#ab76adf263893ac28772283c5a00b964c" target="_top" xlink:title="Save a Surfer Grid data to file. ">
<polygon fill="#ffffff" stroke="#000000" points="302.1396,-148.5 302.1396,-166.5 357.6025,-166.5 357.6025,-148.5 302.1396,-148.5"/>
<text text-anchor="middle" x="329.8711" y="-154.5" font-family="Helvetica,sans-Serif" font-size="10.00" fill="#000000">SaveGrd</text>
</a>
</g>
</g>
<!-- Node0&#45;&gt;Node3 -->
<g id="edge25" class="edge">
<title>Node0&#45;&gt;Node3</title>
<path fill="none" stroke="#191970" d="M42.7743,-147.6285C55.5557,-156.7366 76.777,-170.1258 97.5664,-175.5 164.3795,-192.7715 245.3076,-179.0301 291.8675,-167.9396"/>
<polygon fill="#191970" stroke="#191970" points="292.9507,-171.2774 301.8208,-165.4833 291.2735,-164.4813 292.9507,-171.2774"/>
</g>
<!-- Node7 -->
<g id="node8" class="node">
<title>Node7</title>
<g id="a_node8"><a xlink:href="Conti2D_8cpp_a0a60bfe4f254fa10e96fabb22a125343.html#a0a60bfe4f254fa10e96fabb22a125343" target="_top" xlink:title="DWC_s2p_ItegrationIter">
<polygon fill="#ffffff" stroke="#000000" points="101.4604,-111.5 101.4604,-129.5 224.731,-129.5 224.731,-111.5 101.4604,-111.5"/>
<text text-anchor="middle" x="163.0957" y="-117.5" font-family="Helvetica,sans-Serif" font-size="10.00" fill="#000000">DWC_s2p_ItegrationIter</text>
</a>
</g>
</g>
<!-- Node0&#45;&gt;Node7 -->
<g id="edge7" class="edge">
<title>Node0&#45;&gt;Node7</title>
<path fill="none" stroke="#191970" d="M61.8046,-134.2798C70.7765,-133.0592 80.9629,-131.6735 91.3344,-130.2625"/>
<polygon fill="#191970" stroke="#191970" points="91.8644,-133.7227 101.3013,-128.9066 90.9208,-126.7866 91.8644,-133.7227"/>
</g>
<!-- Node10 -->
<g id="node11" class="node">
<title>Node10</title>
<g id="a_node11"><a xlink:href="Conti2D_8cpp_a7730328c8e132ff0a35142a6d31bac18.html#a7730328c8e132ff0a35142a6d31bac18" target="_top" xlink:title="DWC_s2p_LandweberIter">
<polygon fill="#ffffff" stroke="#000000" points="97.5664,-74.5 97.5664,-92.5 228.625,-92.5 228.625,-74.5 97.5664,-74.5"/>
<text text-anchor="middle" x="163.0957" y="-80.5" font-family="Helvetica,sans-Serif" font-size="10.00" fill="#000000">DWC_s2p_LandweberIter</text>
</a>
</g>
</g>
<!-- Node0&#45;&gt;Node10 -->
<g id="edge14" class="edge">
<title>Node0&#45;&gt;Node10</title>
<path fill="none" stroke="#191970" d="M44.8819,-129.3875C58.0718,-121.1823 78.5408,-109.254 97.5664,-101.5 102.9557,-99.3035 108.7012,-97.2852 114.4654,-95.458"/>
<polygon fill="#191970" stroke="#191970" points="115.5487,-98.7872 124.1242,-92.5654 113.5405,-92.0814 115.5487,-98.7872"/>
</g>
<!-- Node11 -->
<g id="node12" class="node">
<title>Node11</title>
<g id="a_node12"><a xlink:href="Conti2D_8cpp_a78d8a6b80166f8976a0f18caddbe1dcb.html#a78d8a6b80166f8976a0f18caddbe1dcb" target="_top" xlink:title="Getkernel_p2s_new">
<polygon fill="#ffffff" stroke="#000000" points="110.623,-224.5 110.623,-242.5 215.5684,-242.5 215.5684,-224.5 110.623,-224.5"/>
<text text-anchor="middle" x="163.0957" y="-230.5" font-family="Helvetica,sans-Serif" font-size="10.00" fill="#000000">Getkernel_p2s_new</text>
</a>
</g>
</g>
<!-- Node0&#45;&gt;Node11 -->
<g id="edge21" class="edge">
<title>Node0&#45;&gt;Node11</title>
<path fill="none" stroke="#191970" d="M37.1405,-147.6325C47.9472,-162.5355 71.2993,-192.1576 97.5664,-209.5 104.3951,-214.0085 112.1817,-217.8086 119.9455,-220.9603"/>
<polygon fill="#191970" stroke="#191970" points="118.7462,-224.2485 129.3383,-224.487 121.2068,-217.6952 118.7462,-224.2485"/>
</g>
<!-- Node13 -->
<g id="node14" class="node">
<title>Node13</title>
<g id="a_node14"><a xlink:href="Conti2D_8cpp_a2c90cdea3ca11177ba34c14a3b0a00cb.html#a2c90cdea3ca11177ba34c14a3b0a00cb" target="_top" xlink:title="Read a Surfer Grid data from file. ">
<polygon fill="#ffffff" stroke="#000000" points="134.8076,-37.5 134.8076,-55.5 191.3838,-55.5 191.3838,-37.5 134.8076,-37.5"/>
<text text-anchor="middle" x="163.0957" y="-43.5" font-family="Helvetica,sans-Serif" font-size="10.00" fill="#000000">ReadGrd</text>
</a>
</g>
</g>
<!-- Node0&#45;&gt;Node13 -->
<g id="edge24" class="edge">
<title>Node0&#45;&gt;Node13</title>
<path fill="none" stroke="#191970" d="M36.5535,-129.2234C46.8361,-113.4773 69.8701,-81.5702 97.5664,-64.5 105.7535,-59.454 115.3709,-55.7964 124.6775,-53.1547"/>
<polygon fill="#191970" stroke="#191970" points="125.7259,-56.5002 134.5719,-50.6693 124.0204,-49.7111 125.7259,-56.5002"/>
</g>
<!-- Node2 -->
<g id="node3" class="node">
<title>Node2</title>
<g id="a_node3"><a xlink:href="Conti2D_8cpp_a98827c14ed7072c96834f20205c7a916.html#a98827c14ed7072c96834f20205c7a916" target="_top" xlink:title="Norm2">
<polygon fill="#ffffff" stroke="#000000" points="306.8687,-111.5 306.8687,-129.5 352.8735,-129.5 352.8735,-111.5 306.8687,-111.5"/>
<text text-anchor="middle" x="329.8711" y="-117.5" font-family="Helvetica,sans-Serif" font-size="10.00" fill="#000000">Norm2</text>
</a>
</g>
</g>
<!-- Node1&#45;&gt;Node2 -->
<g id="edge2" class="edge">
<title>Node1&#45;&gt;Node2</title>
<path fill="none" stroke="#191970" d="M203.8936,-148.4488C232.3277,-142.1405 269.793,-133.8287 296.4569,-127.9131"/>
<polygon fill="#191970" stroke="#191970" points="297.4534,-131.2772 306.458,-125.6943 295.9373,-124.4434 297.4534,-131.2772"/>
</g>
<!-- Node1&#45;&gt;Node3 -->
<g id="edge3" class="edge">
<title>Node1&#45;&gt;Node3</title>
<path fill="none" stroke="#191970" d="M210.4407,-157.5C236.1102,-157.5 267.4222,-157.5 291.5442,-157.5"/>
<polygon fill="#191970" stroke="#191970" points="291.7391,-161.0001 301.7391,-157.5 291.739,-154.0001 291.7391,-161.0001"/>
</g>
<!-- Node4 -->
<g id="node5" class="node">
<title>Node4</title>
<g id="a_node5"><a xlink:href="classMultiProgressBar_a58eef55ad6d5c7d769b3a402a2ef7b85.html#a58eef55ad6d5c7d769b3a402a2ef7b85" target="_top" xlink:title="MultiProgressBar::Update">
<polygon fill="#ffffff" stroke="#000000" points="264.625,-185.5 264.625,-203.5 395.1172,-203.5 395.1172,-185.5 264.625,-185.5"/>
<text text-anchor="middle" x="329.8711" y="-191.5" font-family="Helvetica,sans-Serif" font-size="10.00" fill="#000000">MultiProgressBar::Update</text>
</a>
</g>
</g>
<!-- Node1&#45;&gt;Node4 -->
<g id="edge4" class="edge">
<title>Node1&#45;&gt;Node4</title>
<path fill="none" stroke="#191970" d="M203.8936,-166.5512C226.5914,-171.5869 255.0442,-177.8992 279.1636,-183.2503"/>
<polygon fill="#191970" stroke="#191970" points="278.685,-186.7291 289.2057,-185.4782 280.2012,-179.8953 278.685,-186.7291"/>
</g>
<!-- Node5 -->
<g id="node6" class="node">
<title>Node5</title>
<g id="a_node6"><a xlink:href="Conti2D_8cpp_a632c1e4efbb7e9b1aaf04db729e69394.html#a632c1e4efbb7e9b1aaf04db729e69394" target="_top" xlink:title="UWC_Gij">
<polygon fill="#ffffff" stroke="#000000" points="301.0386,-74.5 301.0386,-92.5 358.7036,-92.5 358.7036,-74.5 301.0386,-74.5"/>
<text text-anchor="middle" x="329.8711" y="-80.5" font-family="Helvetica,sans-Serif" font-size="10.00" fill="#000000">UWC_Gij</text>
</a>
</g>
</g>
<!-- Node1&#45;&gt;Node5 -->
<g id="edge5" class="edge">
<title>Node1&#45;&gt;Node5</title>
<path fill="none" stroke="#191970" d="M206.3825,-148.4024C214.0894,-145.8328 221.8207,-142.5848 228.625,-138.5 248.2964,-126.6909 244.8771,-113.1807 264.625,-101.5 272.7208,-96.7114 282.1329,-93.1576 291.2466,-90.5345"/>
<polygon fill="#191970" stroke="#191970" points="292.1305,-93.9212 300.9425,-88.0391 290.3857,-87.1421 292.1305,-93.9212"/>
</g>
<!-- Node6 -->
<g id="node7" class="node">
<title>Node6</title>
<g id="a_node7"><a xlink:href="Conti2D_8cpp_a9d30373a0ff29e4f743eaf5e4cbc3cbf.html#a9d30373a0ff29e4f743eaf5e4cbc3cbf" target="_top" xlink:title="UWC_Gji">
<polygon fill="#ffffff" stroke="#000000" points="301.0386,-222.5 301.0386,-240.5 358.7036,-240.5 358.7036,-222.5 301.0386,-222.5"/>
<text text-anchor="middle" x="329.8711" y="-228.5" font-family="Helvetica,sans-Serif" font-size="10.00" fill="#000000">UWC_Gji</text>
</a>
</g>
</g>
<!-- Node1&#45;&gt;Node6 -->
<g id="edge6" class="edge">
<title>Node1&#45;&gt;Node6</title>
<path fill="none" stroke="#191970" d="M177.4111,-166.5292C196.6464,-178.36 232.1763,-199.165 264.625,-212.5 273.0293,-215.9538 282.282,-219.0491 291.112,-221.689"/>
<polygon fill="#191970" stroke="#191970" points="290.257,-225.0848 300.8341,-224.4709 292.1828,-218.3549 290.257,-225.0848"/>
</g>
<!-- Node7&#45;&gt;Node2 -->
<g id="edge8" class="edge">
<title>Node7&#45;&gt;Node2</title>
<path fill="none" stroke="#191970" d="M225.1967,-120.5C249.4867,-120.5 276.3592,-120.5 296.7942,-120.5"/>
<polygon fill="#191970" stroke="#191970" points="296.8459,-124.0001 306.8459,-120.5 296.8458,-117.0001 296.8459,-124.0001"/>
</g>
<!-- Node7&#45;&gt;Node3 -->
<g id="edge11" class="edge">
<title>Node7&#45;&gt;Node3</title>
<path fill="none" stroke="#191970" d="M203.8936,-129.5512C230.7953,-135.5195 265.781,-143.2813 292.055,-149.1103"/>
<polygon fill="#191970" stroke="#191970" points="291.4976,-152.5717 302.0183,-151.3207 293.0137,-145.7378 291.4976,-152.5717"/>
</g>
<!-- Node7&#45;&gt;Node4 -->
<g id="edge12" class="edge">
<title>Node7&#45;&gt;Node4</title>
<path fill="none" stroke="#191970" d="M208.4506,-129.5495C215.4646,-131.9015 222.4286,-134.8395 228.625,-138.5 248.3794,-150.1698 244.9604,-163.6795 264.625,-175.5 268.7076,-177.9541 273.1254,-180.1067 277.671,-181.9918"/>
<polygon fill="#191970" stroke="#191970" points="276.5218,-185.2985 287.1148,-185.4967 278.9574,-178.7359 276.5218,-185.2985"/>
</g>
<!-- Node7&#45;&gt;Node5 -->
<g id="edge13" class="edge">
<title>Node7&#45;&gt;Node5</title>
<path fill="none" stroke="#191970" d="M203.8936,-111.4488C230.4548,-105.556 264.8966,-97.9149 291.0531,-92.112"/>
<polygon fill="#191970" stroke="#191970" points="291.9891,-95.4895 300.9936,-89.9066 290.4729,-88.6557 291.9891,-95.4895"/>
</g>
<!-- Node8 -->
<g id="node9" class="node">
<title>Node8</title>
<g id="a_node9"><a xlink:href="Conti2D_8cpp_a43fc3af75243a047d61aadea31c0fa9c.html#a43fc3af75243a047d61aadea31c0fa9c" target="_top" xlink:title="Norm2_Gradient">
<polygon fill="#ffffff" stroke="#000000" points="284.9106,-37.5 284.9106,-55.5 374.8315,-55.5 374.8315,-37.5 284.9106,-37.5"/>
<text text-anchor="middle" x="329.8711" y="-43.5" font-family="Helvetica,sans-Serif" font-size="10.00" fill="#000000">Norm2_Gradient</text>
</a>
</g>
</g>
<!-- Node7&#45;&gt;Node8 -->
<g id="edge9" class="edge">
<title>Node7&#45;&gt;Node8</title>
<path fill="none" stroke="#191970" d="M206.3825,-111.4024C214.0894,-108.8328 221.8207,-105.5848 228.625,-101.5 248.2964,-89.6909 244.8771,-76.1807 264.625,-64.5 267.9989,-62.5044 271.6014,-60.7232 275.3157,-59.1344"/>
<polygon fill="#191970" stroke="#191970" points="276.6041,-62.3891 284.712,-55.5691 274.1207,-55.8444 276.6041,-62.3891"/>
</g>
<!-- Node9 -->
<g id="node10" class="node">
<title>Node9</title>
<g id="a_node10"><a xlink:href="Conti2D_8cpp_a88f10a86b8808047787d2df5e8cbcb72.html#a88f10a86b8808047787d2df5e8cbcb72" target="_top" xlink:title="Path_GetFileName">
<polygon fill="#ffffff" stroke="#000000" points="279.3516,-.5 279.3516,-18.5 380.3906,-18.5 380.3906,-.5 279.3516,-.5"/>
<text text-anchor="middle" x="329.8711" y="-6.5" font-family="Helvetica,sans-Serif" font-size="10.00" fill="#000000">Path_GetFileName</text>
</a>
</g>
</g>
<!-- Node7&#45;&gt;Node9 -->
<g id="edge10" class="edge">
<title>Node7&#45;&gt;Node9</title>
<path fill="none" stroke="#191970" d="M211.9708,-111.3774C217.9895,-108.8492 223.7332,-105.6212 228.625,-101.5 256.5959,-77.935 236.5012,-50.8823 264.625,-27.5 266.4237,-26.0046 268.3371,-24.6329 270.3366,-23.3747"/>
<polygon fill="#191970" stroke="#191970" points="272.3224,-26.2862 279.5654,-18.5539 269.0813,-20.0817 272.3224,-26.2862"/>
</g>
<!-- Node10&#45;&gt;Node2 -->
<g id="edge15" class="edge">
<title>Node10&#45;&gt;Node2</title>
<path fill="none" stroke="#191970" d="M203.8936,-92.5512C232.3277,-98.8595 269.793,-107.1713 296.4569,-113.0869"/>
<polygon fill="#191970" stroke="#191970" points="295.9373,-116.5566 306.458,-115.3057 297.4534,-109.7228 295.9373,-116.5566"/>
</g>
<!-- Node10&#45;&gt;Node3 -->
<g id="edge18" class="edge">
<title>Node10&#45;&gt;Node3</title>
<path fill="none" stroke="#191970" d="M208.4506,-92.5495C215.4646,-94.9015 222.4286,-97.8395 228.625,-101.5 248.3794,-113.1698 244.9604,-126.6795 264.625,-138.5 272.9419,-143.4993 282.6497,-147.2475 291.9961,-150.0324"/>
<polygon fill="#191970" stroke="#191970" points="291.3479,-153.4822 301.9131,-152.6899 293.1599,-146.7207 291.3479,-153.4822"/>
</g>
<!-- Node10&#45;&gt;Node4 -->
<g id="edge19" class="edge">
<title>Node10&#45;&gt;Node4</title>
<path fill="none" stroke="#191970" d="M213.6184,-92.5296C219.032,-94.8676 224.1776,-97.8066 228.625,-101.5 256.7617,-124.8667 236.6678,-151.9188 264.625,-175.5 267.0275,-177.5265 269.6366,-179.3369 272.3832,-180.9544"/>
<polygon fill="#191970" stroke="#191970" points="271.0247,-184.1874 281.539,-185.4915 274.1329,-177.9152 271.0247,-184.1874"/>
</g>
<!-- Node10&#45;&gt;Node5 -->
<g id="edge20" class="edge">
<title>Node10&#45;&gt;Node5</title>
<path fill="none" stroke="#191970" d="M229.0098,-83.5C249.9615,-83.5 272.4541,-83.5 290.8702,-83.5"/>
<polygon fill="#191970" stroke="#191970" points="290.9223,-87.0001 300.9222,-83.5 290.9222,-80.0001 290.9223,-87.0001"/>
</g>
<!-- Node10&#45;&gt;Node8 -->
<g id="edge16" class="edge">
<title>Node10&#45;&gt;Node8</title>
<path fill="none" stroke="#191970" d="M203.8936,-74.4488C226.5914,-69.4131 255.0442,-63.1008 279.1636,-57.7497"/>
<polygon fill="#191970" stroke="#191970" points="280.2012,-61.1047 289.2057,-55.5218 278.685,-54.2709 280.2012,-61.1047"/>
</g>
<!-- Node10&#45;&gt;Node9 -->
<g id="edge17" class="edge">
<title>Node10&#45;&gt;Node9</title>
<path fill="none" stroke="#191970" d="M206.3825,-74.4024C214.0894,-71.8328 221.8207,-68.5848 228.625,-64.5 248.2964,-52.6909 244.8771,-39.1807 264.625,-27.5 267.9989,-25.5044 271.6014,-23.7232 275.3157,-22.1344"/>
<polygon fill="#191970" stroke="#191970" points="276.6041,-25.3891 284.712,-18.5691 274.1207,-18.8444 276.6041,-25.3891"/>
</g>
<!-- Node11&#45;&gt;Node4 -->
<g id="edge23" class="edge">
<title>Node11&#45;&gt;Node4</title>
<path fill="none" stroke="#191970" d="M201.7765,-224.4546C225.4772,-218.9123 256.0187,-211.7702 281.3345,-205.8502"/>
<polygon fill="#191970" stroke="#191970" points="282.1712,-209.249 291.1115,-203.5638 280.5772,-202.4329 282.1712,-209.249"/>
</g>
<!-- Node12 -->
<g id="node13" class="node">
<title>Node12</title>
<g id="a_node13"><a xlink:href="Conti2D_8cpp_a4bb34ae88cf16e429505f9eb746384cd.html#a4bb34ae88cf16e429505f9eb746384cd" target="_top" xlink:title="GetPmnij">
<polygon fill="#ffffff" stroke="#000000" points="301.3096,-259.5 301.3096,-277.5 358.4326,-277.5 358.4326,-259.5 301.3096,-259.5"/>
<text text-anchor="middle" x="329.8711" y="-265.5" font-family="Helvetica,sans-Serif" font-size="10.00" fill="#000000">GetPmnij</text>
</a>
</g>
</g>
<!-- Node11&#45;&gt;Node12 -->
<g id="edge22" class="edge">
<title>Node11&#45;&gt;Node12</title>
<path fill="none" stroke="#191970" d="M206.0445,-242.5134C232.3404,-248.0319 265.7152,-255.0361 291.1883,-260.3819"/>
<polygon fill="#191970" stroke="#191970" points="290.7224,-263.8603 301.2281,-262.4889 292.1601,-257.0095 290.7224,-263.8603"/>
</g>
</g>
</svg>
