<?xml version="1.0" encoding="UTF-8" standalone="no"?>
<!DOCTYPE svg PUBLIC "-//W3C//DTD SVG 1.1//EN"
 "http://www.w3.org/Graphics/SVG/1.1/DTD/svg11.dtd">
<!-- Generated by graphviz version 2.40.1 (20161225.0304)
 -->
<!-- Title: DWC_p2p_f Pages: 1 -->
<svg width="319pt" height="141pt"
 viewBox="0.00 0.00 319.20 140.85" xmlns="http://www.w3.org/2000/svg" xmlns:xlink="http://www.w3.org/1999/xlink">
<g id="graph0" class="graph" transform="scale(1 1) rotate(0) translate(4 136.8544)">
<title>DWC_p2p_f</title>
<polygon fill="#ffffff" stroke="transparent" points="-4,4 -4,-136.8544 315.1963,-136.8544 315.1963,4 -4,4"/>
<!-- Node0 -->
<g id="node1" class="node">
<title>Node0</title>
<polygon fill="#bfbfbf" stroke="#000000" points="0,-48.3544 0,-66.3544 70.4678,-66.3544 70.4678,-48.3544 0,-48.3544"/>
<text text-anchor="middle" x="35.2339" y="-54.3544" font-family="Helvetica,sans-Serif" font-size="10.00" fill="#000000">DWC_p2p_f</text>
</g>
<!-- Node1 -->
<g id="node2" class="node">
<title>Node1</title>
<g id="a_node2"><a xlink:href="Conti2D_8cpp_a8d8d41669d98b597c959db5762cbb489.html#a8d8d41669d98b597c959db5762cbb489" target="_top" xlink:title="Get the kernel matrix using the new developed formula. ">
<polygon fill="#ffffff" stroke="#000000" points="106.4678,-114.3544 106.4678,-132.3544 218.6201,-132.3544 218.6201,-114.3544 106.4678,-114.3544"/>
<text text-anchor="middle" x="162.5439" y="-120.3544" font-family="Helvetica,sans-Serif" font-size="10.00" fill="#000000">GetKernalMatrix_new</text>
</a>
</g>
</g>
<!-- Node0&#45;&gt;Node1 -->
<g id="edge1" class="edge">
<title>Node0&#45;&gt;Node1</title>
<path fill="none" stroke="#191970" d="M49.3928,-66.4345C63.5548,-75.3404 86.1012,-89.0455 106.4678,-99.3544 114.0581,-103.1964 122.4068,-106.9905 130.2905,-110.3885"/>
<polygon fill="#191970" stroke="#191970" points="129.0198,-113.6511 139.5939,-114.3134 131.7407,-107.2016 129.0198,-113.6511"/>
</g>
<!-- Node2 -->
<g id="node3" class="node">
<title>Node2</title>
<g id="a_node3"><a xlink:href="Conti2D_8cpp_a2c90cdea3ca11177ba34c14a3b0a00cb.html#a2c90cdea3ca11177ba34c14a3b0a00cb" target="_top" xlink:title="Read a Surfer Grid data from file. ">
<polygon fill="#ffffff" stroke="#000000" points="254.6201,-38.3544 254.6201,-56.3544 311.1963,-56.3544 311.1963,-38.3544 254.6201,-38.3544"/>
<text text-anchor="middle" x="282.9082" y="-44.3544" font-family="Helvetica,sans-Serif" font-size="10.00" fill="#000000">ReadGrd</text>
</a>
</g>
</g>
<!-- Node0&#45;&gt;Node2 -->
<g id="edge2" class="edge">
<title>Node0&#45;&gt;Node2</title>
<path fill="none" stroke="#191970" d="M70.5804,-63.0944C107.6508,-68.1805 167.5128,-73.7486 218.6201,-66.3544 228.5368,-64.9197 239.0544,-62.3011 248.6472,-59.4571"/>
<polygon fill="#191970" stroke="#191970" points="249.7478,-62.7801 258.2452,-56.452 247.6562,-56.0999 249.7478,-62.7801"/>
</g>
<!-- Node3 -->
<g id="node4" class="node">
<title>Node3</title>
<g id="a_node4"><a xlink:href="Conti2D_8cpp_ab76adf263893ac28772283c5a00b964c.html#ab76adf263893ac28772283c5a00b964c" target="_top" xlink:title="Save a Surfer Grid data to file. ">
<polygon fill="#ffffff" stroke="#000000" points="255.1768,-1.3544 255.1768,-19.3544 310.6396,-19.3544 310.6396,-1.3544 255.1768,-1.3544"/>
<text text-anchor="middle" x="282.9082" y="-7.3544" font-family="Helvetica,sans-Serif" font-size="10.00" fill="#000000">SaveGrd</text>
</a>
</g>
</g>
<!-- Node0&#45;&gt;Node3 -->
<g id="edge3" class="edge">
<title>Node0&#45;&gt;Node3</title>
<path fill="none" stroke="#191970" d="M44.8774,-48.2584C57.7412,-36.8155 81.7758,-17.7663 106.4678,-10.3544 152.5302,3.4723 208.4568,.3395 244.8233,-4.1513"/>
<polygon fill="#191970" stroke="#191970" points="244.6181,-7.6547 254.9927,-5.5058 245.5424,-.716 244.6181,-7.6547"/>
</g>
<!-- Node4 -->
<g id="node5" class="node">
<title>Node4</title>
<g id="a_node5"><a xlink:href="Conti2D_8cpp_af82757cb7e0f4f398e774b4e89b9ea72.html#af82757cb7e0f4f398e774b4e89b9ea72" target="_top" xlink:title="UWC_p2p_f">
<polygon fill="#ffffff" stroke="#000000" points="127.3101,-20.3544 127.3101,-38.3544 197.7778,-38.3544 197.7778,-20.3544 127.3101,-20.3544"/>
<text text-anchor="middle" x="162.5439" y="-26.3544" font-family="Helvetica,sans-Serif" font-size="10.00" fill="#000000">UWC_p2p_f</text>
</a>
</g>
</g>
<!-- Node0&#45;&gt;Node4 -->
<g id="edge4" class="edge">
<title>Node0&#45;&gt;Node4</title>
<path fill="none" stroke="#191970" d="M70.6968,-49.5549C85.1818,-46.3691 102.1074,-42.6466 117.455,-39.2711"/>
<polygon fill="#191970" stroke="#191970" points="118.2564,-42.6786 127.2712,-37.1122 116.7528,-35.842 118.2564,-42.6786"/>
</g>
<!-- Node4&#45;&gt;Node2 -->
<g id="edge5" class="edge">
<title>Node4&#45;&gt;Node2</title>
<path fill="none" stroke="#191970" d="M198.0062,-34.6577C212.6552,-36.8484 229.6694,-39.3928 244.6032,-41.6261"/>
<polygon fill="#191970" stroke="#191970" points="244.1473,-45.0967 254.555,-43.1143 245.1827,-38.1737 244.1473,-45.0967"/>
</g>
<!-- Node4&#45;&gt;Node3 -->
<g id="edge6" class="edge">
<title>Node4&#45;&gt;Node3</title>
<path fill="none" stroke="#191970" d="M198.0062,-23.7566C212.7679,-21.4264 229.9313,-18.717 244.9475,-16.3467"/>
<polygon fill="#191970" stroke="#191970" points="245.6124,-19.7852 254.9443,-14.7686 244.5209,-12.8708 245.6124,-19.7852"/>
</g>
<!-- Node4&#45;&gt;Node4 -->
<g id="edge7" class="edge">
<title>Node4&#45;&gt;Node4</title>
<path fill="none" stroke="#191970" d="M144.6637,-38.3679C134.787,-47.1764 140.7471,-56.8544 162.5439,-56.8544 176.8481,-56.8544 184.332,-52.6864 184.9955,-47.3315"/>
<polygon fill="#191970" stroke="#191970" points="188.0854,-45.6861 180.4242,-38.3679 181.8495,-48.8664 188.0854,-45.6861"/>
</g>
</g>
</svg>
