<?xml version="1.0" encoding="UTF-8" standalone="no"?>
<!DOCTYPE svg PUBLIC "-//W3C//DTD SVG 1.1//EN"
 "http://www.w3.org/Graphics/SVG/1.1/DTD/svg11.dtd">
<!-- Generated by graphviz version 2.40.1 (20161225.0304)
 -->
<!-- Title: main Pages: 1 -->
<svg width="662pt" height="875pt"
 viewBox="0.00 0.00 662.39 875.00" xmlns="http://www.w3.org/2000/svg" xmlns:xlink="http://www.w3.org/1999/xlink">
<g id="graph0" class="graph" transform="scale(1 1) rotate(0) translate(4 871)">
<title>main</title>
<polygon fill="#ffffff" stroke="transparent" points="-4,4 -4,-871 658.3906,-871 658.3906,4 -4,4"/>
<!-- Node0 -->
<g id="node1" class="node">
<title>Node0</title>
<polygon fill="#bfbfbf" stroke="#000000" points="0,-256.5 0,-274.5 37.6748,-274.5 37.6748,-256.5 0,-256.5"/>
<text text-anchor="middle" x="18.8374" y="-262.5" font-family="Helvetica,sans-Serif" font-size="10.00" fill="#000000">main</text>
</g>
<!-- Node1 -->
<g id="node2" class="node">
<title>Node1</title>
<g id="a_node2"><a xlink:href="Conti2D_8cpp_ab87ce573de93575b7ece2e4f772e03fd.html#ab87ce573de93575b7ece2e4f772e03fd" target="_top" xlink:title="DWC_p2p">
<polygon fill="#ffffff" stroke="#000000" points="233.6997,-719.5 233.6997,-737.5 295.8276,-737.5 295.8276,-719.5 233.6997,-719.5"/>
<text text-anchor="middle" x="264.7637" y="-725.5" font-family="Helvetica,sans-Serif" font-size="10.00" fill="#000000">DWC_p2p</text>
</a>
</g>
</g>
<!-- Node0&#45;&gt;Node1 -->
<g id="edge1" class="edge">
<title>Node0&#45;&gt;Node1</title>
<path fill="none" stroke="#191970" d="M19.802,-274.5928C23.3216,-305.1964 37.2281,-406.727 73.6748,-481.5 121.135,-578.8681 210.9024,-674.698 248.0353,-712.0871"/>
<polygon fill="#191970" stroke="#191970" points="245.5736,-714.5752 255.126,-719.158 250.5165,-709.6185 245.5736,-714.5752"/>
</g>
<!-- Node16 -->
<g id="node17" class="node">
<title>Node16</title>
<g id="a_node17"><a xlink:href="Conti2D_8cpp_afb187c363388d28caa8a055176269f12.html#afb187c363388d28caa8a055176269f12" target="_top" xlink:title="DWC_p2p_f">
<polygon fill="#ffffff" stroke="#000000" points="87.9473,-313.5 87.9473,-331.5 158.415,-331.5 158.415,-313.5 87.9473,-313.5"/>
<text text-anchor="middle" x="123.1812" y="-319.5" font-family="Helvetica,sans-Serif" font-size="10.00" fill="#000000">DWC_p2p_f</text>
</a>
</g>
</g>
<!-- Node0&#45;&gt;Node16 -->
<g id="edge27" class="edge">
<title>Node0&#45;&gt;Node16</title>
<path fill="none" stroke="#191970" d="M33.0639,-274.5453C44.0146,-281.3888 59.607,-290.8773 73.6748,-298.5 80.1071,-301.9854 87.1221,-305.5335 93.7953,-308.7949"/>
<polygon fill="#191970" stroke="#191970" points="92.691,-312.1475 103.22,-313.3274 95.7248,-305.8391 92.691,-312.1475"/>
</g>
<!-- Node21 -->
<g id="node22" class="node">
<title>Node21</title>
<g id="a_node22"><a xlink:href="Conti2D_8cpp_af82757cb7e0f4f398e774b4e89b9ea72.html#af82757cb7e0f4f398e774b4e89b9ea72" target="_top" xlink:title="UWC_p2p_f">
<polygon fill="#ffffff" stroke="#000000" points="229.5298,-219.5 229.5298,-237.5 299.9976,-237.5 299.9976,-219.5 229.5298,-219.5"/>
<text text-anchor="middle" x="264.7637" y="-225.5" font-family="Helvetica,sans-Serif" font-size="10.00" fill="#000000">UWC_p2p_f</text>
</a>
</g>
</g>
<!-- Node0&#45;&gt;Node21 -->
<g id="edge77" class="edge">
<title>Node0&#45;&gt;Node21</title>
<path fill="none" stroke="#191970" d="M38.0072,-267.8139C67.334,-270.8366 124.9596,-274.7308 172.6875,-265.5 195.8073,-261.0285 220.4879,-250.7838 238.4714,-242.2056"/>
<polygon fill="#191970" stroke="#191970" points="240.2906,-245.2114 247.7207,-237.6587 237.2024,-238.9294 240.2906,-245.2114"/>
</g>
<!-- Node22 -->
<g id="node23" class="node">
<title>Node22</title>
<g id="a_node23"><a xlink:href="Conti2D_8cpp_ab256354d6264edd8deb4e31f98a7489f.html#ab256354d6264edd8deb4e31f98a7489f" target="_top" xlink:title="downward continuation from surface to plane ">
<polygon fill="#ffffff" stroke="#000000" points="233.9805,-569.5 233.9805,-587.5 295.5469,-587.5 295.5469,-569.5 233.9805,-569.5"/>
<text text-anchor="middle" x="264.7637" y="-575.5" font-family="Helvetica,sans-Serif" font-size="10.00" fill="#000000">DWC_s2p</text>
</a>
</g>
</g>
<!-- Node0&#45;&gt;Node22 -->
<g id="edge45" class="edge">
<title>Node0&#45;&gt;Node22</title>
<path fill="none" stroke="#191970" d="M20.311,-274.6716C24.7194,-299.9264 39.6638,-371.8351 73.6748,-420.5 119.5436,-486.1317 199.6416,-539.8036 240.01,-564.2452"/>
<polygon fill="#191970" stroke="#191970" points="238.3035,-567.3026 248.6853,-569.4166 241.8878,-561.2899 238.3035,-567.3026"/>
</g>
<!-- Node25 -->
<g id="node26" class="node">
<title>Node25</title>
<g id="a_node26"><a xlink:href="Conti2D_8h_ae9ea2d2408945cb9ad31ee7f03ca183a.html#ae9ea2d2408945cb9ad31ee7f03ca183a" target="_top" xlink:title="helpINFO">
<polygon fill="#ffffff" stroke="#000000" points="93.7847,-237.5 93.7847,-255.5 152.5776,-255.5 152.5776,-237.5 93.7847,-237.5"/>
<text text-anchor="middle" x="123.1812" y="-243.5" font-family="Helvetica,sans-Serif" font-size="10.00" fill="#000000">helpINFO</text>
</a>
</g>
</g>
<!-- Node0&#45;&gt;Node25 -->
<g id="edge60" class="edge">
<title>Node0&#45;&gt;Node25</title>
<path fill="none" stroke="#191970" d="M37.9757,-262.0151C50.717,-259.695 67.9236,-256.5619 83.5387,-253.7185"/>
<polygon fill="#191970" stroke="#191970" points="84.2961,-257.1382 93.5072,-251.9033 83.042,-250.2515 84.2961,-257.1382"/>
</g>
<!-- Node27 -->
<g id="node28" class="node">
<title>Node27</title>
<g id="a_node28"><a xlink:href="main_8cpp_adab29bff9da0db53a1c9a47fed7144bb.html#adab29bff9da0db53a1c9a47fed7144bb" target="_top" xlink:title="isNum">
<polygon fill="#ffffff" stroke="#000000" points="101.0137,-200.5 101.0137,-218.5 145.3486,-218.5 145.3486,-200.5 101.0137,-200.5"/>
<text text-anchor="middle" x="123.1812" y="-206.5" font-family="Helvetica,sans-Serif" font-size="10.00" fill="#000000">isNum</text>
</a>
</g>
</g>
<!-- Node0&#45;&gt;Node27 -->
<g id="edge62" class="edge">
<title>Node0&#45;&gt;Node27</title>
<path fill="none" stroke="#191970" d="M30.5454,-256.449C41.3291,-248.3979 57.9869,-236.6674 73.6748,-228.5 79.1152,-225.6676 85.077,-223.0226 90.9204,-220.6593"/>
<polygon fill="#191970" stroke="#191970" points="92.4517,-223.8203 100.5294,-216.9645 89.9395,-217.2867 92.4517,-223.8203"/>
</g>
<!-- Node28 -->
<g id="node29" class="node">
<title>Node28</title>
<g id="a_node29"><a xlink:href="Conti2D_8h_a7e3ffae645d4a98ee8a39830e6dd2f46.html#a7e3ffae645d4a98ee8a39830e6dd2f46" target="_top" xlink:title="OutputErrorinfo">
<polygon fill="#ffffff" stroke="#000000" points="80.999,-163.5 80.999,-181.5 165.3633,-181.5 165.3633,-163.5 80.999,-163.5"/>
<text text-anchor="middle" x="123.1812" y="-169.5" font-family="Helvetica,sans-Serif" font-size="10.00" fill="#000000">OutputErrorinfo</text>
</a>
</g>
</g>
<!-- Node0&#45;&gt;Node28 -->
<g id="edge63" class="edge">
<title>Node0&#45;&gt;Node28</title>
<path fill="none" stroke="#191970" d="M23.2566,-256.2903C31.2184,-240.6216 49.4259,-208.7091 73.6748,-190.5 75.8619,-188.8577 78.2135,-187.3534 80.6615,-185.9774"/>
<polygon fill="#191970" stroke="#191970" points="82.3519,-189.0477 89.8258,-181.5382 79.3003,-182.7478 82.3519,-189.0477"/>
</g>
<!-- Node29 -->
<g id="node30" class="node">
<title>Node29</title>
<g id="a_node30"><a xlink:href="Conti2D_8h_af6e0e75c33384cc17e08626d17dc381d.html#af6e0e75c33384cc17e08626d17dc381d" target="_top" xlink:title="OutputWarninginfo">
<polygon fill="#ffffff" stroke="#000000" points="73.6748,-126.5 73.6748,-144.5 172.6875,-144.5 172.6875,-126.5 73.6748,-126.5"/>
<text text-anchor="middle" x="123.1812" y="-132.5" font-family="Helvetica,sans-Serif" font-size="10.00" fill="#000000">OutputWarninginfo</text>
</a>
</g>
</g>
<!-- Node0&#45;&gt;Node29 -->
<g id="edge64" class="edge">
<title>Node0&#45;&gt;Node29</title>
<path fill="none" stroke="#191970" d="M20.8615,-256.2403C25.9618,-235.0435 41.3086,-182.5882 73.6748,-153.5 75.2053,-152.1246 76.8491,-150.8518 78.5746,-149.6744"/>
<polygon fill="#191970" stroke="#191970" points="80.7187,-152.4854 87.7354,-144.5471 77.2998,-146.377 80.7187,-152.4854"/>
</g>
<!-- Node30 -->
<g id="node31" class="node">
<title>Node30</title>
<g id="a_node31"><a xlink:href="Conti2D_8h_af1fa497bd2e5d983e49f2401e3470c92.html#af1fa497bd2e5d983e49f2401e3470c92" target="_top" xlink:title="StartText">
<polygon fill="#ffffff" stroke="#000000" points="95.4521,-89.5 95.4521,-107.5 150.9102,-107.5 150.9102,-89.5 95.4521,-89.5"/>
<text text-anchor="middle" x="123.1812" y="-95.5" font-family="Helvetica,sans-Serif" font-size="10.00" fill="#000000">StartText</text>
</a>
</g>
</g>
<!-- Node0&#45;&gt;Node30 -->
<g id="edge65" class="edge">
<title>Node0&#45;&gt;Node30</title>
<path fill="none" stroke="#191970" d="M19.5766,-256.3884C22.1375,-230.7398 32.8589,-157.1561 73.6748,-116.5 77.1757,-113.0128 81.4041,-110.1958 85.897,-107.9214"/>
<polygon fill="#191970" stroke="#191970" points="87.4652,-111.0594 95.3424,-103.9741 84.7661,-104.6007 87.4652,-111.0594"/>
</g>
<!-- Node31 -->
<g id="node32" class="node">
<title>Node31</title>
<g id="a_node32"><a xlink:href="Conti2D_8h_a45d91f9b0b8852118211734681191355.html#a45d91f9b0b8852118211734681191355" target="_top" xlink:title="StartText_artASCII">
<polygon fill="#ffffff" stroke="#000000" points="73.7773,-52.5 73.7773,-70.5 172.585,-70.5 172.585,-52.5 73.7773,-52.5"/>
<text text-anchor="middle" x="123.1812" y="-58.5" font-family="Helvetica,sans-Serif" font-size="10.00" fill="#000000">StartText_artASCII</text>
</a>
</g>
</g>
<!-- Node0&#45;&gt;Node31 -->
<g id="edge66" class="edge">
<title>Node0&#45;&gt;Node31</title>
<path fill="none" stroke="#191970" d="M20.4423,-256.1894C26.4483,-222.3179 48.5441,-106.24 73.6748,-79.5 74.7317,-78.3754 75.8644,-77.3209 77.0582,-76.3321"/>
<polygon fill="#191970" stroke="#191970" points="79.208,-79.1086 85.671,-70.7134 75.3833,-73.2458 79.208,-79.1086"/>
</g>
<!-- Node32 -->
<g id="node33" class="node">
<title>Node32</title>
<g id="a_node33"><a xlink:href="Conti2D_8cpp_a7b6bfe9f5b32bc1a62005196d84edfde.html#a7b6bfe9f5b32bc1a62005196d84edfde" target="_top" xlink:title="UWC_p2p">
<polygon fill="#ffffff" stroke="#000000" points="233.6997,-388.5 233.6997,-406.5 295.8276,-406.5 295.8276,-388.5 233.6997,-388.5"/>
<text text-anchor="middle" x="264.7637" y="-394.5" font-family="Helvetica,sans-Serif" font-size="10.00" fill="#000000">UWC_p2p</text>
</a>
</g>
</g>
<!-- Node0&#45;&gt;Node32 -->
<g id="edge67" class="edge">
<title>Node0&#45;&gt;Node32</title>
<path fill="none" stroke="#191970" d="M22.9801,-274.7444C30.6419,-290.7831 48.5653,-323.7473 73.6748,-341.5 118.9541,-373.513 182.5142,-387.3943 223.6689,-393.2975"/>
<polygon fill="#191970" stroke="#191970" points="223.248,-396.7723 233.6245,-394.6326 224.1784,-389.8344 223.248,-396.7723"/>
</g>
<!-- Node33 -->
<g id="node34" class="node">
<title>Node33</title>
<g id="a_node34"><a xlink:href="Conti2D_8cpp_af8adb87017663774bfd342b39facc828.html#af8adb87017663774bfd342b39facc828" target="_top" xlink:title="Upward continuation from plane to surface. ">
<polygon fill="#ffffff" stroke="#000000" points="233.9805,-464.5 233.9805,-482.5 295.5469,-482.5 295.5469,-464.5 233.9805,-464.5"/>
<text text-anchor="middle" x="264.7637" y="-470.5" font-family="Helvetica,sans-Serif" font-size="10.00" fill="#000000">UWC_p2s</text>
</a>
</g>
</g>
<!-- Node0&#45;&gt;Node33 -->
<g id="edge78" class="edge">
<title>Node0&#45;&gt;Node33</title>
<path fill="none" stroke="#191970" d="M21.2542,-274.6314C27.0776,-295.0835 43.6699,-345.1508 73.6748,-375.5 116.385,-418.7003 182.1374,-446.6086 224.2985,-461.1904"/>
<polygon fill="#191970" stroke="#191970" points="223.3656,-464.5693 233.9596,-464.4415 225.5982,-457.9348 223.3656,-464.5693"/>
</g>
<!-- Node2 -->
<g id="node3" class="node">
<title>Node2</title>
<g id="a_node3"><a xlink:href="Conti2D_8cpp_a6516cfeb71abcf844b32f101e5f77a71.html#a6516cfeb71abcf844b32f101e5f77a71" target="_top" xlink:title="DWC_s2p_CGLS">
<polygon fill="#ffffff" stroke="#000000" points="375.1895,-830.5 375.1895,-848.5 469.5488,-848.5 469.5488,-830.5 375.1895,-830.5"/>
<text text-anchor="middle" x="422.3691" y="-836.5" font-family="Helvetica,sans-Serif" font-size="10.00" fill="#000000">DWC_s2p_CGLS</text>
</a>
</g>
</g>
<!-- Node1&#45;&gt;Node2 -->
<g id="edge2" class="edge">
<title>Node1&#45;&gt;Node2</title>
<path fill="none" stroke="#191970" d="M271.2318,-737.7262C284.8477,-756.4462 318.3998,-799.017 356.8398,-821.5 360.2372,-823.487 363.8618,-825.2619 367.5968,-826.8461"/>
<polygon fill="#191970" stroke="#191970" points="366.45,-830.1541 377.0419,-830.4035 368.9173,-823.6033 366.45,-830.1541"/>
</g>
<!-- Node8 -->
<g id="node9" class="node">
<title>Node8</title>
<g id="a_node9"><a xlink:href="Conti2D_8cpp_a0a60bfe4f254fa10e96fabb22a125343.html#a0a60bfe4f254fa10e96fabb22a125343" target="_top" xlink:title="DWC_s2p_ItegrationIter">
<polygon fill="#ffffff" stroke="#000000" points="360.7339,-756.5 360.7339,-774.5 484.0044,-774.5 484.0044,-756.5 360.7339,-756.5"/>
<text text-anchor="middle" x="422.3691" y="-762.5" font-family="Helvetica,sans-Serif" font-size="10.00" fill="#000000">DWC_s2p_ItegrationIter</text>
</a>
</g>
</g>
<!-- Node1&#45;&gt;Node8 -->
<g id="edge8" class="edge">
<title>Node1&#45;&gt;Node8</title>
<path fill="none" stroke="#191970" d="M295.9014,-735.81C318.1556,-741.0345 348.5335,-748.1661 373.9388,-754.1303"/>
<polygon fill="#191970" stroke="#191970" points="373.2272,-757.5584 383.7625,-756.4366 374.8271,-750.7436 373.2272,-757.5584"/>
</g>
<!-- Node11 -->
<g id="node12" class="node">
<title>Node11</title>
<g id="a_node12"><a xlink:href="Conti2D_8cpp_a7730328c8e132ff0a35142a6d31bac18.html#a7730328c8e132ff0a35142a6d31bac18" target="_top" xlink:title="DWC_s2p_LandweberIter">
<polygon fill="#ffffff" stroke="#000000" points="356.8398,-793.5 356.8398,-811.5 487.8984,-811.5 487.8984,-793.5 356.8398,-793.5"/>
<text text-anchor="middle" x="422.3691" y="-799.5" font-family="Helvetica,sans-Serif" font-size="10.00" fill="#000000">DWC_s2p_LandweberIter</text>
</a>
</g>
</g>
<!-- Node1&#45;&gt;Node11 -->
<g id="edge15" class="edge">
<title>Node1&#45;&gt;Node11</title>
<path fill="none" stroke="#191970" d="M277.261,-737.6672C294.4219,-749.8795 326.6038,-771.4573 356.8398,-784.5 361.9179,-786.6905 367.3333,-788.6823 372.7923,-790.4747"/>
<polygon fill="#191970" stroke="#191970" points="372.0154,-793.8973 382.6022,-793.4856 374.0693,-787.2054 372.0154,-793.8973"/>
</g>
<!-- Node12 -->
<g id="node13" class="node">
<title>Node12</title>
<g id="a_node13"><a xlink:href="Conti2D_8cpp_a6f44a06f2b4926f66481fccf277bea50.html#a6f44a06f2b4926f66481fccf277bea50" target="_top" xlink:title="Getkernel_p2p_new">
<polygon fill="#ffffff" stroke="#000000" points="369.6157,-719.5 369.6157,-737.5 475.1226,-737.5 475.1226,-719.5 369.6157,-719.5"/>
<text text-anchor="middle" x="422.3691" y="-725.5" font-family="Helvetica,sans-Serif" font-size="10.00" fill="#000000">Getkernel_p2p_new</text>
</a>
</g>
</g>
<!-- Node1&#45;&gt;Node12 -->
<g id="edge22" class="edge">
<title>Node1&#45;&gt;Node12</title>
<path fill="none" stroke="#191970" d="M295.9014,-728.5C314.0234,-728.5 337.5323,-728.5 359.3563,-728.5"/>
<polygon fill="#191970" stroke="#191970" points="359.5704,-732.0001 369.5703,-728.5 359.5703,-725.0001 359.5704,-732.0001"/>
</g>
<!-- Node14 -->
<g id="node15" class="node">
<title>Node14</title>
<g id="a_node15"><a xlink:href="Conti2D_8cpp_a2c90cdea3ca11177ba34c14a3b0a00cb.html#a2c90cdea3ca11177ba34c14a3b0a00cb" target="_top" xlink:title="Read a Surfer Grid data from file. ">
<polygon fill="#ffffff" stroke="#000000" points="394.0811,-531.5 394.0811,-549.5 450.6572,-549.5 450.6572,-531.5 394.0811,-531.5"/>
<text text-anchor="middle" x="422.3691" y="-537.5" font-family="Helvetica,sans-Serif" font-size="10.00" fill="#000000">ReadGrd</text>
</a>
</g>
</g>
<!-- Node1&#45;&gt;Node14 -->
<g id="edge25" class="edge">
<title>Node1&#45;&gt;Node14</title>
<path fill="none" stroke="#191970" d="M272.3653,-719.4324C297.0608,-689.9743 375.3133,-596.6307 407.9044,-557.7543"/>
<polygon fill="#191970" stroke="#191970" points="410.7303,-559.8314 414.4725,-549.9195 405.3659,-555.3343 410.7303,-559.8314"/>
</g>
<!-- Node15 -->
<g id="node16" class="node">
<title>Node15</title>
<g id="a_node16"><a xlink:href="Conti2D_8cpp_ab76adf263893ac28772283c5a00b964c.html#ab76adf263893ac28772283c5a00b964c" target="_top" xlink:title="Save a Surfer Grid data to file. ">
<polygon fill="#ffffff" stroke="#000000" points="394.6377,-417.5 394.6377,-435.5 450.1006,-435.5 450.1006,-417.5 394.6377,-417.5"/>
<text text-anchor="middle" x="422.3691" y="-423.5" font-family="Helvetica,sans-Serif" font-size="10.00" fill="#000000">SaveGrd</text>
</a>
</g>
</g>
<!-- Node1&#45;&gt;Node15 -->
<g id="edge26" class="edge">
<title>Node1&#45;&gt;Node15</title>
<path fill="none" stroke="#191970" d="M268.6664,-719.1809C283.4068,-684.08 335.9127,-559.9442 356.8398,-522.5 372.9145,-493.7381 395.1418,-462.612 409.1339,-443.8383"/>
<polygon fill="#191970" stroke="#191970" points="412.0586,-445.7726 415.2781,-435.6788 406.4667,-441.5618 412.0586,-445.7726"/>
</g>
<!-- Node3 -->
<g id="node4" class="node">
<title>Node3</title>
<g id="a_node4"><a xlink:href="Conti2D_8cpp_a98827c14ed7072c96834f20205c7a916.html#a98827c14ed7072c96834f20205c7a916" target="_top" xlink:title="Norm2">
<polygon fill="#ffffff" stroke="#000000" points="566.1421,-811.5 566.1421,-829.5 612.147,-829.5 612.147,-811.5 566.1421,-811.5"/>
<text text-anchor="middle" x="589.1445" y="-817.5" font-family="Helvetica,sans-Serif" font-size="10.00" fill="#000000">Norm2</text>
</a>
</g>
</g>
<!-- Node2&#45;&gt;Node3 -->
<g id="edge3" class="edge">
<title>Node2&#45;&gt;Node3</title>
<path fill="none" stroke="#191970" d="M469.7142,-834.1062C497.184,-830.9767 531.1157,-827.111 555.7826,-824.3008"/>
<polygon fill="#191970" stroke="#191970" points="556.2015,-827.7758 565.741,-823.1663 555.4091,-820.8208 556.2015,-827.7758"/>
</g>
<!-- Node4 -->
<g id="node5" class="node">
<title>Node4</title>
<g id="a_node5"><a xlink:href="Conti2D_8cpp_a6334abab105b1fe7efa9a3e2a4b07c47.html#a6334abab105b1fe7efa9a3e2a4b07c47" target="_top" xlink:title="Save results of at each iteration step as vtk file. ">
<polygon fill="#ffffff" stroke="#000000" points="548.9082,-531.5 548.9082,-549.5 629.3809,-549.5 629.3809,-531.5 548.9082,-531.5"/>
<text text-anchor="middle" x="589.1445" y="-537.5" font-family="Helvetica,sans-Serif" font-size="10.00" fill="#000000">SaveGrd2VTK</text>
</a>
</g>
</g>
<!-- Node2&#45;&gt;Node4 -->
<g id="edge4" class="edge">
<title>Node2&#45;&gt;Node4</title>
<path fill="none" stroke="#191970" d="M469.6186,-833.3575C476.4797,-830.6506 482.9004,-826.8409 487.8984,-821.5 542.4526,-763.2028 494.3664,-719.6794 523.8984,-645.5 537.1158,-612.3002 560.7399,-577.8703 575.6428,-557.8541"/>
<polygon fill="#191970" stroke="#191970" points="578.552,-559.8102 581.8076,-549.7279 572.9752,-555.5793 578.552,-559.8102"/>
</g>
<!-- Node5 -->
<g id="node6" class="node">
<title>Node5</title>
<g id="a_node6"><a xlink:href="classMultiProgressBar_a58eef55ad6d5c7d769b3a402a2ef7b85.html#a58eef55ad6d5c7d769b3a402a2ef7b85" target="_top" xlink:title="MultiProgressBar::Update">
<polygon fill="#ffffff" stroke="#000000" points="523.8984,-737.5 523.8984,-755.5 654.3906,-755.5 654.3906,-737.5 523.8984,-737.5"/>
<text text-anchor="middle" x="589.1445" y="-743.5" font-family="Helvetica,sans-Serif" font-size="10.00" fill="#000000">MultiProgressBar::Update</text>
</a>
</g>
</g>
<!-- Node2&#45;&gt;Node5 -->
<g id="edge5" class="edge">
<title>Node2&#45;&gt;Node5</title>
<path fill="none" stroke="#191970" d="M469.7758,-830.9989C476.2251,-828.5837 482.4795,-825.4824 487.8984,-821.5 511.7406,-803.9784 500.1909,-783.2034 523.8984,-765.5 526.8614,-763.2874 530.0769,-761.3318 533.4387,-759.6034"/>
<polygon fill="#191970" stroke="#191970" points="534.8832,-762.7916 542.6062,-755.5386 532.0458,-756.3925 534.8832,-762.7916"/>
</g>
<!-- Node6 -->
<g id="node7" class="node">
<title>Node6</title>
<g id="a_node7"><a xlink:href="Conti2D_8cpp_a632c1e4efbb7e9b1aaf04db729e69394.html#a632c1e4efbb7e9b1aaf04db729e69394" target="_top" xlink:title="UWC_Gij">
<polygon fill="#ffffff" stroke="#000000" points="560.312,-700.5 560.312,-718.5 617.9771,-718.5 617.9771,-700.5 560.312,-700.5"/>
<text text-anchor="middle" x="589.1445" y="-706.5" font-family="Helvetica,sans-Serif" font-size="10.00" fill="#000000">UWC_Gij</text>
</a>
</g>
</g>
<!-- Node2&#45;&gt;Node6 -->
<g id="edge6" class="edge">
<title>Node2&#45;&gt;Node6</title>
<path fill="none" stroke="#191970" d="M469.5503,-832.3484C476.2561,-829.7557 482.6461,-826.2457 487.8984,-821.5 520.7848,-791.7858 491.2403,-758.4648 523.8984,-728.5 531.1892,-721.8105 540.7055,-717.4649 550.2067,-714.6454"/>
<polygon fill="#191970" stroke="#191970" points="551.1392,-718.0203 560.0086,-712.2252 549.4612,-711.2244 551.1392,-718.0203"/>
</g>
<!-- Node7 -->
<g id="node8" class="node">
<title>Node7</title>
<g id="a_node8"><a xlink:href="Conti2D_8cpp_a9d30373a0ff29e4f743eaf5e4cbc3cbf.html#a9d30373a0ff29e4f743eaf5e4cbc3cbf" target="_top" xlink:title="UWC_Gji">
<polygon fill="#ffffff" stroke="#000000" points="560.312,-848.5 560.312,-866.5 617.9771,-866.5 617.9771,-848.5 560.312,-848.5"/>
<text text-anchor="middle" x="589.1445" y="-854.5" font-family="Helvetica,sans-Serif" font-size="10.00" fill="#000000">UWC_Gji</text>
</a>
</g>
</g>
<!-- Node2&#45;&gt;Node7 -->
<g id="edge7" class="edge">
<title>Node2&#45;&gt;Node7</title>
<path fill="none" stroke="#191970" d="M469.7142,-844.6099C495.0481,-847.3442 525.878,-850.6717 549.868,-853.2609"/>
<polygon fill="#191970" stroke="#191970" points="549.7111,-856.7642 560.0289,-854.3576 550.4623,-849.8046 549.7111,-856.7642"/>
</g>
<!-- Node8&#45;&gt;Node3 -->
<g id="edge9" class="edge">
<title>Node8&#45;&gt;Node3</title>
<path fill="none" stroke="#191970" d="M458.1311,-774.5979C467.9037,-777.4264 478.4118,-780.7885 487.8984,-784.5 504.5574,-791.0176 507.1974,-796.0911 523.8984,-802.5 534.1011,-806.4152 545.5016,-809.8613 555.8832,-812.6624"/>
<polygon fill="#191970" stroke="#191970" points="555.2849,-816.1229 565.843,-815.242 557.04,-809.3464 555.2849,-816.1229"/>
</g>
<!-- Node8&#45;&gt;Node4 -->
<g id="edge12" class="edge">
<title>Node8&#45;&gt;Node4</title>
<path fill="none" stroke="#191970" d="M474.6175,-756.3467C479.4688,-754.0203 484.0131,-751.1181 487.8984,-747.5 523.0806,-714.7383 503.0898,-688.8372 523.8984,-645.5 539.4463,-613.1191 562.5523,-578.1983 576.6882,-557.8992"/>
<polygon fill="#191970" stroke="#191970" points="579.5928,-559.8534 582.4925,-549.663 573.871,-555.8209 579.5928,-559.8534"/>
</g>
<!-- Node8&#45;&gt;Node5 -->
<g id="edge13" class="edge">
<title>Node8&#45;&gt;Node5</title>
<path fill="none" stroke="#191970" d="M484.4701,-758.4251C493.9555,-757.3445 503.8346,-756.219 513.5705,-755.1098"/>
<polygon fill="#191970" stroke="#191970" points="514.1023,-758.572 523.6419,-753.9624 513.3099,-751.617 514.1023,-758.572"/>
</g>
<!-- Node8&#45;&gt;Node6 -->
<g id="edge14" class="edge">
<title>Node8&#45;&gt;Node6</title>
<path fill="none" stroke="#191970" d="M460.9449,-756.4064C469.9159,-753.8803 479.3417,-750.8864 487.8984,-747.5 504.7206,-740.8424 507.1277,-735.286 523.8984,-728.5 532.3213,-725.0918 541.5814,-722.0147 550.4127,-719.3778"/>
<polygon fill="#191970" stroke="#191970" points="551.484,-722.7118 560.1338,-716.5937 549.5567,-715.9824 551.484,-722.7118"/>
</g>
<!-- Node9 -->
<g id="node10" class="node">
<title>Node9</title>
<g id="a_node10"><a xlink:href="Conti2D_8cpp_a43fc3af75243a047d61aadea31c0fa9c.html#a43fc3af75243a047d61aadea31c0fa9c" target="_top" xlink:title="Get 2nd norm of the gradient of a grid data. ">
<polygon fill="#ffffff" stroke="#000000" points="544.1841,-774.5 544.1841,-792.5 634.105,-792.5 634.105,-774.5 544.1841,-774.5"/>
<text text-anchor="middle" x="589.1445" y="-780.5" font-family="Helvetica,sans-Serif" font-size="10.00" fill="#000000">Norm2_Gradient</text>
</a>
</g>
</g>
<!-- Node8&#45;&gt;Node9 -->
<g id="edge10" class="edge">
<title>Node8&#45;&gt;Node9</title>
<path fill="none" stroke="#191970" d="M484.4701,-772.2025C500.6517,-773.949 517.9793,-775.8192 533.7863,-777.5252"/>
<polygon fill="#191970" stroke="#191970" points="533.6089,-781.0263 543.9268,-778.6197 534.3602,-774.0667 533.6089,-781.0263"/>
</g>
<!-- Node10 -->
<g id="node11" class="node">
<title>Node10</title>
<g id="a_node11"><a xlink:href="Conti2D_8cpp_a88f10a86b8808047787d2df5e8cbcb72.html#a88f10a86b8808047787d2df5e8cbcb72" target="_top" xlink:title="Get file name from a full path. ">
<polygon fill="#ffffff" stroke="#000000" points="538.625,-380.5 538.625,-398.5 639.6641,-398.5 639.6641,-380.5 538.625,-380.5"/>
<text text-anchor="middle" x="589.1445" y="-386.5" font-family="Helvetica,sans-Serif" font-size="10.00" fill="#000000">Path_GetFileName</text>
</a>
</g>
</g>
<!-- Node8&#45;&gt;Node10 -->
<g id="edge11" class="edge">
<title>Node8&#45;&gt;Node10</title>
<path fill="none" stroke="#191970" d="M476.5633,-756.3598C480.7952,-754.0125 484.6702,-751.1023 487.8984,-747.5 555.4855,-672.0813 493.2587,-619.0257 523.8984,-522.5 537.6373,-479.2179 563.4613,-432.3732 578.1649,-407.4686"/>
<polygon fill="#191970" stroke="#191970" points="581.2394,-409.147 583.3782,-398.7703 575.2352,-405.5484 581.2394,-409.147"/>
</g>
<!-- Node11&#45;&gt;Node3 -->
<g id="edge16" class="edge">
<title>Node11&#45;&gt;Node3</title>
<path fill="none" stroke="#191970" d="M488.2832,-809.6141C511.4834,-812.1181 536.5729,-814.826 555.9249,-816.9146"/>
<polygon fill="#191970" stroke="#191970" points="555.7194,-820.4127 566.0373,-818.006 556.4706,-813.4531 555.7194,-820.4127"/>
</g>
<!-- Node11&#45;&gt;Node4 -->
<g id="edge19" class="edge">
<title>Node11&#45;&gt;Node4</title>
<path fill="none" stroke="#191970" d="M475.5778,-793.3574C480.1241,-791.0208 484.3376,-788.1134 487.8984,-784.5 532.6915,-739.0459 498.7706,-704.1608 523.8984,-645.5 538.0422,-612.4816 561.58,-577.7569 576.1833,-557.6699"/>
<polygon fill="#191970" stroke="#191970" points="579.0704,-559.6521 582.1983,-549.5295 573.4406,-555.4921 579.0704,-559.6521"/>
</g>
<!-- Node11&#45;&gt;Node5 -->
<g id="edge20" class="edge">
<title>Node11&#45;&gt;Node5</title>
<path fill="none" stroke="#191970" d="M460.9449,-793.4064C469.9159,-790.8803 479.3417,-787.8864 487.8984,-784.5 504.7206,-777.8424 507.1277,-772.286 523.8984,-765.5 530.1442,-762.9727 536.8504,-760.6275 543.5008,-758.5088"/>
<polygon fill="#191970" stroke="#191970" points="544.5976,-761.8336 553.1442,-755.5721 542.5583,-755.1372 544.5976,-761.8336"/>
</g>
<!-- Node11&#45;&gt;Node6 -->
<g id="edge21" class="edge">
<title>Node11&#45;&gt;Node6</title>
<path fill="none" stroke="#191970" d="M471.1304,-793.4802C477.0988,-791.1441 482.8598,-788.2029 487.8984,-784.5 511.7406,-766.9784 500.1909,-746.2034 523.8984,-728.5 531.6042,-722.7458 541.018,-718.7296 550.2709,-715.9281"/>
<polygon fill="#191970" stroke="#191970" points="551.3715,-719.258 560.1595,-713.3401 549.5992,-712.4861 551.3715,-719.258"/>
</g>
<!-- Node11&#45;&gt;Node9 -->
<g id="edge17" class="edge">
<title>Node11&#45;&gt;Node9</title>
<path fill="none" stroke="#191970" d="M488.2832,-794.9907C503.3026,-793.2796 519.1138,-791.4783 533.6475,-789.8225"/>
<polygon fill="#191970" stroke="#191970" points="534.4354,-793.2555 543.9749,-788.646 533.643,-786.3005 534.4354,-793.2555"/>
</g>
<!-- Node11&#45;&gt;Node10 -->
<g id="edge18" class="edge">
<title>Node11&#45;&gt;Node10</title>
<path fill="none" stroke="#191970" d="M476.648,-793.4348C480.8624,-791.072 484.7102,-788.1378 487.8984,-784.5 526.6339,-740.3028 506.738,-578.7081 523.8984,-522.5 537.1581,-479.0687 563.1638,-432.2806 578.0264,-407.4255"/>
<polygon fill="#191970" stroke="#191970" points="581.0986,-409.1096 583.3002,-398.746 575.1163,-405.4746 581.0986,-409.1096"/>
</g>
<!-- Node12&#45;&gt;Node5 -->
<g id="edge24" class="edge">
<title>Node12&#45;&gt;Node5</title>
<path fill="none" stroke="#191970" d="M475.1379,-734.1953C487.3365,-735.5119 500.5503,-736.9381 513.512,-738.337"/>
<polygon fill="#191970" stroke="#191970" points="513.5109,-741.8571 523.8287,-739.4505 514.2621,-734.8976 513.5109,-741.8571"/>
</g>
<!-- Node13 -->
<g id="node14" class="node">
<title>Node13</title>
<g id="a_node14"><a xlink:href="Conti2D_8cpp_a4bb34ae88cf16e429505f9eb746384cd.html#a4bb34ae88cf16e429505f9eb746384cd" target="_top" xlink:title="GetPmnij">
<polygon fill="#ffffff" stroke="#000000" points="560.583,-654.5 560.583,-672.5 617.7061,-672.5 617.7061,-654.5 560.583,-654.5"/>
<text text-anchor="middle" x="589.1445" y="-660.5" font-family="Helvetica,sans-Serif" font-size="10.00" fill="#000000">GetPmnij</text>
</a>
</g>
</g>
<!-- Node12&#45;&gt;Node13 -->
<g id="edge23" class="edge">
<title>Node12&#45;&gt;Node13</title>
<path fill="none" stroke="#191970" d="M460.9449,-719.4064C469.9159,-716.8803 479.3417,-713.8864 487.8984,-710.5 504.7206,-703.8424 507.5726,-699.2959 523.8984,-691.5 534.7141,-686.3353 546.7265,-681.0546 557.4661,-676.491"/>
<polygon fill="#191970" stroke="#191970" points="559.0379,-679.627 566.9004,-672.5254 556.3254,-673.1739 559.0379,-679.627"/>
</g>
<!-- Node16&#45;&gt;Node4 -->
<g id="edge34" class="edge">
<title>Node16&#45;&gt;Node4</title>
<path fill="none" stroke="#191970" d="M132.4053,-313.4369C143.0203,-302.6779 160.547,-283.871 172.6875,-265.5 192.8523,-234.9867 177.7461,-211.0016 208.6875,-191.5 313.6698,-125.3322 393.2715,-110.218 487.8984,-190.5 525.3395,-222.2652 508.8561,-361.7604 523.8984,-408.5 537.726,-451.465 563.5163,-497.9544 578.1905,-522.6689"/>
<polygon fill="#191970" stroke="#191970" points="575.2331,-524.5425 583.3926,-531.3008 581.2285,-520.9293 575.2331,-524.5425"/>
</g>
<!-- Node16&#45;&gt;Node10 -->
<g id="edge30" class="edge">
<title>Node16&#45;&gt;Node10</title>
<path fill="none" stroke="#191970" d="M133.9878,-313.1282C145.3595,-302.6608 162.9336,-284.6555 172.6875,-265.5 204.9748,-202.0915 153.0027,-153.798 208.6875,-109.5 238.8763,-85.4844 470.5403,-110.431 487.8984,-123.5 569.3832,-184.8501 585.2877,-320.2085 588.3918,-370.3368"/>
<polygon fill="#191970" stroke="#191970" points="584.9015,-370.6167 588.9092,-380.4243 591.8923,-370.2581 584.9015,-370.6167"/>
</g>
<!-- Node16&#45;&gt;Node14 -->
<g id="edge31" class="edge">
<title>Node16&#45;&gt;Node14</title>
<path fill="none" stroke="#191970" d="M124.9133,-331.6124C130.8601,-360.2658 153.2207,-449.1966 208.6875,-492.5 259.7084,-532.3325 337.3663,-540.4146 383.6717,-541.3594"/>
<polygon fill="#191970" stroke="#191970" points="383.8598,-544.8614 393.8944,-541.4619 383.93,-537.8617 383.8598,-544.8614"/>
</g>
<!-- Node16&#45;&gt;Node15 -->
<g id="edge32" class="edge">
<title>Node16&#45;&gt;Node15</title>
<path fill="none" stroke="#191970" d="M128.1023,-331.6257C139.329,-351.3771 168.9622,-397.8116 208.6875,-416.5 265.3096,-443.1373 339.9625,-439.0427 384.3832,-433.1308"/>
<polygon fill="#191970" stroke="#191970" points="385.0556,-436.5704 394.4589,-431.6889 384.0639,-429.641 385.0556,-436.5704"/>
</g>
<!-- Node17 -->
<g id="node18" class="node">
<title>Node17</title>
<g id="a_node18"><a xlink:href="Conti2D_8cpp_a8d8d41669d98b597c959db5762cbb489.html#a8d8d41669d98b597c959db5762cbb489" target="_top" xlink:title="Get the kernel matrix using the new developed formula. ">
<polygon fill="#ffffff" stroke="#000000" points="208.6875,-351.5 208.6875,-369.5 320.8398,-369.5 320.8398,-351.5 208.6875,-351.5"/>
<text text-anchor="middle" x="264.7637" y="-357.5" font-family="Helvetica,sans-Serif" font-size="10.00" fill="#000000">GetKernalMatrix_new</text>
</a>
</g>
</g>
<!-- Node16&#45;&gt;Node17 -->
<g id="edge28" class="edge">
<title>Node16&#45;&gt;Node17</title>
<path fill="none" stroke="#191970" d="M156.7342,-331.5055C175.9893,-336.6734 200.3826,-343.2205 221.1154,-348.785"/>
<polygon fill="#191970" stroke="#191970" points="220.3953,-352.2156 230.9608,-351.4275 222.2099,-345.4548 220.3953,-352.2156"/>
</g>
<!-- Node18 -->
<g id="node19" class="node">
<title>Node18</title>
<g id="a_node19"><a xlink:href="Conti2D_8cpp_aaea96ecea3031c19d3ef88f6f1590d4a.html#aaea96ecea3031c19d3ef88f6f1590d4a" target="_top" xlink:title="Get file extension name from a full file path. ">
<polygon fill="#ffffff" stroke="#000000" points="372.6821,-341.5 372.6821,-359.5 472.0562,-359.5 472.0562,-341.5 372.6821,-341.5"/>
<text text-anchor="middle" x="422.3691" y="-347.5" font-family="Helvetica,sans-Serif" font-size="10.00" fill="#000000">Path_GetExtName</text>
</a>
</g>
</g>
<!-- Node16&#45;&gt;Node18 -->
<g id="edge29" class="edge">
<title>Node16&#45;&gt;Node18</title>
<path fill="none" stroke="#191970" d="M158.6768,-325.8219C208.8658,-330.5189 301.2409,-339.164 362.242,-344.8729"/>
<polygon fill="#191970" stroke="#191970" points="362.217,-348.3858 372.4997,-345.8329 362.8694,-341.4162 362.217,-348.3858"/>
</g>
<!-- Node19 -->
<g id="node20" class="node">
<title>Node19</title>
<g id="a_node20"><a xlink:href="Conti2D_8cpp_a95502a9bee4005071ea4fd3cb5e1c228.html#a95502a9bee4005071ea4fd3cb5e1c228" target="_top" xlink:title="SaveGrd2netCDF">
<polygon fill="#ffffff" stroke="#000000" points="374.6304,-228.5 374.6304,-246.5 470.1079,-246.5 470.1079,-228.5 374.6304,-228.5"/>
<text text-anchor="middle" x="422.3691" y="-234.5" font-family="Helvetica,sans-Serif" font-size="10.00" fill="#000000">SaveGrd2netCDF</text>
</a>
</g>
</g>
<!-- Node16&#45;&gt;Node19 -->
<g id="edge33" class="edge">
<title>Node16&#45;&gt;Node19</title>
<path fill="none" stroke="#191970" d="M132.0013,-313.1511C142.2369,-302.1238 159.4076,-283.065 172.6875,-265.5 190.3067,-242.1956 182.9875,-224.394 208.6875,-210.5 268.957,-177.9169 352.4162,-205.8067 394.9954,-224.2961"/>
<polygon fill="#191970" stroke="#191970" points="393.6145,-227.5126 404.171,-228.4126 396.4798,-221.1259 393.6145,-227.5126"/>
</g>
<!-- Node20 -->
<g id="node21" class="node">
<title>Node20</title>
<g id="a_node21"><a xlink:href="Conti2D_8cpp_a0858a57d19c1ac2f09fe65f7f416e2a1.html#a0858a57d19c1ac2f09fe65f7f416e2a1" target="_top" xlink:title="SaveGrd2xyz">
<polygon fill="#ffffff" stroke="#000000" points="384.3569,-304.5 384.3569,-322.5 460.3813,-322.5 460.3813,-304.5 384.3569,-304.5"/>
<text text-anchor="middle" x="422.3691" y="-310.5" font-family="Helvetica,sans-Serif" font-size="10.00" fill="#000000">SaveGrd2xyz</text>
</a>
</g>
</g>
<!-- Node16&#45;&gt;Node20 -->
<g id="edge35" class="edge">
<title>Node16&#45;&gt;Node20</title>
<path fill="none" stroke="#191970" d="M158.8004,-315.3419C174.0888,-312.6147 192.1952,-309.8412 208.6875,-308.5 265.3556,-303.8915 330.7337,-306.5905 374.097,-309.5006"/>
<polygon fill="#191970" stroke="#191970" points="373.8655,-312.9928 384.0858,-310.2009 374.3551,-306.01 373.8655,-312.9928"/>
</g>
<!-- Node16&#45;&gt;Node21 -->
<g id="edge36" class="edge">
<title>Node16&#45;&gt;Node21</title>
<path fill="none" stroke="#191970" d="M144.4146,-313.3984C153.3694,-309.2586 163.7646,-304.0474 172.6875,-298.5 189.9017,-287.7979 192.575,-282.7984 208.6875,-270.5 220.3202,-261.621 233.4045,-251.8111 244.0067,-243.9064"/>
<polygon fill="#191970" stroke="#191970" points="246.31,-246.5552 252.2423,-237.7769 242.1306,-240.9397 246.31,-246.5552"/>
</g>
<!-- Node21&#45;&gt;Node4 -->
<g id="edge42" class="edge">
<title>Node21&#45;&gt;Node4</title>
<path fill="none" stroke="#191970" d="M285.8099,-219.3964C329.1494,-202.2255 429.2048,-170.9308 487.8984,-219.5 553.7777,-274.0153 496.7041,-327.4292 523.8984,-408.5 538.2526,-451.292 563.8431,-497.847 578.3426,-522.619"/>
<polygon fill="#191970" stroke="#191970" points="575.3647,-524.4592 583.4782,-531.2726 581.3845,-520.8867 575.3647,-524.4592"/>
</g>
<!-- Node21&#45;&gt;Node10 -->
<g id="edge38" class="edge">
<title>Node21&#45;&gt;Node10</title>
<path fill="none" stroke="#191970" d="M271.3394,-219.3908C284.9041,-201.4811 317.9955,-162.1542 356.8398,-147.5 411.3389,-126.94 439.4095,-115.2249 487.8984,-147.5 565.3021,-199.0213 583.6402,-322.2863 587.893,-370.0906"/>
<polygon fill="#191970" stroke="#191970" points="584.4214,-370.5938 588.6829,-380.2938 591.4005,-370.0535 584.4214,-370.5938"/>
</g>
<!-- Node21&#45;&gt;Node14 -->
<g id="edge39" class="edge">
<title>Node21&#45;&gt;Node14</title>
<path fill="none" stroke="#191970" d="M269.8082,-237.7802C280.1395,-256.9845 304.1368,-302.6264 320.8398,-342.5 339.5762,-387.2275 334.8762,-402.2657 356.8398,-445.5 371.5793,-474.5138 393.9937,-504.9527 408.411,-523.3291"/>
<polygon fill="#191970" stroke="#191970" points="405.8094,-525.6808 414.7774,-531.3222 411.2849,-521.3196 405.8094,-525.6808"/>
</g>
<!-- Node21&#45;&gt;Node15 -->
<g id="edge40" class="edge">
<title>Node21&#45;&gt;Node15</title>
<path fill="none" stroke="#191970" d="M269.583,-237.678C282.1091,-261.0785 317.469,-324.3106 356.8398,-369.5 370.3275,-384.981 388.0073,-400.1203 401.6033,-410.9011"/>
<polygon fill="#191970" stroke="#191970" points="399.8182,-413.9464 409.8629,-417.3161 404.112,-408.4179 399.8182,-413.9464"/>
</g>
<!-- Node21&#45;&gt;Node18 -->
<g id="edge37" class="edge">
<title>Node21&#45;&gt;Node18</title>
<path fill="none" stroke="#191970" d="M270.1773,-237.5917C282.731,-257.8668 315.9026,-306.9992 356.8398,-332.5 359.9786,-334.4552 363.3311,-336.2015 366.798,-337.7607"/>
<polygon fill="#191970" stroke="#191970" points="365.5872,-341.0455 376.1737,-341.4659 368.16,-334.5355 365.5872,-341.0455"/>
</g>
<!-- Node21&#45;&gt;Node19 -->
<g id="edge41" class="edge">
<title>Node21&#45;&gt;Node19</title>
<path fill="none" stroke="#191970" d="M300.1334,-230.5198C319.0937,-231.6025 342.9325,-232.9638 364.5117,-234.1961"/>
<polygon fill="#191970" stroke="#191970" points="364.3826,-237.6943 374.5659,-234.7702 364.7818,-230.7057 364.3826,-237.6943"/>
</g>
<!-- Node21&#45;&gt;Node20 -->
<g id="edge43" class="edge">
<title>Node21&#45;&gt;Node20</title>
<path fill="none" stroke="#191970" d="M281.6302,-237.5965C309.2395,-252.4867 364.2502,-282.1552 396.7165,-299.665"/>
<polygon fill="#191970" stroke="#191970" points="395.1609,-302.8025 405.6239,-304.4689 398.4837,-296.6415 395.1609,-302.8025"/>
</g>
<!-- Node21&#45;&gt;Node21 -->
<g id="edge44" class="edge">
<title>Node21&#45;&gt;Node21</title>
<path fill="none" stroke="#191970" d="M243.9034,-237.5134C232.3806,-246.322 239.334,-256 264.7637,-256 281.8492,-256 290.5943,-251.6312 290.999,-246.0926"/>
<polygon fill="#191970" stroke="#191970" points="293.8992,-244.1294 285.624,-237.5134 287.9673,-247.8459 293.8992,-244.1294"/>
</g>
<!-- Node22&#45;&gt;Node2 -->
<g id="edge46" class="edge">
<title>Node22&#45;&gt;Node2</title>
<path fill="none" stroke="#191970" d="M268.9904,-587.6689C278.742,-608.9824 303.3189,-663.6205 320.8398,-710.5 338.9967,-759.0809 319.3415,-785.6719 356.8398,-821.5 359.5589,-824.0979 362.6167,-826.3279 365.8868,-828.2414"/>
<polygon fill="#191970" stroke="#191970" points="364.4231,-831.4212 374.9519,-832.6024 367.4578,-825.1132 364.4231,-831.4212"/>
</g>
<!-- Node22&#45;&gt;Node4 -->
<g id="edge57" class="edge">
<title>Node22&#45;&gt;Node4</title>
<path fill="none" stroke="#191970" d="M295.5815,-586.1292C339.099,-595.6262 420.7431,-608.7373 487.8984,-592.5 517.5782,-585.3238 548.3172,-567.8643 568.0226,-555.1507"/>
<polygon fill="#191970" stroke="#191970" points="570.1052,-557.9694 576.5067,-549.5271 566.2378,-552.1348 570.1052,-557.9694"/>
</g>
<!-- Node22&#45;&gt;Node8 -->
<g id="edge47" class="edge">
<title>Node22&#45;&gt;Node8</title>
<path fill="none" stroke="#191970" d="M267.0683,-587.8629C274.6094,-616.4807 301.3186,-703.5128 356.8398,-747.5 358.8627,-749.1027 361.0184,-750.5628 363.2693,-751.8932"/>
<polygon fill="#191970" stroke="#191970" points="361.8323,-755.0875 372.3446,-756.4077 364.9501,-748.8201 361.8323,-755.0875"/>
</g>
<!-- Node22&#45;&gt;Node10 -->
<g id="edge53" class="edge">
<title>Node22&#45;&gt;Node10</title>
<path fill="none" stroke="#191970" d="M295.6384,-584.1774C341.4047,-590.8756 428.2501,-596.8379 487.8984,-559.5 516.961,-541.3078 562.2619,-448.1183 580.805,-407.9558"/>
<polygon fill="#191970" stroke="#191970" points="584.0355,-409.3072 585.0108,-398.7574 577.6694,-406.3964 584.0355,-409.3072"/>
</g>
<!-- Node22&#45;&gt;Node11 -->
<g id="edge48" class="edge">
<title>Node22&#45;&gt;Node11</title>
<path fill="none" stroke="#191970" d="M268.5462,-587.5322C284.8357,-626.3528 348.5536,-777.3882 356.8398,-784.5 358.5856,-785.9983 360.4457,-787.3729 362.3924,-788.6337"/>
<polygon fill="#191970" stroke="#191970" points="360.9314,-791.8217 371.398,-793.4655 364.2409,-785.6535 360.9314,-791.8217"/>
</g>
<!-- Node22&#45;&gt;Node14 -->
<g id="edge54" class="edge">
<title>Node22&#45;&gt;Node14</title>
<path fill="none" stroke="#191970" d="M295.9014,-570.9924C321.1973,-564.8934 356.9894,-556.2636 384.0439,-549.7405"/>
<polygon fill="#191970" stroke="#191970" points="385.0439,-553.0998 393.9449,-547.3533 383.4031,-546.2948 385.0439,-553.0998"/>
</g>
<!-- Node22&#45;&gt;Node15 -->
<g id="edge55" class="edge">
<title>Node22&#45;&gt;Node15</title>
<path fill="none" stroke="#191970" d="M274.1506,-569.4469C299.9312,-544.5833 372.1062,-474.9753 405.2881,-442.9735"/>
<polygon fill="#191970" stroke="#191970" points="408.0638,-445.159 412.8321,-435.6978 403.2045,-440.1205 408.0638,-445.159"/>
</g>
<!-- Node22&#45;&gt;Node18 -->
<g id="edge52" class="edge">
<title>Node22&#45;&gt;Node18</title>
<path fill="none" stroke="#191970" d="M271.5403,-569.2829C282.6833,-553.8844 305.1977,-521.7308 320.8398,-492.5 340.0039,-456.6878 333.0555,-441.4254 356.8398,-408.5 368.996,-391.6719 386.8442,-376.2841 400.8449,-365.5934"/>
<polygon fill="#191970" stroke="#191970" points="403.0238,-368.3351 408.9798,-359.5729 398.8596,-362.7084 403.0238,-368.3351"/>
</g>
<!-- Node22&#45;&gt;Node19 -->
<g id="edge56" class="edge">
<title>Node22&#45;&gt;Node19</title>
<path fill="none" stroke="#191970" d="M272.6941,-569.148C285.0404,-554.0647 308.6969,-522.9656 320.8398,-492.5 353.7943,-409.82 313.117,-373.026 356.8398,-295.5 366.8523,-277.7467 384.3668,-262.6722 398.7708,-252.3445"/>
<polygon fill="#191970" stroke="#191970" points="400.9673,-255.0824 407.2425,-246.5458 397.0135,-249.3059 400.9673,-255.0824"/>
</g>
<!-- Node22&#45;&gt;Node20 -->
<g id="edge59" class="edge">
<title>Node22&#45;&gt;Node20</title>
<path fill="none" stroke="#191970" d="M272.5481,-569.088C284.6942,-553.9226 308.0815,-522.7131 320.8398,-492.5 349.1949,-425.3525 306.8925,-385.5853 356.8398,-332.5 361.6935,-327.3414 367.855,-323.556 374.4486,-320.7839"/>
<polygon fill="#191970" stroke="#191970" points="375.989,-323.956 384.3161,-317.4053 373.7215,-317.3334 375.989,-323.956"/>
</g>
<!-- Node23 -->
<g id="node24" class="node">
<title>Node23</title>
<g id="a_node24"><a xlink:href="Conti2D_8cpp_a78d8a6b80166f8976a0f18caddbe1dcb.html#a78d8a6b80166f8976a0f18caddbe1dcb" target="_top" xlink:title="Getkernel_p2s_new">
<polygon fill="#ffffff" stroke="#000000" points="369.8965,-645.5 369.8965,-663.5 474.8418,-663.5 474.8418,-645.5 369.8965,-645.5"/>
<text text-anchor="middle" x="422.3691" y="-651.5" font-family="Helvetica,sans-Serif" font-size="10.00" fill="#000000">Getkernel_p2s_new</text>
</a>
</g>
</g>
<!-- Node22&#45;&gt;Node23 -->
<g id="edge49" class="edge">
<title>Node22&#45;&gt;Node23</title>
<path fill="none" stroke="#191970" d="M279.0492,-587.5386C296.8305,-598.5591 328.3386,-617.3394 356.8398,-630.5 365.82,-634.6466 375.7369,-638.5893 385.0799,-642.0364"/>
<polygon fill="#191970" stroke="#191970" points="383.9506,-645.3497 394.5451,-645.4371 386.3175,-638.762 383.9506,-645.3497"/>
</g>
<!-- Node24 -->
<g id="node25" class="node">
<title>Node24</title>
<g id="a_node25"><a xlink:href="Conti2D_8cpp_aad82d3e86d7bd949a1311c660977b9c1.html#aad82d3e86d7bd949a1311c660977b9c1" target="_top" xlink:title="Save a grid field data on a topography as vtk format (3d) ">
<polygon fill="#ffffff" stroke="#000000" points="369.6206,-682.5 369.6206,-700.5 475.1177,-700.5 475.1177,-682.5 369.6206,-682.5"/>
<text text-anchor="middle" x="422.3691" y="-688.5" font-family="Helvetica,sans-Serif" font-size="10.00" fill="#000000">SaveGrd2VTK_topo</text>
</a>
</g>
</g>
<!-- Node22&#45;&gt;Node24 -->
<g id="edge58" class="edge">
<title>Node22&#45;&gt;Node24</title>
<path fill="none" stroke="#191970" d="M270.9771,-587.6389C284.3673,-606.6176 317.904,-650.4482 356.8398,-673.5 360.2265,-675.5051 363.8433,-677.2932 367.5727,-678.887"/>
<polygon fill="#191970" stroke="#191970" points="366.4167,-682.1917 377.0081,-682.4609 368.8963,-675.6456 366.4167,-682.1917"/>
</g>
<!-- Node23&#45;&gt;Node5 -->
<g id="edge51" class="edge">
<title>Node23&#45;&gt;Node5</title>
<path fill="none" stroke="#191970" d="M469.0781,-663.5557C475.7695,-666.0957 482.2792,-669.3448 487.8984,-673.5 511.389,-690.8703 500.2953,-711.2831 523.8984,-728.5 526.2569,-730.2204 528.7722,-731.7764 531.3915,-733.1837"/>
<polygon fill="#191970" stroke="#191970" points="530.073,-736.4295 540.6216,-737.4184 532.9921,-730.0672 530.073,-736.4295"/>
</g>
<!-- Node23&#45;&gt;Node13 -->
<g id="edge50" class="edge">
<title>Node23&#45;&gt;Node13</title>
<path fill="none" stroke="#191970" d="M475.1379,-657.3477C499.5232,-658.6636 527.9652,-660.1985 550.3406,-661.406"/>
<polygon fill="#191970" stroke="#191970" points="550.3007,-664.9088 560.4748,-661.9528 550.678,-657.919 550.3007,-664.9088"/>
</g>
<!-- Node26 -->
<g id="node27" class="node">
<title>Node26</title>
<g id="a_node27"><a xlink:href="Conti2D_8h_a5721c5478e8afad6433cd59eae9b2d67.html#a5721c5478e8afad6433cd59eae9b2d67" target="_top" xlink:title="Text_Axis">
<polygon fill="#ffffff" stroke="#000000" points="235.3672,-.5 235.3672,-18.5 294.1602,-18.5 294.1602,-.5 235.3672,-.5"/>
<text text-anchor="middle" x="264.7637" y="-6.5" font-family="Helvetica,sans-Serif" font-size="10.00" fill="#000000">Text_Axis</text>
</a>
</g>
</g>
<!-- Node25&#45;&gt;Node26 -->
<g id="edge61" class="edge">
<title>Node25&#45;&gt;Node26</title>
<path fill="none" stroke="#191970" d="M152.7009,-241.2643C160.1838,-238.5979 167.5478,-234.5735 172.6875,-228.5 229.619,-161.225 153.6505,-102.3334 208.6875,-33.5 213.2795,-27.7569 219.506,-23.3637 226.1425,-20.0105"/>
<polygon fill="#191970" stroke="#191970" points="227.5311,-23.2233 235.3314,-16.0535 224.7625,-16.7941 227.5311,-23.2233"/>
</g>
<!-- Node32&#45;&gt;Node4 -->
<g id="edge74" class="edge">
<title>Node32&#45;&gt;Node4</title>
<path fill="none" stroke="#191970" d="M296.0435,-392.5103C304.8828,-389.8464 313.9578,-385.7619 320.8398,-379.5 350.8823,-352.1646 322.9307,-317.8595 356.8398,-295.5 405.4679,-263.4349 440.8731,-261.1274 487.8984,-295.5 530.4521,-326.604 504.1644,-359.6242 523.8984,-408.5 540.8062,-450.3757 565.4493,-497.3159 579.1002,-522.3892"/>
<polygon fill="#191970" stroke="#191970" points="576.187,-524.3557 584.0676,-531.4371 582.3231,-520.9869 576.187,-524.3557"/>
</g>
<!-- Node32&#45;&gt;Node6 -->
<g id="edge76" class="edge">
<title>Node32&#45;&gt;Node6</title>
<path fill="none" stroke="#191970" d="M294.1744,-388.4487C341.6021,-375.8667 434.9964,-359.7371 487.8984,-408.5 578.2095,-491.7451 449.124,-585.0597 523.8984,-682.5 530.5156,-691.123 540.3757,-697.0117 550.4386,-701.0258"/>
<polygon fill="#191970" stroke="#191970" points="549.4548,-704.3885 560.0494,-704.328 551.7294,-697.7684 549.4548,-704.3885"/>
</g>
<!-- Node32&#45;&gt;Node10 -->
<g id="edge70" class="edge">
<title>Node32&#45;&gt;Node10</title>
<path fill="none" stroke="#191970" d="M295.9184,-393.5192C305.0703,-390.9036 314.3538,-386.5927 320.8398,-379.5 370.0285,-325.7109 299.9232,-265.0333 356.8398,-219.5 402.3241,-183.1126 437.2578,-190.7184 487.8984,-219.5 545.8181,-252.4186 574.0877,-333.0257 584.3904,-370.1744"/>
<polygon fill="#191970" stroke="#191970" points="581.0997,-371.4235 587.024,-380.2072 587.8703,-369.6462 581.0997,-371.4235"/>
</g>
<!-- Node32&#45;&gt;Node12 -->
<g id="edge68" class="edge">
<title>Node32&#45;&gt;Node12</title>
<path fill="none" stroke="#191970" d="M277.3788,-406.5915C290.5798,-416.8623 310.7579,-434.8607 320.8398,-455.5 371.077,-558.343 281.2408,-624.5627 356.8398,-710.5 358.0453,-711.8703 359.3443,-713.1406 360.7211,-714.3182"/>
<polygon fill="#191970" stroke="#191970" points="359.0927,-717.44 369.349,-720.0969 362.9881,-711.624 359.0927,-717.44"/>
</g>
<!-- Node32&#45;&gt;Node14 -->
<g id="edge71" class="edge">
<title>Node32&#45;&gt;Node14</title>
<path fill="none" stroke="#191970" d="M275.1046,-406.8826C301.4939,-430.8264 371.5778,-494.4155 404.637,-524.4111"/>
<polygon fill="#191970" stroke="#191970" points="402.4372,-527.1412 412.195,-531.2687 407.141,-521.957 402.4372,-527.1412"/>
</g>
<!-- Node32&#45;&gt;Node15 -->
<g id="edge72" class="edge">
<title>Node32&#45;&gt;Node15</title>
<path fill="none" stroke="#191970" d="M295.9014,-403.2295C321.3564,-407.9133 357.44,-414.5528 384.5533,-419.5417"/>
<polygon fill="#191970" stroke="#191970" points="383.9964,-422.998 394.4647,-421.3655 385.2632,-416.1135 383.9964,-422.998"/>
</g>
<!-- Node32&#45;&gt;Node18 -->
<g id="edge69" class="edge">
<title>Node32&#45;&gt;Node18</title>
<path fill="none" stroke="#191970" d="M295.1516,-388.4379C320.0075,-381.0256 355.3555,-370.4843 382.4857,-362.3938"/>
<polygon fill="#191970" stroke="#191970" points="383.4918,-365.7461 392.0745,-359.5343 381.4913,-359.038 383.4918,-365.7461"/>
</g>
<!-- Node32&#45;&gt;Node19 -->
<g id="edge73" class="edge">
<title>Node32&#45;&gt;Node19</title>
<path fill="none" stroke="#191970" d="M295.8968,-393.1374C304.9391,-390.4997 314.1649,-386.2724 320.8398,-379.5 359.3292,-340.4489 319.1485,-301.3219 356.8398,-261.5 360.7438,-257.3754 365.4151,-253.9566 370.4419,-251.1234"/>
<polygon fill="#191970" stroke="#191970" points="372.2899,-254.1184 379.785,-246.6302 369.2561,-247.81 372.2899,-254.1184"/>
</g>
<!-- Node32&#45;&gt;Node20 -->
<g id="edge75" class="edge">
<title>Node32&#45;&gt;Node20</title>
<path fill="none" stroke="#191970" d="M296.0143,-391.1151C304.5603,-388.4298 313.4849,-384.6831 320.8398,-379.5 342.3481,-364.3428 335.1185,-347.3503 356.8398,-332.5 362.166,-328.8587 368.1922,-325.9067 374.3795,-323.5156"/>
<polygon fill="#191970" stroke="#191970" points="375.8102,-326.7263 384.1574,-320.2014 373.5631,-320.0968 375.8102,-326.7263"/>
</g>
<!-- Node33&#45;&gt;Node4 -->
<g id="edge84" class="edge">
<title>Node33&#45;&gt;Node4</title>
<path fill="none" stroke="#191970" d="M295.7384,-471.6803C339.4423,-469.9826 421.3065,-470.0131 487.8984,-488.5 516.9919,-496.5768 547.4252,-513.5376 567.2339,-525.8995"/>
<polygon fill="#191970" stroke="#191970" points="565.4873,-528.9371 575.7983,-531.3733 569.2571,-523.0388 565.4873,-528.9371"/>
</g>
<!-- Node33&#45;&gt;Node6 -->
<g id="edge86" class="edge">
<title>Node33&#45;&gt;Node6</title>
<path fill="none" stroke="#191970" d="M295.737,-478.4161C353.7749,-487.8978 474.2968,-508.9682 487.8984,-522.5 539.5711,-573.9074 476.9491,-626.7456 523.8984,-682.5 530.8398,-690.7432 540.7074,-696.5088 550.6731,-700.5265"/>
<polygon fill="#191970" stroke="#191970" points="549.5707,-703.8489 560.1656,-703.8667 551.8943,-697.2457 549.5707,-703.8489"/>
</g>
<!-- Node33&#45;&gt;Node14 -->
<g id="edge81" class="edge">
<title>Node33&#45;&gt;Node14</title>
<path fill="none" stroke="#191970" d="M282.9007,-482.534C301.3234,-491.576 330.7742,-505.6638 356.8398,-516.5 366.4051,-520.4765 376.8905,-524.4739 386.6146,-528.0347"/>
<polygon fill="#191970" stroke="#191970" points="385.4282,-531.3275 396.0225,-531.4331 387.8064,-524.7438 385.4282,-531.3275"/>
</g>
<!-- Node33&#45;&gt;Node15 -->
<g id="edge82" class="edge">
<title>Node33&#45;&gt;Node15</title>
<path fill="none" stroke="#191970" d="M295.1516,-464.4379C320.7245,-456.8118 357.4035,-445.8736 384.8125,-437.6999"/>
<polygon fill="#191970" stroke="#191970" points="385.8706,-441.0367 394.4534,-434.8248 383.8702,-434.3286 385.8706,-441.0367"/>
</g>
<!-- Node33&#45;&gt;Node18 -->
<g id="edge80" class="edge">
<title>Node33&#45;&gt;Node18</title>
<path fill="none" stroke="#191970" d="M276.3528,-464.4555C303.108,-443.575 369.4296,-391.8156 402.6902,-365.858"/>
<polygon fill="#191970" stroke="#191970" points="405.033,-368.4694 410.763,-359.5577 400.7263,-362.951 405.033,-368.4694"/>
</g>
<!-- Node33&#45;&gt;Node19 -->
<g id="edge83" class="edge">
<title>Node33&#45;&gt;Node19</title>
<path fill="none" stroke="#191970" d="M276.8015,-464.3028C289.5088,-453.9846 309.2678,-436.1059 320.8398,-416.5 349.359,-368.1812 326.6699,-342.8056 356.8398,-295.5 367.8673,-278.2093 385.4845,-263.0272 399.6762,-252.5373"/>
<polygon fill="#191970" stroke="#191970" points="401.8569,-255.2814 407.9803,-246.6354 397.8017,-249.5757 401.8569,-255.2814"/>
</g>
<!-- Node33&#45;&gt;Node20 -->
<g id="edge85" class="edge">
<title>Node33&#45;&gt;Node20</title>
<path fill="none" stroke="#191970" d="M275.9216,-464.4134C288.2326,-453.9208 307.9988,-435.6345 320.8398,-416.5 343.4736,-382.7733 326.4123,-359.4062 356.8398,-332.5 361.9671,-327.9661 368.1181,-324.511 374.5696,-321.8786"/>
<polygon fill="#191970" stroke="#191970" points="375.8358,-325.1444 384.1525,-318.5807 373.5578,-318.5254 375.8358,-325.1444"/>
</g>
<!-- Node33&#45;&gt;Node23 -->
<g id="edge79" class="edge">
<title>Node33&#45;&gt;Node23</title>
<path fill="none" stroke="#191970" d="M272.796,-482.7247C297.8727,-511.5236 374.9753,-600.0711 407.5732,-637.5078"/>
<polygon fill="#191970" stroke="#191970" points="404.9575,-639.8336 414.164,-645.0769 410.2366,-635.2368 404.9575,-639.8336"/>
</g>
</g>
</svg>
