<?xml version="1.0" encoding="UTF-8" standalone="no"?>
<!DOCTYPE svg PUBLIC "-//W3C//DTD SVG 1.1//EN"
 "http://www.w3.org/Graphics/SVG/1.1/DTD/svg11.dtd">
<!-- Generated by graphviz version 2.40.1 (20161225.0304)
 -->
<!-- Title: MultiProgressBar.cpp Pages: 1 -->
<svg width="792pt" height="192pt"
 viewBox="0.00 0.00 792.02 192.00" xmlns="http://www.w3.org/2000/svg" xmlns:xlink="http://www.w3.org/1999/xlink">
<g id="graph0" class="graph" transform="scale(1 1) rotate(0) translate(4 188)">
<title>MultiProgressBar.cpp</title>
<polygon fill="#ffffff" stroke="transparent" points="-4,4 -4,-188 788.0171,-188 788.0171,4 -4,4"/>
<!-- Node0 -->
<g id="node1" class="node">
<title>Node0</title>
<polygon fill="#bfbfbf" stroke="#000000" points="96.2095,-165.5 96.2095,-183.5 207.2534,-183.5 207.2534,-165.5 96.2095,-165.5"/>
<text text-anchor="middle" x="151.7314" y="-171.5" font-family="Helvetica,sans-Serif" font-size="10.00" fill="#000000">MultiProgressBar.cpp</text>
</g>
<!-- Node1 -->
<g id="node2" class="node">
<title>Node1</title>
<g id="a_node2"><a xlink:href="MultiProgressBar_8h.html" target="_top" xlink:title="MultiProgressBar.h">
<polygon fill="#ffffff" stroke="#000000" points="7.4902,-55.5 7.4902,-73.5 107.9727,-73.5 107.9727,-55.5 7.4902,-55.5"/>
<text text-anchor="middle" x="57.7314" y="-61.5" font-family="Helvetica,sans-Serif" font-size="10.00" fill="#000000">MultiProgressBar.h</text>
</a>
</g>
</g>
<!-- Node0&#45;&gt;Node1 -->
<g id="edge1" class="edge">
<title>Node0&#45;&gt;Node1</title>
<path fill="none" stroke="#191970" d="M144.039,-165.4982C128.3402,-147.1273 92.3934,-105.0619 72.1932,-81.4233"/>
<polygon fill="#191970" stroke="#191970" points="74.6875,-78.9547 65.5301,-73.6261 69.3659,-83.5023 74.6875,-78.9547"/>
</g>
<!-- Node6 -->
<g id="node7" class="node">
<title>Node6</title>
<polygon fill="#ffffff" stroke="#bfbfbf" points="126.2217,-55.5 126.2217,-73.5 177.2412,-73.5 177.2412,-55.5 126.2217,-55.5"/>
<text text-anchor="middle" x="151.7314" y="-61.5" font-family="Helvetica,sans-Serif" font-size="10.00" fill="#000000">iomanip</text>
</g>
<!-- Node0&#45;&gt;Node6 -->
<g id="edge6" class="edge">
<title>Node0&#45;&gt;Node6</title>
<path fill="none" stroke="#191970" d="M151.7314,-165.4982C151.7314,-147.6913 151.7314,-107.6225 151.7314,-83.6515"/>
<polygon fill="#191970" stroke="#191970" points="155.2315,-83.6261 151.7314,-73.6261 148.2315,-83.6262 155.2315,-83.6261"/>
</g>
<!-- Node7 -->
<g id="node8" class="node">
<title>Node7</title>
<g id="a_node8"><a xlink:href="Conti2D_8h.html" target="_top" xlink:title="Conti2D.h">
<polygon fill="#ffffff" stroke="#000000" points="389.4976,-110.5 389.4976,-128.5 449.9653,-128.5 449.9653,-110.5 389.4976,-110.5"/>
<text text-anchor="middle" x="419.7314" y="-116.5" font-family="Helvetica,sans-Serif" font-size="10.00" fill="#000000">Conti2D.h</text>
</a>
</g>
</g>
<!-- Node0&#45;&gt;Node7 -->
<g id="edge7" class="edge">
<title>Node0&#45;&gt;Node7</title>
<path fill="none" stroke="#191970" d="M195.6861,-165.4795C246.5657,-155.0377 329.6814,-137.9804 379.1034,-127.8378"/>
<polygon fill="#191970" stroke="#191970" points="380.0222,-131.2223 389.1144,-125.7833 378.6149,-124.3652 380.0222,-131.2223"/>
</g>
<!-- Node2 -->
<g id="node3" class="node">
<title>Node2</title>
<polygon fill="#ffffff" stroke="#bfbfbf" points="0,-.5 0,-18.5 45.4629,-18.5 45.4629,-.5 0,-.5"/>
<text text-anchor="middle" x="22.7314" y="-6.5" font-family="Helvetica,sans-Serif" font-size="10.00" fill="#000000">stdio.h</text>
</g>
<!-- Node1&#45;&gt;Node2 -->
<g id="edge2" class="edge">
<title>Node1&#45;&gt;Node2</title>
<path fill="none" stroke="#191970" d="M51.9519,-55.4179C47.1173,-47.8207 40.0741,-36.7527 34.1138,-27.3866"/>
<polygon fill="#191970" stroke="#191970" points="36.9582,-25.337 28.6366,-18.7795 31.0525,-29.0952 36.9582,-25.337"/>
</g>
<!-- Node3 -->
<g id="node4" class="node">
<title>Node3</title>
<polygon fill="#ffffff" stroke="#bfbfbf" points="345.5591,-.5 345.5591,-18.5 399.9038,-18.5 399.9038,-.5 345.5591,-.5"/>
<text text-anchor="middle" x="372.7314" y="-6.5" font-family="Helvetica,sans-Serif" font-size="10.00" fill="#000000">iostream</text>
</g>
<!-- Node1&#45;&gt;Node3 -->
<g id="edge3" class="edge">
<title>Node1&#45;&gt;Node3</title>
<path fill="none" stroke="#191970" d="M107.9924,-55.7243C171.4381,-44.6465 279.098,-25.8487 335.5956,-15.984"/>
<polygon fill="#191970" stroke="#191970" points="336.2784,-19.4179 345.5273,-14.2499 335.0743,-12.5222 336.2784,-19.4179"/>
</g>
<!-- Node4 -->
<g id="node5" class="node">
<title>Node4</title>
<polygon fill="#ffffff" stroke="#bfbfbf" points="613.1157,-.5 613.1157,-18.5 656.3472,-18.5 656.3472,-.5 613.1157,-.5"/>
<text text-anchor="middle" x="634.7314" y="-6.5" font-family="Helvetica,sans-Serif" font-size="10.00" fill="#000000">vector</text>
</g>
<!-- Node1&#45;&gt;Node4 -->
<g id="edge4" class="edge">
<title>Node1&#45;&gt;Node4</title>
<path fill="none" stroke="#191970" d="M108.2278,-56.124C111.1018,-55.7237 113.9516,-55.3454 116.7314,-55 300.2114,-32.2001 521.6519,-16.7596 602.8821,-11.4957"/>
<polygon fill="#191970" stroke="#191970" points="603.2042,-14.9823 612.9593,-10.8485 602.7555,-7.9967 603.2042,-14.9823"/>
</g>
<!-- Node5 -->
<g id="node6" class="node">
<title>Node5</title>
<polygon fill="#ffffff" stroke="#bfbfbf" points="63.7808,-.5 63.7808,-18.5 123.6821,-18.5 123.6821,-.5 63.7808,-.5"/>
<text text-anchor="middle" x="93.7314" y="-6.5" font-family="Helvetica,sans-Serif" font-size="10.00" fill="#000000">sys/ioctl.h</text>
</g>
<!-- Node1&#45;&gt;Node5 -->
<g id="edge5" class="edge">
<title>Node1&#45;&gt;Node5</title>
<path fill="none" stroke="#191970" d="M63.6761,-55.4179C68.6488,-47.8207 75.8933,-36.7527 82.0238,-27.3866"/>
<polygon fill="#191970" stroke="#191970" points="85.1094,-29.0633 87.6576,-18.7795 79.2525,-25.2297 85.1094,-29.0633"/>
</g>
<!-- Node7&#45;&gt;Node1 -->
<g id="edge20" class="edge">
<title>Node7&#45;&gt;Node1</title>
<path fill="none" stroke="#191970" d="M389.1794,-115.0215C336.2154,-107.234 223.6593,-90.5807 118.4161,-74.2505"/>
<polygon fill="#191970" stroke="#191970" points="118.6753,-70.7488 108.2564,-72.6715 117.6002,-77.6658 118.6753,-70.7488"/>
</g>
<!-- Node7&#45;&gt;Node3 -->
<g id="edge9" class="edge">
<title>Node7&#45;&gt;Node3</title>
<path fill="none" stroke="#191970" d="M450.2461,-118.4224C508.9763,-115.2594 628.6348,-102.9065 589.7314,-55 567.562,-27.7 466.4874,-16.1911 410.4414,-11.8393"/>
<polygon fill="#191970" stroke="#191970" points="410.4295,-8.3291 400.1994,-11.0848 409.9152,-15.3102 410.4295,-8.3291"/>
</g>
<!-- Node7&#45;&gt;Node4 -->
<g id="edge12" class="edge">
<title>Node7&#45;&gt;Node4</title>
<path fill="none" stroke="#191970" d="M450.2075,-115.4262C496.9016,-108.6439 583.2197,-93.8019 606.7314,-74 620.4221,-62.4696 627.6153,-42.9883 631.2628,-28.4465"/>
<polygon fill="#191970" stroke="#191970" points="634.7204,-29.016 633.4098,-18.5025 627.8781,-27.5386 634.7204,-29.016"/>
</g>
<!-- Node7&#45;&gt;Node6 -->
<g id="edge11" class="edge">
<title>Node7&#45;&gt;Node6</title>
<path fill="none" stroke="#191970" d="M389.2739,-114.3843C346.299,-106.9915 265.2301,-92.4073 187.276,-74.2316"/>
<polygon fill="#191970" stroke="#191970" points="187.8302,-70.7664 177.2941,-71.88 186.225,-77.5799 187.8302,-70.7664"/>
</g>
<!-- Node8 -->
<g id="node9" class="node">
<title>Node8</title>
<polygon fill="#ffffff" stroke="#bfbfbf" points="194.9507,-55.5 194.9507,-73.5 246.5122,-73.5 246.5122,-55.5 194.9507,-55.5"/>
<text text-anchor="middle" x="220.7314" y="-61.5" font-family="Helvetica,sans-Serif" font-size="10.00" fill="#000000">sstream</text>
</g>
<!-- Node7&#45;&gt;Node8 -->
<g id="edge8" class="edge">
<title>Node7&#45;&gt;Node8</title>
<path fill="none" stroke="#191970" d="M389.312,-111.1448C358.1382,-102.5752 308.0029,-88.7729 256.3715,-74.4499"/>
<polygon fill="#191970" stroke="#191970" points="257.2893,-71.0724 246.7175,-71.7706 255.4173,-77.8175 257.2893,-71.0724"/>
</g>
<!-- Node9 -->
<g id="node10" class="node">
<title>Node9</title>
<polygon fill="#ffffff" stroke="#bfbfbf" points="264.0615,-55.5 264.0615,-73.5 313.4014,-73.5 313.4014,-55.5 264.0615,-55.5"/>
<text text-anchor="middle" x="288.7314" y="-61.5" font-family="Helvetica,sans-Serif" font-size="10.00" fill="#000000">fstream</text>
</g>
<!-- Node7&#45;&gt;Node9 -->
<g id="edge10" class="edge">
<title>Node7&#45;&gt;Node9</title>
<path fill="none" stroke="#191970" d="M398.0995,-110.4179C376.7665,-101.4613 343.9435,-87.6806 319.8189,-77.552"/>
<polygon fill="#191970" stroke="#191970" points="320.9708,-74.2397 310.3956,-73.5956 318.261,-80.6939 320.9708,-74.2397"/>
</g>
<!-- Node10 -->
<g id="node11" class="node">
<title>Node10</title>
<polygon fill="#ffffff" stroke="#bfbfbf" points="331.335,-55.5 331.335,-73.5 380.1279,-73.5 380.1279,-55.5 331.335,-55.5"/>
<text text-anchor="middle" x="355.7314" y="-61.5" font-family="Helvetica,sans-Serif" font-size="10.00" fill="#000000">string.h</text>
</g>
<!-- Node7&#45;&gt;Node10 -->
<g id="edge13" class="edge">
<title>Node7&#45;&gt;Node10</title>
<path fill="none" stroke="#191970" d="M409.1631,-110.4179C399.6782,-102.2667 385.544,-90.1201 374.1948,-80.3669"/>
<polygon fill="#191970" stroke="#191970" points="376.3948,-77.6427 366.5294,-73.7795 371.8324,-82.9516 376.3948,-77.6427"/>
</g>
<!-- Node11 -->
<g id="node12" class="node">
<title>Node11</title>
<polygon fill="#ffffff" stroke="#bfbfbf" points="737.4458,-.5 737.4458,-18.5 784.0171,-18.5 784.0171,-.5 737.4458,-.5"/>
<text text-anchor="middle" x="760.7314" y="-6.5" font-family="Helvetica,sans-Serif" font-size="10.00" fill="#000000">math.h</text>
</g>
<!-- Node7&#45;&gt;Node11 -->
<g id="edge14" class="edge">
<title>Node7&#45;&gt;Node11</title>
<path fill="none" stroke="#191970" d="M450.1402,-118.8207C520.0955,-116.6819 689.8057,-108.0297 733.7314,-74 747.8024,-63.0991 754.6122,-43.5262 757.8627,-28.7912"/>
<polygon fill="#191970" stroke="#191970" points="761.3538,-29.1575 759.7158,-18.69 754.4687,-27.8943 761.3538,-29.1575"/>
</g>
<!-- Node12 -->
<g id="node13" class="node">
<title>Node12</title>
<polygon fill="#ffffff" stroke="#bfbfbf" points="397.835,-55.5 397.835,-73.5 441.6279,-73.5 441.6279,-55.5 397.835,-55.5"/>
<text text-anchor="middle" x="419.7314" y="-61.5" font-family="Helvetica,sans-Serif" font-size="10.00" fill="#000000">omp.h</text>
</g>
<!-- Node7&#45;&gt;Node12 -->
<g id="edge15" class="edge">
<title>Node7&#45;&gt;Node12</title>
<path fill="none" stroke="#191970" d="M419.7314,-110.4179C419.7314,-103.2164 419.7314,-92.8962 419.7314,-83.8632"/>
<polygon fill="#191970" stroke="#191970" points="423.2315,-83.7794 419.7314,-73.7795 416.2315,-83.7795 423.2315,-83.7794"/>
</g>
<!-- Node13 -->
<g id="node14" class="node">
<title>Node13</title>
<g id="a_node14"><a xlink:href="FFTN_8h.html" target="_top" xlink:title="FFTN.h">
<polygon fill="#ffffff" stroke="#000000" points="674.7881,-55.5 674.7881,-73.5 724.6748,-73.5 724.6748,-55.5 674.7881,-55.5"/>
<text text-anchor="middle" x="699.7314" y="-61.5" font-family="Helvetica,sans-Serif" font-size="10.00" fill="#000000">FFTN.h</text>
</a>
</g>
</g>
<!-- Node7&#45;&gt;Node13 -->
<g id="edge16" class="edge">
<title>Node7&#45;&gt;Node13</title>
<path fill="none" stroke="#191970" d="M450.2697,-114.2629C496.118,-106.2809 585.4006,-90.2744 660.7314,-74 661.9959,-73.7268 663.282,-73.4433 664.58,-73.1524"/>
<polygon fill="#191970" stroke="#191970" points="665.6512,-76.4969 674.6008,-70.8263 664.0683,-69.6782 665.6512,-76.4969"/>
</g>
<!-- Node15 -->
<g id="node16" class="node">
<title>Node15</title>
<polygon fill="#ffffff" stroke="#bfbfbf" points="459.9409,-55.5 459.9409,-73.5 511.522,-73.5 511.522,-55.5 459.9409,-55.5"/>
<text text-anchor="middle" x="485.7314" y="-61.5" font-family="Helvetica,sans-Serif" font-size="10.00" fill="#000000">netcdf.h</text>
</g>
<!-- Node7&#45;&gt;Node15 -->
<g id="edge21" class="edge">
<title>Node7&#45;&gt;Node15</title>
<path fill="none" stroke="#191970" d="M430.63,-110.4179C440.4114,-102.2667 454.9873,-90.1201 466.6911,-80.3669"/>
<polygon fill="#191970" stroke="#191970" points="469.1545,-82.8701 474.5961,-73.7795 464.6732,-77.4926 469.1545,-82.8701"/>
</g>
<!-- Node16 -->
<g id="node17" class="node">
<title>Node16</title>
<polygon fill="#ffffff" stroke="#bfbfbf" points="529.2192,-55.5 529.2192,-73.5 580.2437,-73.5 580.2437,-55.5 529.2192,-55.5"/>
<text text-anchor="middle" x="554.7314" y="-61.5" font-family="Helvetica,sans-Serif" font-size="10.00" fill="#000000">unistd.h</text>
</g>
<!-- Node7&#45;&gt;Node16 -->
<g id="edge22" class="edge">
<title>Node7&#45;&gt;Node16</title>
<path fill="none" stroke="#191970" d="M442.0239,-110.4179C464.106,-101.4215 498.1344,-87.5581 523.0257,-77.4172"/>
<polygon fill="#191970" stroke="#191970" points="524.4655,-80.61 532.4058,-73.5956 521.8243,-74.1273 524.4655,-80.61"/>
</g>
<!-- Node13&#45;&gt;Node4 -->
<g id="edge18" class="edge">
<title>Node13&#45;&gt;Node4</title>
<path fill="none" stroke="#191970" d="M688.998,-55.4179C679.3648,-47.2667 665.0098,-35.1201 653.4833,-25.3669"/>
<polygon fill="#191970" stroke="#191970" points="655.5928,-22.5671 645.6981,-18.7795 651.0712,-27.9108 655.5928,-22.5671"/>
</g>
<!-- Node13&#45;&gt;Node11 -->
<g id="edge19" class="edge">
<title>Node13&#45;&gt;Node11</title>
<path fill="none" stroke="#191970" d="M709.8044,-55.4179C718.757,-47.3458 732.0552,-35.3556 742.8178,-25.6517"/>
<polygon fill="#191970" stroke="#191970" points="745.3565,-28.0753 750.4397,-18.7795 740.669,-22.8764 745.3565,-28.0753"/>
</g>
<!-- Node14 -->
<g id="node15" class="node">
<title>Node14</title>
<polygon fill="#ffffff" stroke="#bfbfbf" points="674.0903,-.5 674.0903,-18.5 719.3726,-18.5 719.3726,-.5 674.0903,-.5"/>
<text text-anchor="middle" x="696.7314" y="-6.5" font-family="Helvetica,sans-Serif" font-size="10.00" fill="#000000">fftw3.h</text>
</g>
<!-- Node13&#45;&gt;Node14 -->
<g id="edge17" class="edge">
<title>Node13&#45;&gt;Node14</title>
<path fill="none" stroke="#191970" d="M699.2361,-55.4179C698.8432,-48.2164 698.2803,-37.8962 697.7876,-28.8632"/>
<polygon fill="#191970" stroke="#191970" points="701.2771,-28.574 697.2376,-18.7795 694.2875,-28.9553 701.2771,-28.574"/>
</g>
</g>
</svg>
